<?xml version="1.0" encoding="UTF-8"?>
<!-- Generator: visioncortex VTracer 0.6.3 -->
<svg version="1.1" xmlns="http://www.w3.org/2000/svg" width="1280" height="1280">
<path d="M0 0 C1.46 0.01 1.46 0.01 2.94 0.01 C16.18 0.23 27.46 4.31 39.19 10.31 C39.19 10.97 39.19 11.63 39.19 12.31 C40.04 12.46 40.04 12.46 40.91 12.61 C47.14 14.53 52.92 20.49 57.19 25.31 C57.19 25.97 57.19 26.63 57.19 27.31 C57.85 27.31 58.51 27.31 59.19 27.31 C62.19 30.77 62.19 30.77 62.19 33.31 C62.85 33.31 63.51 33.31 64.19 33.31 C65.18 35.29 66.17 37.27 67.19 39.31 C69.87 38.68 72.27 37.91 74.88 36.94 C99.84 28.67 127.5 30.69 151.07 42.17 C158.4 45.87 164.87 50.05 171.19 55.31 C174.88 57.78 176.34 57.41 180.69 57 C181.83 56.9 182.98 56.8 184.16 56.7 C187.23 56.41 187.23 56.41 190.19 55.31 C206.32 54 219.45 56.83 234.19 63.31 C235.85 63.99 237.52 64.65 239.19 65.31 C239.19 65.97 239.19 66.63 239.19 67.31 C239.85 67.52 240.51 67.72 241.19 67.94 C245.26 69.8 248.88 72.29 252.19 75.31 C252.19 75.97 252.19 76.63 252.19 77.31 C253.15 77.71 253.15 77.71 254.12 78.12 C256.19 79.31 256.19 79.31 257.19 82.31 C257.85 82.31 258.51 82.31 259.19 82.31 C260.93 84.63 262.54 86.95 264.12 89.38 C264.57 90.03 265.01 90.69 265.47 91.37 C272.19 101.53 272.19 101.53 272.19 107.31 C273.33 107.49 273.33 107.49 274.5 107.68 C293.39 110.75 312.12 115.74 327.19 128.31 C327.19 128.97 327.19 129.63 327.19 130.31 C327.77 130.58 328.36 130.85 328.96 131.13 C343.34 138.76 355.57 157.77 360.35 173.02 C361.07 175.51 361.73 178 362.39 180.5 C362.91 183.2 362.91 183.2 364.19 184.31 C370.17 211.61 366.98 239.27 352.19 263.31 C348.53 268.8 344.77 273.76 340.06 278.38 C337.67 281.06 337.67 281.06 337.13 284.5 C337.6 286.92 337.6 286.92 338.36 289.42 C344.23 310.03 341.02 334.37 336.12 354.94 C335.39 358.06 335.01 361.06 334.79 364.26 C334.23 370.78 332.96 377.1 331.62 383.5 C331.39 384.64 331.16 385.79 330.92 386.96 C330.35 389.75 329.77 392.53 329.19 395.31 C329.85 395.31 330.51 395.31 331.19 395.31 C331.19 394.65 331.19 393.99 331.19 393.31 C333.23 392.35 335.27 391.39 337.31 390.44 C338.45 389.9 339.59 389.37 340.76 388.82 C356.76 381.78 374.55 381.27 391.19 386.31 C392.11 386.58 393.03 386.85 393.98 387.12 C402.9 390.01 410.44 395.15 418.19 400.31 C422.56 400.13 425.87 399.09 429.88 397.38 C451.08 388.71 477.38 392.36 498.19 400.31 C500.2 401.28 502.21 402.27 504.19 403.31 C504.19 403.97 504.19 404.63 504.19 405.31 C504.87 405.39 505.55 405.48 506.25 405.56 C510.06 406.54 512.83 408.27 516.19 410.31 C516.19 410.97 516.19 411.63 516.19 412.31 C516.99 412.68 516.99 412.68 517.81 413.06 C524.35 416.5 528.53 420.71 533.19 426.31 C534.23 427.5 535.27 428.69 536.31 429.88 C544.46 439.45 549.46 449.31 553.19 461.31 C553.98 463.64 554.77 465.96 555.57 468.28 C557.63 475.11 557.41 482 557.43 489.07 C557.44 491.28 557.47 493.48 557.5 495.68 C557.58 505.77 556.42 514.88 553.09 524.49 C552.04 527.29 552.04 527.29 552.19 530.31 C552.85 530.31 553.51 530.31 554.19 530.31 C555.48 531.74 555.48 531.74 556.81 533.62 C557.48 534.55 557.48 534.55 558.16 535.49 C559.19 537.31 559.19 537.31 559.19 540.31 C559.85 540.31 560.51 540.31 561.19 540.31 C561.52 541.63 561.85 542.95 562.19 544.31 C564.65 543.84 567.1 543.36 569.56 542.88 C570.26 542.74 570.96 542.61 571.68 542.47 C575.54 541.74 575.54 541.74 579.19 540.31 C580.75 540.13 582.31 539.99 583.88 539.88 C588.2 539.48 592.01 538.52 596.19 537.31 C605.3 535.52 614.22 534.96 623.5 535 C625.41 535.01 625.41 535.01 627.36 535.01 C636.65 535.13 645.2 535.84 654.19 538.31 C655.18 538.59 655.18 538.59 656.19 538.86 C671.29 543.1 685.1 549.01 698.05 557.88 C699.52 558.86 701.02 559.79 702.55 560.66 C705.8 562.69 708.67 565.08 711.56 567.56 C712.14 568.05 712.71 568.54 713.3 569.04 C719.07 574 724.74 579.09 729.19 585.31 C729.19 585.97 729.19 586.63 729.19 587.31 C729.85 587.31 730.51 587.31 731.19 587.31 C732.7 589.21 732.7 589.21 734.31 591.69 C734.85 592.5 735.39 593.31 735.95 594.15 C737.19 596.31 737.19 596.31 737.19 598.31 C737.85 598.31 738.51 598.31 739.19 598.31 C739.77 599.49 739.77 599.49 740.36 600.69 C743.61 607.29 743.61 607.29 747.25 613.69 C752.41 622.55 754.76 633.08 757.29 642.93 C758.18 646.28 759.22 649.52 760.35 652.79 C766.57 671.53 771.37 690.8 776.07 709.97 C777.35 715.14 778.73 720.24 780.38 725.31 C782.14 730.75 783.22 736.21 784.15 741.85 C784.62 744.62 785.13 747.17 786.18 749.78 C787.8 753.84 788.32 758.14 789.04 762.43 C789.72 766.31 790.73 769.67 792.19 773.31 C792.74 775.94 793.24 778.55 793.69 781.19 C794.37 785.14 795.09 788.97 796.2 792.82 C797.27 796.62 797.94 800.42 798.56 804.31 C799.52 810.08 800.73 815.69 802.31 821.31 C803.82 826.7 804.72 831.75 805.19 837.31 C805.52 837.97 805.85 838.63 806.19 839.31 C806.28 840.76 806.32 842.21 806.32 843.65 C806.32 845 806.32 845 806.33 846.37 C806.32 847.35 806.32 848.32 806.32 849.32 C806.32 850.31 806.32 851.3 806.32 852.33 C806.32 854.43 806.32 856.53 806.32 858.63 C806.31 861.87 806.32 865.1 806.32 868.33 C806.32 870.36 806.32 872.4 806.32 874.44 C806.32 875.9 806.32 875.9 806.33 877.39 C806.32 878.28 806.32 879.18 806.32 880.1 C806.32 881.29 806.32 881.29 806.31 882.5 C806.19 884.31 806.19 884.31 805.19 885.31 C804.88 886.68 804.62 888.06 804.38 889.44 C801.7 902.96 797.89 914.29 791.19 926.31 C790.82 926.97 790.45 927.63 790.07 928.32 C785.51 936.4 780.72 944.65 774.19 951.31 C773.53 951.31 772.87 951.31 772.19 951.31 C771.98 951.85 771.78 952.38 771.56 952.94 C769.65 956.23 767.14 958.91 764.19 961.31 C763.53 961.31 762.87 961.31 762.19 961.31 C761.86 962.3 761.53 963.29 761.19 964.31 C760.53 964.31 759.87 964.31 759.19 964.31 C759.19 964.97 759.19 965.63 759.19 966.31 C756.55 968.6 753.58 970.48 750.69 972.44 C749.4 973.31 749.4 973.31 748.09 974.21 C740.43 979.32 732.55 983.48 724.19 987.31 C723.36 987.72 722.54 988.12 721.69 988.54 C716.17 991.19 710.42 992.76 704.53 994.38 C701.88 995.12 699.29 995.91 696.69 996.81 C690.6 998.9 684.38 1000.58 678.19 1002.31 C678.15 1003.17 678.11 1004.03 678.07 1004.92 C677.48 1015.58 676.4 1026.08 671.15 1035.56 C670.02 1037.54 670.02 1037.54 668.81 1040.69 C666.68 1045.44 664.24 1050.08 661.19 1054.31 C660.53 1054.31 659.87 1054.31 659.19 1054.31 C658.98 1054.99 658.78 1055.67 658.56 1056.38 C654.96 1064.07 648.06 1069.56 641.19 1074.31 C640.53 1074.31 639.87 1074.31 639.19 1074.31 C639.19 1074.97 639.19 1075.63 639.19 1076.31 C636.28 1078.35 634.79 1079.31 631.19 1079.31 C631.19 1079.97 631.19 1080.63 631.19 1081.31 C625.22 1083.72 619.24 1086.12 613.19 1088.31 C612.46 1088.58 611.73 1088.85 610.97 1089.13 C607.29 1090.43 603.83 1091.46 599.94 1091.88 C596.53 1092.27 594.29 1092.96 591.19 1094.31 C587.47 1095.5 583.93 1096.4 580.06 1096.81 C576.62 1097.26 574.32 1097.95 571.19 1099.31 C567.47 1100.5 563.93 1101.4 560.06 1101.81 C556.62 1102.26 554.32 1102.95 551.19 1104.31 C547.47 1105.5 543.93 1106.4 540.06 1106.81 C536.62 1107.26 534.32 1107.95 531.19 1109.31 C527.47 1110.5 523.93 1111.4 520.06 1111.81 C516.39 1112.12 516.39 1112.12 513.93 1113.22 C510.52 1114.58 507.05 1115.45 503.5 1116.31 C502.8 1116.49 502.09 1116.66 501.37 1116.84 C496.57 1118.01 491.77 1119.05 486.91 1119.92 C485.17 1120.16 485.17 1120.16 484.19 1121.31 C482.89 1121.67 481.57 1121.97 480.25 1122.25 C479.45 1122.42 478.64 1122.6 477.82 1122.77 C474.27 1123.5 470.72 1124.18 467.16 1124.85 C465.2 1125.13 465.2 1125.13 464.19 1126.31 C462.08 1126.79 459.97 1127.26 457.85 1127.71 C455.1 1128.33 452.4 1129.06 449.69 1129.81 C445.64 1130.94 441.6 1131.9 437.5 1132.78 C434.87 1133.38 432.28 1134.09 429.69 1134.81 C425.64 1135.94 421.6 1136.9 417.5 1137.78 C414.87 1138.38 412.28 1139.09 409.69 1139.81 C405.64 1140.94 401.6 1141.9 397.5 1142.78 C394.87 1143.38 392.28 1144.09 389.69 1144.81 C385.64 1145.94 381.6 1146.9 377.5 1147.78 C374.87 1148.38 372.28 1149.09 369.69 1149.81 C365.64 1150.94 361.6 1151.9 357.5 1152.78 C354.87 1153.38 352.28 1154.09 349.69 1154.81 C345.53 1155.97 341.38 1156.98 337.16 1157.88 C335.83 1158.17 334.51 1158.49 333.2 1158.85 C327.06 1160.27 321.53 1159.77 316.04 1156.63 C311.09 1153.12 308.14 1149.37 306.62 1143.44 C305.61 1136.54 307.62 1131.06 311.69 1125.5 C318.16 1118.68 328.59 1117.68 337.41 1115.82 C343.18 1114.59 348.75 1112.99 354.37 1111.19 C359.15 1109.7 364.01 1108.73 368.93 1107.79 C369.84 1107.61 370.75 1107.43 371.69 1107.25 C372.94 1107.02 372.94 1107.02 374.22 1106.78 C376.18 1106.5 376.18 1106.5 377.19 1105.31 C378.49 1104.96 379.81 1104.66 381.12 1104.38 C381.93 1104.2 382.73 1104.03 383.56 1103.85 C387.11 1103.12 390.66 1102.44 394.22 1101.78 C396.18 1101.5 396.18 1101.5 397.19 1100.31 C398.49 1099.96 399.81 1099.66 401.12 1099.38 C401.93 1099.2 402.73 1099.03 403.56 1098.85 C407.11 1098.12 410.66 1097.44 414.22 1096.78 C416.18 1096.5 416.18 1096.5 417.19 1095.31 C418.49 1094.96 419.81 1094.66 421.12 1094.38 C421.93 1094.2 422.73 1094.03 423.56 1093.85 C427.11 1093.12 430.66 1092.44 434.22 1091.78 C436.18 1091.5 436.18 1091.5 437.19 1090.31 C439.3 1089.84 441.41 1089.36 443.52 1088.91 C446.27 1088.29 448.97 1087.57 451.69 1086.81 C455.73 1085.69 459.77 1084.72 463.88 1083.84 C466.5 1083.24 469.09 1082.53 471.69 1081.81 C475.73 1080.69 479.77 1079.72 483.88 1078.84 C486.5 1078.24 489.09 1077.53 491.69 1076.81 C495.73 1075.69 499.77 1074.72 503.88 1073.84 C506.5 1073.24 509.09 1072.53 511.69 1071.81 C515.73 1070.69 519.77 1069.72 523.88 1068.84 C526.5 1068.24 529.09 1067.53 531.69 1066.81 C537.32 1065.25 542.99 1063.99 548.71 1062.78 C549.53 1062.61 550.35 1062.43 551.19 1062.25 C551.93 1062.09 552.67 1061.94 553.44 1061.78 C555.2 1061.47 555.2 1061.47 556.19 1060.31 C558.27 1059.83 560.36 1059.36 562.45 1058.92 C565.42 1058.26 568.36 1057.51 571.31 1056.75 C575.6 1055.66 579.81 1054.94 584.19 1054.31 C585.31 1053.84 585.31 1053.84 586.46 1053.37 C589.58 1052.16 592.59 1051.6 595.88 1051 C601.44 1049.86 606.05 1048.25 611 1045.5 C613.34 1044.23 615.71 1043.26 618.19 1042.31 C618.19 1041.65 618.19 1040.99 618.19 1040.31 C619.35 1039.24 620.57 1038.23 621.81 1037.25 C629.27 1030.86 632.93 1023.8 635.19 1014.31 C629.6 1014.68 624.31 1015.46 618.88 1016.81 C601.48 1020.99 583.8 1019.52 568.31 1010.06 C556.54 1001.87 546.79 991.68 541.19 978.31 C540.9 977.7 540.62 977.09 540.32 976.45 C533.76 960.34 536.96 940.85 543.19 925.31 C543.85 925.31 544.51 925.31 545.19 925.31 C545.52 923.66 545.85 922.01 546.19 920.31 C546.85 920.31 547.51 920.31 548.19 920.31 C548.19 919.32 548.19 918.33 548.19 917.31 C548.85 917.31 549.51 917.31 550.19 917.31 C550.37 916.63 550.56 915.95 550.75 915.25 C552.74 911.18 555.69 908.18 559.19 905.31 C559.85 905.31 560.51 905.31 561.19 905.31 C561.19 904.65 561.19 903.99 561.19 903.31 C563.16 901.89 565.11 900.62 567.19 899.38 C567.79 899.01 568.39 898.65 569.01 898.28 C576.57 893.82 583.31 892 591.9 890.51 C596.62 889.68 601.1 888.53 605.69 887.12 C610.77 885.59 614.9 884.89 620.19 885.31 C620.05 883.35 619.9 881.4 619.75 879.44 C619.67 878.35 619.59 877.26 619.5 876.13 C619.36 873.37 619.36 873.37 618.19 871.31 C617.87 869.55 617.58 867.77 617.31 866 C616.59 861.49 615.7 857.07 614.62 852.62 C613.57 848.21 612.79 843.94 612.5 839.41 C612.23 837.16 612.23 837.16 611.25 834.53 C610.07 830.96 609.4 827.46 608.75 823.75 C607.6 811.63 607.6 811.63 603.19 801.31 C602.86 799.86 602.58 798.4 602.31 796.94 C601.41 792.2 600.21 787.61 598.91 782.97 C597.64 778.29 596.66 773.54 595.66 768.79 C595.48 767.97 595.31 767.15 595.12 766.31 C594.89 765.2 594.89 765.2 594.65 764.06 C594.34 762.3 594.34 762.3 593.19 761.31 C592.84 759.99 592.53 758.65 592.25 757.31 C592.07 756.5 591.9 755.68 591.72 754.84 C591.38 753.24 591.05 751.64 590.72 750.03 C589.78 745.61 588.59 741.42 587.11 737.16 C585.84 733.24 584.77 729.28 583.69 725.31 C582.19 719.86 580.66 714.46 578.8 709.11 C577.81 706.21 577.03 703.26 576.19 700.31 C575.69 698.81 575.19 697.31 574.69 695.81 C572.51 689.3 570.91 683.14 570.19 676.31 C566.85 676.97 563.52 677.64 560.19 678.31 C559.02 678.55 559.02 678.55 557.84 678.79 C554.08 679.58 550.45 680.51 546.81 681.75 C536.89 685.13 528.16 686.81 517.62 686.75 C516.47 686.77 515.32 686.79 514.13 686.81 C506.59 686.81 500.96 685.56 494.19 682.31 C492.52 681.69 492.52 681.69 490.81 681.06 C485.22 678.65 479.99 675.03 475.19 671.31 C475.19 670.65 475.19 669.99 475.19 669.31 C474.59 669.07 473.99 668.82 473.38 668.56 C470.87 667.13 469.71 665.74 468.19 663.31 C468.19 662.65 468.19 661.99 468.19 661.31 C467.53 661.31 466.87 661.31 466.19 661.31 C456.69 648.97 451.82 632.34 453.78 616.92 C453.98 615.63 453.98 615.63 454.19 614.31 C454.3 613.49 454.41 612.67 454.53 611.83 C457.2 595.72 465.99 581.07 478.94 571.22 C491.87 562.18 505.9 558.27 521.19 555.31 C514.52 546.26 505.07 541.38 494.19 539.31 C493.16 539.09 492.12 538.86 491.06 538.62 C478.28 537.24 466.43 540.4 454.18 543.78 C450.78 544.69 447.36 545.53 443.94 546.38 C439.31 547.52 434.71 548.71 430.12 550 C426.16 551.11 422.27 551.74 418.19 552.31 C417.09 552.77 417.09 552.77 415.96 553.25 C411.39 555 406.59 555.65 401.78 556.53 C398.32 557.18 398.32 557.18 395.69 558.31 C391.24 560.09 386.48 560.67 381.78 561.53 C378.32 562.18 378.32 562.18 375.69 563.31 C371.24 565.09 366.48 565.67 361.78 566.53 C358.67 567.21 356.11 568.11 353.19 569.31 C350.63 570.02 348.08 570.68 345.5 571.31 C344.8 571.49 344.09 571.66 343.37 571.84 C338.57 573.01 333.77 574.05 328.91 574.92 C327.17 575.16 327.17 575.16 326.19 576.31 C324.89 576.67 323.57 576.97 322.25 577.25 C321.45 577.42 320.64 577.6 319.82 577.77 C316.27 578.5 312.72 579.18 309.16 579.85 C307.2 580.13 307.2 580.13 306.19 581.31 C304.89 581.67 303.57 581.97 302.25 582.25 C301.45 582.42 300.64 582.6 299.82 582.77 C296.27 583.5 292.72 584.18 289.16 584.85 C287.2 585.13 287.2 585.13 286.19 586.31 C284.89 586.67 283.57 586.97 282.25 587.25 C281.45 587.42 280.64 587.6 279.82 587.77 C276.27 588.5 272.72 589.18 269.16 589.85 C267.2 590.13 267.2 590.13 266.19 591.31 C264.08 591.79 261.97 592.26 259.85 592.71 C257.1 593.33 254.4 594.06 251.69 594.81 C247.64 595.94 243.6 596.9 239.5 597.78 C236.87 598.38 234.28 599.09 231.69 599.81 C227.64 600.94 223.6 601.9 219.5 602.78 C216.87 603.38 214.28 604.09 211.69 604.81 C207.64 605.94 203.6 606.9 199.5 607.78 C196.87 608.38 194.28 609.09 191.69 609.81 C187.64 610.94 183.6 611.9 179.5 612.78 C176.87 613.38 174.28 614.09 171.69 614.81 C167.64 615.94 163.6 616.9 159.5 617.78 C156.87 618.38 154.28 619.09 151.69 619.81 C147.64 620.94 143.6 621.9 139.5 622.78 C136.87 623.38 134.28 624.09 131.69 624.81 C126.15 626.35 120.59 627.67 114.95 628.74 C106.69 630.38 99.79 633.68 92.82 638.36 C91.19 639.31 91.19 639.31 89.19 639.31 C89.19 639.97 89.19 640.63 89.19 641.31 C88.53 641.31 87.87 641.31 87.19 641.31 C86.86 642.3 86.53 643.29 86.19 644.31 C85.53 644.31 84.87 644.31 84.19 644.31 C83.94 645.03 83.69 645.76 83.44 646.5 C82.19 649.31 82.19 649.31 80.25 651.69 C73.73 659.99 72.87 669.38 73 679.5 C73 680.48 73 681.47 73 682.48 C73.03 686.63 73.12 690.3 74.19 694.31 C74.36 696.69 74.51 699.06 74.62 701.44 C74.92 706.71 75.55 711.74 76.71 716.89 C77.43 720.56 77.68 724.24 77.94 727.96 C78.12 730.46 78.12 730.46 79.19 733.31 C79.46 736.18 79.63 739.04 79.81 741.91 C80.1 744.56 80.52 746.94 81.13 749.52 C82.56 755.69 83.26 761.95 84.04 768.23 C84.76 773.73 85.79 778.95 87.19 784.31 C87.42 785.93 87.61 787.56 87.75 789.19 C87.96 791.62 88.09 793.11 89.19 795.31 C89.53 797.1 89.84 798.89 90.12 800.69 C90.3 801.75 90.47 802.82 90.65 803.92 C91.01 806.18 91.37 808.44 91.73 810.7 C91.9 811.77 92.07 812.84 92.25 813.94 C92.48 815.41 92.48 815.41 92.72 816.91 C93.08 819.31 93.08 819.31 94.19 821.31 C94.34 823.11 94.34 823.11 94.5 824.94 C95.01 829.99 96.25 834.77 97.53 839.67 C98.95 845.19 100.11 850.72 101.19 856.31 C102.76 864.4 104.61 872.37 106.68 880.35 C107.57 883.79 108.44 887.24 109.31 890.69 C109.48 891.35 109.65 892.02 109.82 892.7 C110.97 897.31 111.96 901.92 112.79 906.59 C113.03 908.33 113.03 908.33 114.19 909.31 C114.54 910.64 114.84 911.97 115.12 913.31 C115.3 914.12 115.47 914.92 115.65 915.75 C116.01 917.46 116.37 919.17 116.73 920.88 C116.9 921.68 117.07 922.48 117.25 923.31 C117.48 924.43 117.48 924.43 117.72 925.56 C118.03 927.33 118.03 927.33 119.19 928.31 C119.33 929.38 119.48 930.46 119.62 931.56 C120.12 934.89 120.86 937.26 122.19 940.31 C123.35 943.47 124.18 946.28 124.62 949.62 C125.31 954.09 126.68 958.07 128.19 962.31 C130.15 967.95 131.89 973.64 133.56 979.38 C137.58 993.13 141.95 1006.75 146.52 1020.33 C147.39 1022.93 148.26 1025.52 149.12 1028.12 C149.59 1029.51 149.59 1029.51 150.06 1030.91 C151 1033.74 151.92 1036.57 152.85 1039.4 C153.46 1041.27 154.07 1043.13 154.69 1045 C154.97 1045.88 155.26 1046.76 155.55 1047.67 C157.21 1052.71 159.12 1057.53 161.33 1062.36 C162.33 1064.63 163.05 1066.91 163.69 1069.31 C164.85 1073.38 166.38 1077.08 168.16 1080.91 C169.31 1083.61 170.22 1086.33 171.12 1089.12 C174.79 1100.37 179.81 1110.81 185.19 1121.31 C185.86 1122.64 186.52 1123.98 187.19 1125.31 C187.85 1125.31 188.51 1125.31 189.19 1125.31 C191.81 1127.69 191.81 1127.69 194.19 1130.31 C194.19 1130.97 194.19 1131.63 194.19 1132.31 C194.7 1132.39 195.22 1132.48 195.75 1132.56 C199.2 1133.62 202.1 1135.48 205.19 1137.31 C211.66 1141.07 218.75 1141.65 226.06 1141.56 C226.85 1141.56 227.64 1141.55 228.45 1141.55 C235.38 1141.43 241.76 1140.64 248.25 1138.12 C253.37 1136.71 257.74 1137.23 262.59 1139.37 C268.8 1143.02 271.92 1147.53 274.19 1154.31 C275.19 1159.95 273.34 1163.87 270.96 1168.88 C266.54 1174.93 260.5 1177.31 253.44 1179.06 C252.61 1179.27 251.79 1179.48 250.94 1179.7 C242.06 1181.8 233.29 1182.34 224.19 1182.31 C223.48 1182.32 222.78 1182.32 222.06 1182.32 C202.05 1182.24 183.22 1174.44 168.19 1161.31 C167.31 1160.55 166.43 1159.8 165.53 1159.02 C157.64 1152.07 157.64 1152.07 155.19 1148.31 C155.19 1147.65 155.19 1146.99 155.19 1146.31 C154.53 1146.31 153.87 1146.31 153.19 1146.31 C145.49 1135.62 140.61 1123.81 136.35 1111.43 C135.1 1107.81 133.81 1104.28 132.19 1100.81 C129.27 1094.56 127.19 1087.97 124.93 1081.46 C121.57 1071.78 118.02 1062.22 114.13 1052.74 C113.19 1050.31 113.19 1050.31 112.25 1047 C111.49 1044.35 110.67 1041.87 109.69 1039.31 C108.3 1035.7 107.25 1032.04 106.19 1028.31 C105.7 1026.97 105.2 1025.64 104.69 1024.31 C103.3 1020.7 102.23 1017.04 101.19 1013.31 C100.69 1011.81 100.19 1010.31 99.69 1008.81 C98.4 1005.01 97.29 1001.17 96.19 997.31 C95.69 995.83 95.19 994.35 94.69 992.88 C93.51 989.39 92.57 985.92 91.72 982.34 C90.96 979.43 89.97 976.61 88.97 973.78 C88.1 971.04 87.42 968.28 86.73 965.49 C85.81 961.79 84.78 958.11 83.75 954.44 C83.53 953.65 83.31 952.86 83.09 952.05 C81.93 947.89 80.72 943.75 79.44 939.62 C78.29 935.88 77.72 932.2 77.19 928.31 C76.89 927.58 76.59 926.85 76.28 926.09 C74.94 922.69 74.1 919.23 73.25 915.69 C72.09 910.92 70.89 906.17 69.56 901.44 C68.41 897.29 67.52 893.14 66.72 888.91 C66.13 886.02 65.42 883.17 64.69 880.31 C63.55 875.85 62.59 871.4 61.72 866.88 C61.12 863.97 60.38 861.12 59.62 858.25 C58.52 853.92 57.83 849.77 57.43 845.32 C57.05 842.21 56.1 839.31 55.19 836.31 C53.88 831.24 52.92 826.59 53.19 821.31 C36.94 816.85 36.94 816.85 20.62 812.69 C15.86 811.51 11.26 810.21 6.75 808.25 C3.59 807.1 0.51 806.78 -2.81 806.31 C-4.82 805.66 -6.82 804.99 -8.81 804.31 C-11.81 803.54 -14.81 802.81 -17.81 802.09 C-19.74 801.59 -21.66 801.03 -23.55 800.39 C-28.01 798.92 -32.53 797.72 -37.06 796.5 C-39.04 795.96 -41.02 795.43 -43 794.89 C-43.98 794.62 -44.96 794.36 -45.98 794.08 C-50.01 792.99 -54.04 791.87 -58.06 790.75 C-59.14 790.45 -59.14 790.45 -60.24 790.14 C-64.03 789.09 -67.82 788.03 -71.61 786.96 C-72.41 786.74 -73.21 786.51 -74.03 786.28 C-75.53 785.86 -77.04 785.44 -78.54 785.01 C-82.19 783.99 -85.85 783.07 -89.56 782.26 C-92.56 781.61 -95.43 780.87 -98.31 779.81 C-101.3 778.78 -104.22 777.96 -107.31 777.31 C-110.4 776.67 -113.33 775.85 -116.31 774.81 C-120.06 773.51 -123.8 772.6 -127.68 771.78 C-131.57 770.93 -135.38 769.92 -139.05 768.37 C-142.39 767.09 -145.78 766.26 -149.25 765.44 C-155.5 763.91 -161.69 762.24 -167.87 760.44 C-172.75 759.03 -177.66 757.71 -182.56 756.38 C-190.2 754.3 -197.83 752.2 -205.45 750.07 C-208.99 749.09 -212.53 748.12 -216.09 747.18 C-216.77 747 -217.45 746.83 -218.15 746.64 C-219.99 746.16 -221.83 745.68 -223.68 745.21 C-226.49 744.4 -229.1 743.4 -231.81 742.31 C-232.88 742.17 -233.96 742.02 -235.06 741.88 C-238.78 741.32 -241.95 740.31 -245.48 739.07 C-248.54 738.08 -251.63 737.43 -254.77 736.77 C-257.52 736.15 -260.14 735.2 -262.81 734.31 C-264.75 733.85 -266.69 733.39 -268.62 732.94 C-273.22 731.81 -277.34 730.38 -281.6 728.34 C-283.99 727.23 -286.41 726.31 -288.88 725.38 C-293.46 723.56 -297.98 721.46 -301.81 718.31 C-301.81 717.65 -301.81 716.99 -301.81 716.31 C-302.8 716.31 -303.79 716.31 -304.81 716.31 C-304.81 715.65 -304.81 714.99 -304.81 714.31 C-306.13 713.98 -307.45 713.65 -308.81 713.31 C-308.81 712.65 -308.81 711.99 -308.81 711.31 C-309.41 711.04 -310 710.77 -310.61 710.5 C-318.18 706.43 -323.04 698.17 -327.81 691.31 C-328.56 690.3 -329.3 689.29 -330.06 688.25 C-332.52 684.13 -334.11 679.79 -335.81 675.31 C-336.83 672.85 -337.85 670.39 -338.88 667.93 C-341.57 660.36 -342.16 653.46 -342.29 645.5 C-342.36 643.43 -342.58 641.37 -342.81 639.31 C-345.98 637.2 -348.4 636.48 -352.06 635.5 C-363.21 632.4 -374.12 628.76 -384.81 624.31 C-385.78 623.93 -386.74 623.55 -387.74 623.16 C-394.54 620.45 -400.65 617.26 -406.81 613.31 C-407.78 612.71 -408.74 612.1 -409.74 611.48 C-419.15 605.56 -419.15 605.56 -421.81 603.31 C-421.81 602.65 -421.81 601.99 -421.81 601.31 C-422.39 601.04 -422.97 600.78 -423.56 600.5 C-425.87 599.28 -427.83 598.01 -429.81 596.31 C-429.81 595.65 -429.81 594.99 -429.81 594.31 C-430.45 594.04 -431.09 593.78 -431.75 593.5 C-433.81 592.31 -433.81 592.31 -434.81 589.31 C-435.47 589.31 -436.13 589.31 -436.81 589.31 C-441.81 583.84 -441.81 583.84 -441.81 581.31 C-442.47 581.31 -443.13 581.31 -443.81 581.31 C-445.31 579.43 -446.66 577.56 -448 575.56 C-448.4 574.97 -448.8 574.39 -449.21 573.78 C-457.58 561.32 -463.9 548.48 -468.81 534.31 C-469.1 533.53 -469.39 532.75 -469.69 531.94 C-471.36 527.29 -472.24 522.99 -472.6 518.06 C-472.63 516.29 -472.63 516.29 -473.81 515.31 C-473.91 513.88 -473.94 512.44 -473.94 511.01 C-473.95 510.09 -473.95 509.18 -473.95 508.24 C-473.95 507.24 -473.95 506.25 -473.95 505.22 C-473.95 504.21 -473.95 503.19 -473.95 502.15 C-473.95 500 -473.95 497.84 -473.94 495.69 C-473.94 492.39 -473.94 489.09 -473.95 485.79 C-473.95 483.71 -473.95 481.62 -473.95 479.54 C-473.95 478.54 -473.95 477.55 -473.95 476.53 C-473.95 475.61 -473.95 474.69 -473.94 473.75 C-473.94 472.94 -473.94 472.13 -473.94 471.29 C-473.81 469.31 -473.81 469.31 -472.81 467.31 C-472.71 466.08 -472.61 464.84 -472.5 463.56 C-471.96 458.19 -470.4 453.24 -468.86 448.09 C-467.45 443 -466.47 437.88 -465.52 432.69 C-464.84 429.45 -463.88 426.44 -462.81 423.31 C-462.45 421.72 -462.11 420.11 -461.81 418.5 C-461.15 415.08 -460.48 411.66 -459.75 408.25 C-459.59 407.52 -459.44 406.78 -459.28 406.03 C-458.81 404.31 -458.81 404.31 -457.81 403.31 C-457.15 400.23 -456.57 397.14 -456.01 394.04 C-455.29 390.23 -454.26 386.88 -452.81 383.31 C-452.27 380.99 -451.78 378.65 -451.31 376.31 C-450.47 372.07 -449.43 368.31 -447.81 364.31 C-447.18 361.93 -446.58 359.53 -446 357.12 C-441.67 339.37 -436.79 321.59 -430.81 304.31 C-429.4 300.14 -428 295.99 -426.81 291.75 C-422.78 277.87 -422.78 277.87 -417.02 274.16 C-412.22 271.56 -407.4 269.57 -401.84 270.72 C-395.45 272.78 -390.78 276.59 -386.88 282 C-384.17 290.43 -385.92 298.2 -388.81 306.31 C-389.31 307.83 -389.81 309.35 -390.31 310.88 C-391.05 313.07 -391.8 315.27 -392.56 317.45 C-394.39 322.74 -395.79 328.07 -397.07 333.52 C-397.81 336.31 -397.81 336.31 -398.78 338.69 C-400.11 342.07 -400.92 345.54 -401.75 349.06 C-403.01 354.25 -404.4 359.29 -406.17 364.33 C-407.06 367.07 -407.62 369.84 -408.21 372.65 C-408.99 376.12 -409.9 379.56 -410.81 383 C-411.14 384.24 -411.47 385.48 -411.81 386.76 C-412.45 389.04 -413.15 391.31 -413.91 393.55 C-414.97 396.79 -415.34 399.94 -415.81 403.31 C-416.64 406.5 -417.48 409.54 -418.79 412.56 C-420.04 415.92 -420.66 419.23 -421.31 422.75 C-422.18 427.44 -423.3 431.79 -424.81 436.31 C-425.35 438.81 -425.84 441.31 -426.31 443.81 C-427.6 450.72 -427.6 450.72 -428.78 454.06 C-430.32 458.91 -431.05 463.86 -431.88 468.88 C-432.22 470.92 -432.56 472.96 -432.91 475 C-433.06 475.9 -433.21 476.8 -433.36 477.73 C-433.67 479.48 -434 481.23 -434.36 482.98 C-438.3 503.2 -430.27 525.9 -420.48 543.17 C-419.16 545.66 -418.28 547.56 -417.81 550.31 C-417.15 550.31 -416.49 550.31 -415.81 550.31 C-414.12 552.18 -414.12 552.18 -412.25 554.62 C-411.63 555.43 -411.01 556.23 -410.37 557.05 C-408.81 559.31 -408.81 559.31 -407.81 562.31 C-407.15 562.31 -406.49 562.31 -405.81 562.31 C-404.19 563.69 -404.19 563.69 -402.81 565.31 C-402.81 565.97 -402.81 566.63 -402.81 567.31 C-402 567.68 -402 567.68 -401.16 568.06 C-398.29 569.59 -395.8 571.44 -393.19 573.38 C-389.64 576.07 -389.64 576.07 -385.81 578.31 C-385.81 578.97 -385.81 579.63 -385.81 580.31 C-385.29 580.42 -384.77 580.52 -384.23 580.63 C-381.06 581.52 -378.19 582.85 -375.19 584.19 C-370.26 586.35 -365.36 588.16 -360.17 589.6 C-357.66 590.36 -355.29 591.3 -352.88 592.31 C-347.64 594.47 -342.3 595.94 -336.81 597.31 C-336.85 596.03 -336.89 594.75 -336.93 593.43 C-336.93 588.23 -336.01 583.44 -334.88 578.38 C-333.57 572.42 -332.56 566.6 -332.03 560.52 C-331.78 557.95 -331.35 555.46 -330.81 552.94 C-330.65 552.15 -330.48 551.35 -330.31 550.54 C-329.84 548.45 -329.34 546.38 -328.81 544.31 C-329.65 544.19 -330.49 544.08 -331.36 543.95 C-341.34 542.1 -350.96 538.21 -359.81 533.31 C-359.81 532.65 -359.81 531.99 -359.81 531.31 C-360.38 531.23 -360.96 531.14 -361.55 531.05 C-364.47 530.1 -365.91 528.61 -368.06 526.44 C-368.77 525.74 -369.48 525.04 -370.2 524.32 C-371.81 522.31 -371.81 522.31 -371.81 519.31 C-372.47 519.31 -373.13 519.31 -373.81 519.31 C-374.78 517.44 -375.73 515.56 -376.69 513.69 C-377.22 512.64 -377.75 511.6 -378.3 510.52 C-381.24 504.27 -382.2 499.15 -382.19 492.31 C-382.19 491.05 -382.19 491.05 -382.18 489.77 C-382.06 483.37 -380.92 477.82 -378.89 471.73 C-377.33 466.79 -376.46 461.78 -375.52 456.69 C-374.81 453.31 -374.81 453.31 -373.82 450.34 C-372.66 446.86 -371.99 443.42 -371.31 439.81 C-370.44 435.15 -369.34 430.8 -367.81 426.31 C-367.47 423.98 -367.14 421.65 -366.81 419.31 C-365.97 416.04 -365.07 412.93 -363.75 409.81 C-362.57 406.68 -362.27 403.62 -361.81 400.31 C-360.97 397.04 -360.07 393.93 -358.75 390.81 C-357.68 388.24 -357.68 388.24 -357.38 385.06 C-356.84 381.52 -355.94 378.59 -354.77 375.23 C-353.48 371.29 -352.4 367.31 -351.31 363.31 C-348.75 353.93 -348.75 353.93 -347.25 349.69 C-345.83 345.65 -344.87 341.53 -343.88 337.38 C-342.56 331.92 -341.03 326.77 -338.74 321.62 C-337.79 319.25 -337.08 316.86 -336.4 314.4 C-334.3 306.93 -331.96 299.53 -329.67 292.11 C-328.93 289.71 -328.21 287.3 -327.49 284.89 C-324.95 276.76 -321.91 269.21 -316.81 262.31 C-316.15 262.31 -315.49 262.31 -314.81 262.31 C-314.54 261.67 -314.28 261.03 -314 260.38 C-312.81 258.31 -312.81 258.31 -309.81 257.31 C-309.81 256.65 -309.81 255.99 -309.81 255.31 C-308.82 255.31 -307.83 255.31 -306.81 255.31 C-306.81 254.65 -306.81 253.99 -306.81 253.31 C-305.11 252.35 -303.4 251.39 -301.69 250.44 C-300.74 249.9 -299.78 249.37 -298.8 248.82 C-291.9 245.34 -286 244.93 -278.38 244.94 C-277.31 244.94 -276.25 244.94 -275.15 244.94 C-266.43 245.06 -259.04 246.48 -250.81 249.31 C-249.48 249.66 -248.15 250 -246.81 250.31 C-246.71 249.63 -246.61 248.95 -246.5 248.25 C-245.83 245.39 -244.81 242.9 -243.62 240.23 C-242.81 238.3 -242.14 236.37 -241.5 234.38 C-238.3 224.55 -234.53 214.87 -230.57 205.33 C-229.82 203.34 -229.28 201.38 -228.81 199.31 C-229.4 199.28 -229.98 199.24 -230.58 199.2 C-236.5 198.72 -241.97 197.6 -247.7 196.07 C-251.91 195.04 -256.14 194.38 -260.41 193.74 C-262.81 193.31 -262.81 193.31 -264.81 192.31 C-282.74 190.8 -301.92 191.78 -318.06 200.4 C-319.72 201.26 -321.45 201.98 -323.19 202.69 C-329.99 205.74 -336.04 209.62 -341.81 214.31 C-342.47 214.31 -343.13 214.31 -343.81 214.31 C-343.81 214.97 -343.81 215.63 -343.81 216.31 C-345.42 217.86 -345.42 217.86 -347.56 219.62 C-350.73 222.3 -353.24 225.05 -355.81 228.31 C-356.47 228.31 -357.13 228.31 -357.81 228.31 C-358.12 228.93 -358.43 229.55 -358.75 230.19 C-359.44 231.56 -360.12 232.94 -360.81 234.31 C-361.47 234.31 -362.13 234.31 -362.81 234.31 C-362.81 234.97 -362.81 235.63 -362.81 236.31 C-367.04 240.53 -371.58 241.71 -377.44 241.88 C-383.59 241.61 -386.91 240.36 -391.2 235.85 C-396.04 230.38 -397.3 226.41 -397.21 219.22 C-396.58 214.6 -394.43 211.1 -391.81 207.31 C-391.15 207.31 -390.49 207.31 -389.81 207.31 C-389.48 205.99 -389.15 204.67 -388.81 203.31 C-388.15 203.31 -387.49 203.31 -386.81 203.31 C-386.59 202.76 -386.36 202.2 -386.12 201.62 C-384.44 198.65 -382.28 196.67 -379.81 194.31 C-378.97 193.47 -378.12 192.62 -377.25 191.75 C-376.45 190.95 -375.64 190.14 -374.81 189.31 C-374.09 188.55 -373.37 187.79 -372.62 187 C-370.81 185.31 -370.81 185.31 -368.81 185.31 C-368.81 184.65 -368.81 183.99 -368.81 183.31 C-366.51 181.37 -366.51 181.37 -363.5 179.19 C-362.02 178.1 -362.02 178.1 -360.51 176.99 C-357.81 175.31 -357.81 175.31 -354.81 175.31 C-354.81 174.65 -354.81 173.99 -354.81 173.31 C-347.53 168.93 -340.51 164.87 -332.41 162.18 C-328.94 161.02 -325.58 159.63 -322.2 158.24 C-308.71 152.99 -295.2 151.81 -280.88 151.92 C-278.38 151.94 -275.89 151.92 -273.39 151.9 C-257.17 151.88 -242.4 154.99 -226.81 159.31 C-221.34 160.74 -216.48 161.55 -210.81 161.31 C-210.15 159.99 -209.49 158.67 -208.81 157.31 C-208.15 157.31 -207.49 157.31 -206.81 157.31 C-206.69 156.71 -206.56 156.12 -206.44 155.5 C-205.81 153.31 -205.81 153.31 -203.81 150.31 C-203.15 150.31 -202.49 150.31 -201.81 150.31 C-201.5 149.69 -201.19 149.07 -200.88 148.44 C-200.19 147.06 -199.5 145.69 -198.81 144.31 C-199.27 142.5 -199.27 142.5 -200.06 140.38 C-206.41 120.22 -207.88 94.93 -198.77 75.38 C-197.8 73.29 -197.19 71.27 -196.56 69.06 C-194.42 62.33 -190.42 56.34 -186.81 50.31 C-186.15 50.31 -185.49 50.31 -184.81 50.31 C-184.56 49.59 -184.32 48.87 -184.06 48.12 C-182.69 45.04 -181.09 42.8 -178.81 40.31 C-178.15 40.31 -177.49 40.31 -176.81 40.31 C-176.54 39.67 -176.28 39.03 -176 38.38 C-174.81 36.31 -174.81 36.31 -171.81 35.31 C-171.81 34.65 -171.81 33.99 -171.81 33.31 C-162.21 24.08 -150.04 17.37 -137.81 12.31 C-136.98 11.96 -136.14 11.61 -135.29 11.25 C-132.94 10.36 -130.7 9.76 -128.25 9.25 C-125.09 8.59 -125.09 8.59 -121.97 7.81 C-101.1 3.04 -76.62 6.28 -57.81 16.31 C-53.69 18.37 -51.31 18.36 -46.81 17.31 C-46.81 16.65 -46.81 15.99 -46.81 15.31 C-41.11 10.63 -34.54 7.57 -27.69 5 C-27.04 4.76 -26.4 4.52 -25.74 4.27 C-17.16 1.19 -9.11 -0.05 0 0 Z M-18.81 44.31 C-18.81 44.97 -18.81 45.63 -18.81 46.31 C-19.41 46.44 -20.01 46.56 -20.62 46.69 C-23.07 47.27 -23.07 47.27 -25.81 49.31 C-25.81 49.97 -25.81 50.63 -25.81 51.31 C-26.47 51.31 -27.13 51.31 -27.81 51.31 C-29.49 53.23 -29.49 53.23 -31.19 55.62 C-34.42 60.05 -37.68 63.23 -42.81 65.31 C-45.18 65.61 -45.18 65.61 -47.69 65.62 C-48.51 65.64 -49.33 65.66 -50.18 65.68 C-55.66 64.92 -59.73 61.76 -64 58.44 C-75.14 50.21 -87.65 45.72 -101.5 45.81 C-102.46 45.82 -103.42 45.82 -104.4 45.83 C-119.83 46.21 -134.6 52.64 -145.81 63.31 C-149.43 66.79 -149.43 66.79 -150.81 71.31 C-151.47 71.31 -152.13 71.31 -152.81 71.31 C-153.43 72.45 -153.43 72.45 -154.05 73.61 C-154.59 74.61 -155.13 75.6 -155.69 76.62 C-156.22 77.61 -156.75 78.6 -157.3 79.61 C-158.81 82.31 -158.81 82.31 -160.81 85.31 C-163.64 93.28 -164.1 101.13 -164.12 109.5 C-164.13 110.43 -164.14 111.37 -164.14 112.33 C-164.38 117.35 -164.38 117.35 -161.81 121.31 C-161.13 121.12 -160.46 120.93 -159.76 120.73 C-158.36 120.34 -158.36 120.34 -156.94 119.94 C-156.03 119.68 -155.13 119.43 -154.2 119.16 C-145.89 117.07 -138.15 115.95 -129.56 116 C-128.56 116 -127.56 116 -126.53 116.01 C-106.85 116.27 -106.85 116.27 -102.81 120.31 C-101.76 120.46 -100.71 120.6 -99.62 120.75 C-96.06 121.28 -93.22 122.17 -89.81 123.31 C-85.27 124.6 -80.7 125.8 -76.13 127.01 C-71.77 128.19 -67.45 129.4 -63.18 130.88 C-59.5 132.14 -55.83 133.03 -52.02 133.83 C-48.43 134.61 -44.91 135.62 -41.38 136.62 C-39.79 137.07 -38.21 137.51 -36.63 137.96 C-35.83 138.18 -35.03 138.41 -34.21 138.64 C-30.41 139.71 -26.61 140.76 -22.81 141.81 C-21.31 142.23 -19.81 142.65 -18.31 143.06 C-17.57 143.27 -16.83 143.47 -16.06 143.69 C-9.31 145.56 -9.31 145.56 -7.06 146.19 C-5.57 146.6 -4.08 147.02 -2.58 147.43 C1.28 148.5 5.14 149.58 9 150.67 C10.2 151 10.2 151 11.41 151.34 C12.91 151.76 14.41 152.19 15.91 152.61 C20.31 153.85 24.73 154.91 29.2 155.86 C32.81 156.68 36.23 157.89 39.62 159.38 C42.78 160.53 45.86 160.85 49.19 161.31 C51.19 161.97 53.19 162.63 55.19 163.31 C57.16 163.83 59.14 164.32 61.12 164.81 C72.57 167.63 72.57 167.63 76.43 169.26 C79.7 170.51 82.97 171.31 86.38 172.12 C94.6 174.13 102.75 176.38 110.91 178.67 C114.66 179.73 118.43 180.77 122.19 181.81 C126.72 183.07 131.26 184.33 135.79 185.6 C137.32 186.02 138.85 186.45 140.38 186.88 C141.12 187.08 141.86 187.29 142.62 187.5 C146.23 188.51 149.85 189.49 153.48 190.45 C154.16 190.62 154.83 190.8 155.53 190.99 C157.37 191.47 159.21 191.94 161.05 192.42 C164.19 193.31 164.19 193.31 166.89 194.39 C169.93 195.61 172.95 195.86 176.19 196.31 C179.09 197.18 181.84 198.16 184.62 199.38 C187.78 200.53 190.86 200.85 194.19 201.31 C196.19 201.97 198.19 202.63 200.19 203.31 C202.16 203.83 204.14 204.32 206.12 204.81 C217.57 207.63 217.57 207.63 221.43 209.26 C224.7 210.51 227.97 211.31 231.38 212.12 C238.83 213.94 246.21 215.95 253.59 218.03 C256.69 218.9 259.79 219.74 262.91 220.57 C276.4 224.15 288.07 228.95 299.94 236.32 C302.33 237.79 304.65 239.13 307.19 240.31 C307.19 240.97 307.19 241.63 307.19 242.31 C310.67 245.95 310.67 245.95 315.19 247.31 C326.77 232.25 328.01 213.66 325.69 195.4 C324.23 188.49 321.69 182.44 318.19 176.31 C317.53 176.31 316.87 176.31 316.19 176.31 C315.94 175.59 315.69 174.87 315.44 174.12 C314.06 171.04 312.46 168.8 310.19 166.31 C309.53 166.31 308.87 166.31 308.19 166.31 C308.19 165.65 308.19 164.99 308.19 164.31 C294.81 151.42 278.58 147.45 260.55 146.79 C252.62 146.42 246.92 144.91 241.19 139.31 C239.22 136.24 238.65 133.02 237.95 129.47 C236.27 121.11 233.97 113.86 228.19 107.31 C227.2 106.98 226.21 106.65 225.19 106.31 C225.19 105.65 225.19 104.99 225.19 104.31 C215.02 96.22 205.18 94.59 192.25 95.5 C187.87 96.12 184.92 97.99 181.19 100.31 C175.23 102.85 169.41 103.42 163.38 101 C160.69 99.58 159.17 98.51 157.19 96.31 C156.53 96.31 155.87 96.31 155.19 96.31 C154.95 95.74 154.72 95.18 154.47 94.59 C150.59 87.71 143 82.78 136.1 79.29 C134.19 78.31 134.19 78.31 131.19 76.31 C112.79 70.69 94.59 70.49 77.19 79.31 C74.8 80.79 72.5 82.35 70.2 83.95 C64.43 87.85 59.03 89.36 52.19 88.31 C47.54 86.84 43.27 84.4 40.27 80.47 C38.46 76.85 37.64 72.93 36.71 69.01 C35.37 63.51 33.29 59.01 30.19 54.31 C29.53 54.31 28.87 54.31 28.19 54.31 C27.93 53.72 27.68 53.12 27.42 52.5 C24.2 46.77 17.18 43.38 11.19 41.31 C1.11 39.3 -9.41 39.92 -18.81 44.31 Z M-136.18 155.36 C-146.36 155.93 -155.6 160.47 -163.81 166.31 C-163.81 166.97 -163.81 167.63 -163.81 168.31 C-164.39 168.56 -164.97 168.81 -165.57 169.06 C-175.51 174.59 -179.82 186.52 -183.71 196.55 C-185.02 199.83 -186.41 203.07 -187.81 206.31 C-189.86 211.07 -191.86 215.83 -193.76 220.65 C-194.55 222.66 -195.36 224.66 -196.18 226.66 C-199.24 234.17 -202.05 241.73 -204.7 249.39 C-206.22 253.75 -207.92 257.95 -209.88 262.14 C-211.47 265.85 -212.64 269.7 -213.88 273.54 C-214.81 276.31 -214.81 276.31 -216.31 279.75 C-217.69 283.02 -218.73 286.23 -219.75 289.62 C-220.94 293.61 -222.22 297.47 -223.81 301.31 C-225.85 306.21 -227.36 311.22 -228.88 316.29 C-229.61 318.66 -230.4 320.95 -231.31 323.25 C-232.71 326.83 -233.72 330.48 -234.75 334.19 C-235.92 338.39 -237.18 342.42 -238.88 346.44 C-240.77 350.95 -241.91 355.48 -243.03 360.23 C-244.55 366.21 -246.64 372.01 -248.7 377.82 C-249.87 381.2 -250.8 384.25 -251.31 387.81 C-251.71 390.6 -252.21 392.7 -253.12 395.31 C-255.41 401.87 -257.07 408.6 -258.81 415.31 C-259.47 417.83 -260.12 420.34 -260.78 422.85 C-261.21 424.5 -261.64 426.14 -262.06 427.79 C-262.93 431.12 -263.84 434.39 -264.93 437.66 C-265.99 440.85 -266.35 443.98 -266.81 447.31 C-267.68 450.62 -268.64 453.84 -269.79 457.06 C-270.91 460.62 -271.63 464.14 -272.31 467.81 C-272.98 471.4 -273.65 474.83 -274.81 478.29 C-276 481.89 -276.67 485.52 -277.31 489.25 C-277.99 493.16 -278.71 496.96 -279.81 500.79 C-280.94 504.77 -281.65 508.73 -282.31 512.81 C-282.97 516.87 -283.66 520.8 -284.81 524.75 C-286.02 529.05 -286.67 533.33 -287.31 537.75 C-287.99 542.42 -288.69 547.03 -289.88 551.61 C-290.62 554.56 -291.1 557.17 -291.31 560.19 C-291.88 566.68 -293.16 572.96 -294.88 579.25 C-295.91 583.27 -296.21 587.26 -296.54 591.39 C-297.17 598.1 -298.46 604.72 -299.88 611.31 C-300.87 616.1 -301.25 620.87 -301.57 625.75 C-301.81 628.31 -301.81 628.31 -302.81 631.31 C-303.57 647.96 -301.4 661.7 -290.81 675.31 C-290.15 675.31 -289.49 675.31 -288.81 675.31 C-288.32 676.8 -288.32 676.8 -287.81 678.31 C-287.15 678.31 -286.49 678.31 -285.81 678.31 C-285.81 678.97 -285.81 679.63 -285.81 680.31 C-285.15 680.31 -284.49 680.31 -283.81 680.31 C-283.81 680.97 -283.81 681.63 -283.81 682.31 C-274.73 689.78 -263.93 693.13 -252.69 696 C-251.57 696.29 -250.46 696.59 -249.31 696.89 C-243.79 698.34 -238.27 699.7 -232.69 700.89 C-228.9 701.74 -225.18 702.73 -221.59 704.25 C-218.15 705.56 -214.64 706.4 -211.06 707.25 C-205.88 708.5 -200.84 709.89 -195.82 711.66 C-192.94 712.59 -190.02 713.17 -187.06 713.78 C-184.08 714.49 -181.22 715.48 -178.34 716.53 C-175.32 717.46 -172.27 718.11 -169.18 718.78 C-165.54 719.6 -161.96 720.61 -158.38 721.62 C-156.79 722.07 -155.21 722.51 -153.63 722.96 C-152.83 723.18 -152.03 723.41 -151.21 723.64 C-147.41 724.71 -143.61 725.76 -139.81 726.81 C-138.31 727.23 -136.81 727.65 -135.31 728.06 C-134.57 728.27 -133.83 728.48 -133.06 728.69 C-126.31 730.56 -126.31 730.56 -124.06 731.19 C-122.57 731.6 -121.08 732.02 -119.58 732.43 C-115.72 733.5 -111.86 734.58 -108 735.67 C-107.2 735.89 -106.41 736.11 -105.59 736.34 C-104.09 736.76 -102.59 737.19 -101.09 737.61 C-96.7 738.84 -92.3 739.91 -87.85 740.86 C-84 741.72 -80.23 742.71 -76.59 744.25 C-73.15 745.56 -69.64 746.4 -66.06 747.25 C-60.94 748.49 -55.94 749.85 -50.97 751.61 C-48.85 752.3 -46.77 752.8 -44.59 753.25 C-40.13 754.22 -35.76 755.38 -31.38 756.62 C-29.79 757.07 -28.21 757.51 -26.63 757.96 C-25.43 758.29 -25.43 758.29 -24.21 758.64 C-20.41 759.71 -16.61 760.76 -12.81 761.81 C-8.28 763.07 -3.74 764.33 0.79 765.6 C2.32 766.02 3.85 766.45 5.38 766.88 C6.12 767.08 6.86 767.29 7.62 767.5 C11.23 768.51 14.85 769.49 18.48 770.45 C19.16 770.62 19.83 770.8 20.53 770.99 C22.37 771.47 24.21 771.94 26.05 772.42 C28.86 773.22 31.48 774.23 34.19 775.31 C36.52 775.68 38.85 776.01 41.19 776.31 C42.52 776.63 43.86 776.96 45.19 777.31 C43.96 765.3 43.96 765.3 41.69 753.46 C39.83 745.53 39.01 737.57 38.46 729.46 C38.13 725.64 37.44 721.96 36.73 718.2 C32.95 697.98 29.34 672.1 36.66 652.4 C37.31 649.84 37.2 648.75 36.19 646.31 C34.85 644.56 33.45 642.85 32 641.19 C25.6 633.54 20.94 625.53 17.19 616.31 C16.92 615.7 16.66 615.09 16.38 614.46 C11.81 603.35 10.7 591.72 10.81 579.81 C10.8 578.61 10.79 577.41 10.78 576.17 C10.81 565.1 12.31 554.34 17.23 544.32 C18.17 542.35 18.87 540.39 19.56 538.31 C21.33 533.47 24.25 529.5 27.19 525.31 C27.8 524.36 28.4 523.41 29.03 522.43 C31.38 519.04 33.95 516.08 36.75 513.06 C37.23 512.53 37.71 512.01 38.21 511.46 C40.43 509.06 42.45 507.14 45.19 505.31 C45.19 504.65 45.19 503.99 45.19 503.31 C45.7 503.09 46.22 502.86 46.75 502.62 C49.39 501.27 49.39 501.27 52.38 499 C64.52 490.24 79.59 484.09 94.58 482.93 C95.34 482.87 96.1 482.81 96.89 482.74 C98.39 482.62 99.9 482.54 101.4 482.49 C103.8 482.37 103.8 482.37 107.19 481.31 C108.93 478.87 110.01 476.98 111.19 474.31 C113.05 471.17 114.92 468.03 116.8 464.89 C118.35 462.51 118.35 462.51 118.19 460.31 C118.85 460.31 119.51 460.31 120.19 460.31 C121.75 458.73 121.75 458.73 123.38 456.69 C128.62 450.54 134.05 446.1 141.19 442.31 C141.19 441.65 141.19 440.99 141.19 440.31 C141.89 440.21 142.59 440.11 143.31 440 C146.27 439.41 146.27 439.41 149.06 437.88 C152.39 436.21 155.59 435.25 159.19 434.31 C159.79 434.13 160.38 433.95 161 433.77 C166.28 432.66 171.88 433.08 177.25 433.06 C179.16 433.03 179.16 433.03 181.11 433 C191.3 432.96 199.96 434.41 209.12 439 C212.68 440.77 214.09 441.31 218.19 441.31 C219.92 439.81 219.92 439.81 221.44 437.75 C225.29 433.07 229.69 428.06 235.19 425.31 C235.19 424.65 235.19 423.99 235.19 423.31 C241.85 419.98 248.52 416.65 255.19 413.31 C255.86 412.96 256.54 412.61 257.23 412.25 C260.11 410.87 263.11 410.12 266.19 409.31 C267.11 409.06 268.04 408.81 268.99 408.55 C273.79 407.3 278.43 406.19 283.38 405.75 C284.63 405.61 285.89 405.46 287.19 405.31 C288.39 402.9 288.47 401 288.69 398.31 C289.08 393.53 289.08 393.53 290.19 391.31 C290.55 388.98 290.88 386.65 291.19 384.31 C292.08 377.53 292.08 377.53 293.19 375.31 C293.37 373.69 293.51 372.06 293.62 370.44 C294.27 362.79 295.45 355.27 297.25 347.81 C298.33 343.22 298.64 338.62 298.94 333.91 C299.19 331.31 299.19 331.31 300.19 328.31 C300.53 325.28 300.65 322.23 300.81 319.19 C300.86 318.37 300.92 317.55 300.97 316.71 C301.72 302.81 298.11 290.83 290.19 279.31 C289.53 279.31 288.87 279.31 288.19 279.31 C287.93 278.72 287.66 278.13 287.39 277.52 C282.52 268.6 270.69 263 261.43 260.16 C258.08 259.3 254.7 258.55 251.32 257.81 C247.62 256.95 243.97 255.91 240.31 254.88 C239.56 254.66 238.81 254.45 238.04 254.24 C236.52 253.81 234.99 253.38 233.47 252.95 C229.71 251.9 225.95 250.86 222.19 249.81 C220.69 249.4 219.19 248.98 217.69 248.56 C216.95 248.36 216.2 248.15 215.44 247.94 C208.69 246.06 208.69 246.06 206.44 245.44 C204.94 245.02 203.45 244.61 201.96 244.19 C198.09 243.12 194.23 242.04 190.37 240.96 C189.58 240.73 188.78 240.51 187.96 240.28 C186.46 239.86 184.96 239.44 183.46 239.01 C179.06 237.78 174.65 236.72 170.18 235.77 C166.67 234.97 163.33 233.81 160.03 232.37 C156.4 231.02 152.72 230.21 148.94 229.38 C143.56 228.15 138.35 226.82 133.16 224.96 C130.3 224.02 127.38 223.46 124.44 222.84 C121.45 222.14 118.6 221.15 115.72 220.09 C112.71 219.16 109.67 218.52 106.6 217.86 C102.76 216.99 98.98 215.94 95.19 214.88 C94.4 214.66 93.61 214.44 92.8 214.21 C88.24 212.93 83.75 211.54 79.28 209.98 C77.19 209.31 75.13 208.83 72.98 208.38 C68.46 207.4 64.01 206.2 59.56 204.94 C52.5 202.95 45.43 201.04 38.32 199.21 C35.19 198.31 35.19 198.31 32.48 197.23 C29.44 196.02 26.42 195.77 23.19 195.31 C21.18 194.66 19.18 193.99 17.19 193.31 C15.19 192.8 13.19 192.3 11.19 191.81 C7.11 190.81 3.17 189.64 -0.81 188.31 C-3.84 187.53 -6.87 186.78 -9.91 186.04 C-18.31 183.94 -18.31 183.94 -22.05 182.37 C-25.33 181.12 -28.59 180.32 -32 179.5 C-40.23 177.49 -48.38 175.25 -56.53 172.95 C-61.03 171.69 -65.54 170.44 -70.04 169.19 C-73.91 168.12 -77.77 167.04 -81.63 165.96 C-82.82 165.62 -82.82 165.62 -84.04 165.28 C-85.54 164.86 -87.04 164.44 -88.54 164.01 C-92.94 162.78 -97.35 161.72 -101.82 160.77 C-105.39 159.95 -108.76 158.81 -112.06 157.25 C-119.72 154.64 -128.19 155.19 -136.18 155.36 Z M-285.81 287.31 C-287.35 289.98 -287.35 289.98 -288.38 293.12 C-289 294.87 -289 294.87 -289.63 296.66 C-291.13 301.28 -292.48 305.93 -293.78 310.62 C-294.91 314.67 -296.12 318.68 -297.38 322.69 C-297.59 323.38 -297.8 324.06 -298.03 324.77 C-299.04 328 -300.1 331.18 -301.38 334.31 C-303.15 338.81 -304.18 343.54 -305.28 348.24 C-306.31 352.58 -307.59 356.78 -309.04 361.01 C-310.34 364.89 -311.51 368.82 -312.69 372.75 C-312.95 373.61 -313.2 374.48 -313.47 375.37 C-317.29 388.21 -320.83 401.07 -323.84 414.12 C-324.84 418.44 -325.88 422.75 -326.94 427.06 C-327.41 428.97 -327.41 428.97 -327.88 430.92 C-328.81 434.31 -328.81 434.31 -329.84 436.8 C-331.1 440.06 -331.68 443.31 -332.31 446.75 C-333.18 451.44 -334.29 455.8 -335.81 460.31 C-336.07 462.31 -336.32 464.3 -336.54 466.3 C-337.09 470.36 -338.37 474.2 -339.88 478 C-341.8 484.82 -342.93 491.77 -339.81 498.31 C-339.15 498.31 -338.49 498.31 -337.81 498.31 C-337.81 498.97 -337.81 499.63 -337.81 500.31 C-335.57 501.18 -333.32 502.03 -331.06 502.88 C-330.43 503.12 -329.79 503.37 -329.14 503.62 C-325.7 504.89 -323.29 505.78 -319.81 504.31 C-319.68 503.54 -319.55 502.77 -319.41 501.98 C-319.23 500.97 -319.06 499.97 -318.88 498.94 C-318.61 497.44 -318.61 497.44 -318.35 495.91 C-317.81 493.31 -317.81 493.31 -316.81 491.31 C-316.71 490.08 -316.61 488.84 -316.5 487.56 C-315.96 482.19 -314.4 477.24 -312.86 472.09 C-311.45 467 -310.47 461.88 -309.52 456.69 C-308.84 453.44 -307.87 450.45 -306.81 447.31 C-306.28 444.99 -305.78 442.65 -305.31 440.31 C-304.62 436.9 -303.92 433.62 -302.81 430.32 C-301.32 425.85 -300.52 421.27 -299.59 416.65 C-298.81 413.31 -298.81 413.31 -297.84 410.89 C-296.44 407.37 -295.69 403.76 -294.88 400.06 C-293.69 394.84 -292.4 389.79 -290.59 384.75 C-289.49 381.31 -288.66 377.82 -287.81 374.31 C-286.62 369.41 -285.34 364.61 -283.66 359.85 C-282.2 355.48 -280.96 351.04 -279.7 346.6 C-278.71 343.18 -277.66 339.83 -276.38 336.51 C-274.02 330.37 -272.28 324.02 -270.42 317.71 C-268.83 312.4 -267.09 307.36 -264.81 302.31 C-262.02 295.5 -262.02 295.5 -261.81 288.31 C-268.7 283.72 -278.97 282.25 -285.81 287.31 Z M358.19 425.31 C357.05 425.7 355.92 426.1 354.75 426.5 C347.14 430.37 342.16 436.28 337.14 443.08 C333.13 447.66 328.88 449.1 323 449.56 C319.12 449.31 316.32 448.41 312.71 447.11 C296.53 441.97 280.27 443.9 265.19 451.31 C262.35 452.85 259.83 454.43 257.19 456.31 C257.19 456.97 257.19 457.63 257.19 458.31 C256.61 458.56 256.03 458.81 255.44 459.06 C252.86 460.5 251.13 462.1 249.19 464.31 C249.19 464.97 249.19 465.63 249.19 466.31 C248.53 466.31 247.87 466.31 247.19 466.31 C245.76 468.25 245.76 468.25 244.38 470.75 C243.84 471.66 243.31 472.57 242.77 473.5 C241.77 475.27 240.8 477.05 239.86 478.84 C236.81 484.63 234.28 488.01 228.06 490.62 C221.13 491.85 214.63 491.15 208.19 488.31 C208.19 487.65 208.19 486.99 208.19 486.31 C205.85 483.65 205.85 483.65 203.19 481.31 C202.53 481.31 201.87 481.31 201.19 481.31 C201.19 480.65 201.19 479.99 201.19 479.31 C191.79 471.74 181.98 470.19 170.19 471.31 C160.41 473.73 152.59 480.84 147.38 489.2 C146.99 489.9 146.59 490.59 146.19 491.31 C145.81 491.98 145.44 492.64 145.05 493.32 C144.11 495.5 143.92 497.14 143.81 499.5 C143.14 506.71 140.15 513.03 135.19 518.31 C129.32 522.22 121.5 521.35 114.63 521.27 C113.64 521.25 112.64 521.24 111.61 521.23 C109.62 521.2 107.63 521.16 105.64 521.1 C90.62 520.86 78.14 527.36 67.19 537.31 C58.8 545.58 54.18 554 51.19 565.31 C50.84 566.42 50.49 567.53 50.12 568.67 C46.37 583.27 50.69 597.27 57.19 610.31 C57.85 610.31 58.51 610.31 59.19 610.31 C59.19 610.97 59.19 611.63 59.19 612.31 C63.06 611.74 65.34 609.92 68.19 607.31 C68.19 606.65 68.19 605.99 68.19 605.31 C69.18 605.31 70.17 605.31 71.19 605.31 C71.19 604.65 71.19 603.99 71.19 603.31 C72.15 602.97 72.15 602.97 73.12 602.62 C75.64 601.55 77.74 600.4 80.06 599 C90.06 593.4 101.33 590.86 112.46 588.57 C116.13 588.09 116.13 588.09 119.19 586.31 C120.49 585.96 121.81 585.66 123.12 585.38 C123.93 585.2 124.73 585.03 125.56 584.85 C129.11 584.12 132.66 583.44 136.22 582.78 C138.18 582.5 138.18 582.5 139.19 581.31 C140.49 580.96 141.81 580.66 143.12 580.38 C143.93 580.2 144.73 580.03 145.56 579.85 C149.11 579.12 152.66 578.44 156.22 577.78 C158.18 577.5 158.18 577.5 159.19 576.31 C161.3 575.84 163.41 575.36 165.52 574.91 C168.27 574.29 170.97 573.57 173.69 572.81 C177.73 571.69 181.77 570.72 185.88 569.84 C188.5 569.24 191.09 568.53 193.69 567.81 C197.73 566.69 201.77 565.72 205.88 564.84 C208.5 564.24 211.09 563.53 213.69 562.81 C217.73 561.69 221.77 560.72 225.88 559.84 C228.5 559.24 231.09 558.53 233.69 557.81 C237.73 556.69 241.77 555.72 245.88 554.84 C248.5 554.24 251.09 553.53 253.69 552.81 C257.73 551.69 261.77 550.72 265.88 549.84 C268.5 549.24 271.09 548.53 273.69 547.81 C277.73 546.69 281.77 545.72 285.88 544.84 C288.5 544.24 291.09 543.53 293.69 542.81 C297.73 541.69 301.77 540.72 305.88 539.84 C308.5 539.24 311.09 538.53 313.69 537.81 C317.73 536.69 321.77 535.72 325.87 534.85 C328.54 534.23 331.17 533.49 333.81 532.75 C337.93 531.6 341.95 530.91 346.19 530.31 C346.92 530 347.66 529.7 348.41 529.38 C352.99 527.62 357.79 526.98 362.59 526.09 C365.71 525.42 368.26 524.51 371.19 523.31 C373.75 522.61 376.3 521.94 378.88 521.31 C379.58 521.14 380.28 520.96 381.01 520.78 C385.8 519.61 390.61 518.58 395.46 517.71 C397.21 517.47 397.21 517.47 398.19 516.31 C399.49 515.96 400.81 515.66 402.12 515.38 C402.93 515.2 403.73 515.03 404.56 514.85 C408.11 514.12 411.66 513.44 415.22 512.78 C417.18 512.5 417.18 512.5 418.19 511.31 C420.3 510.84 422.41 510.36 424.52 509.91 C427.27 509.29 429.97 508.57 432.69 507.81 C436.74 506.69 440.79 505.72 444.91 504.84 C447.36 504.27 449.77 503.58 452.19 502.88 C473.08 497.17 492.17 496.87 513.06 502.62 C514.09 502.85 515.12 503.08 516.19 503.31 C518.86 500.64 518.47 498.57 518.52 494.94 C518.51 494.09 518.51 493.25 518.5 492.38 C518.5 491.51 518.49 490.65 518.49 489.76 C518.22 475.26 512.53 462.39 503.19 451.31 C498.03 446.43 492.4 442.59 486.1 439.32 C484.19 438.31 484.19 438.31 481.19 436.31 C467.31 432.08 448.5 430.37 435.23 437.34 C433.18 438.53 431.15 439.76 429.12 441 C422.2 445.22 416.41 447.07 408.19 445.31 C405.73 444.21 404.25 443.09 402.19 441.31 C401.53 441.31 400.87 441.31 400.19 441.31 C399.79 440.45 399.79 440.45 399.38 439.56 C398.16 437.26 396.88 435.29 395.19 433.31 C394.53 433.31 393.87 433.31 393.19 433.31 C393.19 432.65 393.19 431.99 393.19 431.31 C382.93 423.37 370.47 420.99 358.19 425.31 Z M596.19 578.31 C593.37 578.85 590.53 579.26 587.69 579.69 C580.45 580.83 573.5 582.43 566.45 584.4 C561.5 585.78 556.51 586.86 551.46 587.84 C550.54 588.02 549.63 588.19 548.69 588.38 C547.85 588.53 547.02 588.69 546.16 588.85 C544.2 589.13 544.2 589.13 543.19 590.31 C541.86 590.65 540.52 590.95 539.18 591.23 C518.88 594.96 518.88 594.96 501.19 604.31 C501.19 604.97 501.19 605.63 501.19 606.31 C500.53 606.31 499.87 606.31 499.19 606.31 C494.25 612.82 493.42 618.7 493.7 626.78 C494.71 634.07 498.81 638.5 504.19 643.31 C510.31 647.39 516.02 647.86 523.19 647.31 C526.65 646.59 529.96 645.55 533.31 644.44 C535 643.9 536.69 643.36 538.38 642.82 C539.61 642.43 539.61 642.43 540.86 642.03 C543.57 641.2 546.29 640.49 549.04 639.83 C551.58 639.22 554.12 638.56 556.66 637.91 C567.01 635.27 577.31 632.74 587.85 630.95 C591.37 630.28 594.75 629.33 598.19 628.31 C607.65 625.75 617.44 625.54 627.19 625.31 C628.16 625.29 629.14 625.26 630.14 625.23 C639.38 625.55 648.89 630.8 655.19 637.31 C655.85 637.31 656.51 637.31 657.19 637.31 C657.43 637.87 657.68 638.43 657.94 639 C659.12 641.39 659.12 641.39 661 643.44 C665.59 649.47 668.23 656.03 670.19 663.31 C670.58 664.75 670.98 666.18 671.37 667.62 C671.68 668.73 671.68 668.73 671.99 669.87 C673.7 676.12 675.44 682.32 677.57 688.45 C678.42 691.02 679.03 693.65 679.66 696.29 C680.23 698.48 680.94 700.6 681.69 702.75 C683.21 707.21 684.24 711.7 685.19 716.31 C685.54 717.98 685.89 719.65 686.25 721.31 C686.48 722.43 686.48 722.43 686.72 723.56 C687.03 725.33 687.03 725.33 688.19 726.31 C688.54 727.64 688.84 728.97 689.12 730.31 C689.3 731.12 689.47 731.92 689.65 732.75 C690.01 734.46 690.37 736.17 690.73 737.88 C690.9 738.68 691.07 739.48 691.25 740.31 C691.48 741.43 691.48 741.43 691.72 742.56 C692.03 744.33 692.03 744.33 693.19 745.31 C693.66 747.42 694.14 749.54 694.59 751.65 C695.2 754.38 695.93 757.06 696.69 759.75 C697.89 764.07 698.82 768.38 699.66 772.78 C700.23 775.5 700.94 778.14 701.69 780.81 C702.89 785.09 703.83 789.35 704.66 793.71 C705.25 796.61 705.96 799.45 706.69 802.31 C707.81 806.73 708.79 811.14 709.66 815.62 C710.29 818.86 710.99 822.08 711.69 825.31 C712.71 830.07 713.72 834.84 714.65 839.62 C715.07 841.73 715.52 843.84 715.98 845.95 C719.28 861.29 718.89 873.72 710.19 887.31 C709.62 888.23 709.62 888.23 709.05 889.16 C706.52 893.15 706.52 893.15 704.19 894.31 C704.19 894.97 704.19 895.63 704.19 896.31 C703.53 896.31 702.87 896.31 702.19 896.31 C702.19 896.97 702.19 897.63 702.19 898.31 C701.61 898.59 701.03 898.87 700.43 899.16 C698.22 900.26 698.22 900.26 696.32 901.46 C690.62 904.94 684.89 906.7 678.46 908.41 C675.97 909.1 673.69 909.83 671.31 910.81 C666.66 912.67 661.77 913.72 656.91 914.87 C654.07 915.54 651.35 916.25 648.64 917.34 C644.43 919.01 639.99 919.65 635.56 920.53 C632.29 921.19 632.29 921.19 629.75 922.31 C626.33 923.65 622.84 924.21 619.25 924.81 C614.4 925.64 609.85 926.74 605.19 928.31 C602.88 928.77 600.57 929.21 598.25 929.62 C592.35 930.85 588.6 932.21 584.19 936.31 C584.19 936.97 584.19 937.63 584.19 938.31 C583.53 938.31 582.87 938.31 582.19 938.31 C577.71 945.53 575.74 951.81 577.19 960.31 C578.54 963.87 580.19 967.08 582.19 970.31 C582.85 970.31 583.51 970.31 584.19 970.31 C584.68 971.8 584.68 971.8 585.19 973.31 C585.85 973.31 586.51 973.31 587.19 973.31 C587.19 973.97 587.19 974.63 587.19 975.31 C596.73 979.8 606.23 979.13 616.19 976.31 C618.46 976.03 620.73 975.82 623.01 975.66 C625.26 975.39 625.26 975.39 627.51 974.37 C630.74 973.09 633.9 972.51 637.31 971.88 C647.97 970.63 647.97 970.63 657.19 966.31 C659.17 965.89 661.15 965.46 663.12 965.04 C672.32 962.85 681.42 959.99 690.36 956.92 C692.06 956.36 693.78 955.86 695.5 955.38 C696.72 955.02 697.93 954.67 699.19 954.31 C700.01 954.09 700.84 953.88 701.69 953.65 C708.48 951.67 714.36 948.74 720.44 945.19 C721.58 944.52 721.58 944.52 722.75 943.84 C724.6 942.73 726.4 941.53 728.19 940.31 C728.19 939.65 728.19 938.99 728.19 938.31 C728.77 938.05 729.35 937.78 729.95 937.5 C739.47 932.43 747.46 922.26 753.19 913.31 C753.19 912.32 753.19 911.33 753.19 910.31 C753.85 910.31 754.51 910.31 755.19 910.31 C767.87 887.37 770.69 862.73 765.19 837.31 C764.86 836.65 764.53 835.99 764.19 835.31 C763.91 833.14 763.74 830.98 763.57 828.8 C763.25 826.22 763.25 826.22 762.24 823.51 C761.03 819.84 760.41 816.18 759.81 812.38 C758.64 805.31 757.01 798.5 755.09 791.61 C754.18 788.27 753.4 784.94 752.69 781.55 C752.07 778.77 751.34 776.01 750.62 773.25 C749.74 769.79 749 766.43 748.62 762.88 C748.37 759.46 748.37 759.46 747.25 757.06 C745.48 752.5 744.85 747.7 743.97 742.91 C743.29 739.79 742.39 737.24 741.19 734.31 C740.48 731.73 739.82 729.16 739.19 726.56 C739.01 725.86 738.84 725.15 738.66 724.42 C737.72 720.58 736.83 716.74 736 712.88 C735.57 709.51 735.57 709.51 734.19 708.31 C733.85 706.99 733.55 705.65 733.28 704.31 C732.27 699.59 731.05 694.96 729.75 690.31 C729.53 689.53 729.31 688.74 729.08 687.93 C727.78 683.3 726.38 678.72 724.8 674.18 C723.95 671.6 723.35 668.98 722.72 666.34 C722.14 664.13 721.43 661.98 720.69 659.81 C719.53 656.43 718.62 653.05 717.76 649.58 C714 634.7 707.19 616.71 695.19 606.31 C694.53 606.31 693.87 606.31 693.19 606.31 C692.92 605.67 692.65 605.03 692.38 604.38 C691.3 601.98 691.3 601.98 688.19 601.31 C688.19 600.65 688.19 599.99 688.19 599.31 C686.47 597.72 686.47 597.72 684.31 596.19 C683.59 595.65 682.87 595.11 682.13 594.55 C680.29 593.13 680.29 593.13 678.19 593.31 C678.19 592.65 678.19 591.99 678.19 591.31 C677.2 591.31 676.21 591.31 675.19 591.31 C675.19 590.65 675.19 589.99 675.19 589.31 C667.99 585.6 660.81 582.07 653.19 579.31 C652.4 579.02 651.61 578.74 650.8 578.44 C634.32 572.92 612.74 573.57 596.19 578.31 Z M609.19 666.31 C608.71 671.86 609.87 675.62 612.12 680.69 C613.4 683.84 614.28 687.03 615.19 690.31 C615.75 692.23 616.32 694.14 616.89 696.06 C619.55 705.02 622.08 714.02 624.56 723.04 C625.19 725.31 625.83 727.58 626.47 729.85 C628.76 737.95 630.87 746.05 632.73 754.25 C634 759.74 635.61 765.09 637.32 770.46 C638.29 773.64 639.03 776.8 639.7 780.05 C640.25 782.59 640.9 785.1 641.56 787.62 C642.94 793.07 644.05 798.55 645.12 804.06 C646.85 812.9 648.95 821.59 651.19 830.31 C652.48 835.54 653.43 840.6 653.84 845.98 C654.16 848.49 654.16 848.49 655.12 851.53 C656.31 855.74 657.09 859.93 657.81 864.25 C658.01 865.42 658.01 865.42 658.22 866.61 C658.55 868.51 658.87 870.41 659.19 872.31 C665.88 872.5 670.25 870.72 676.19 867.88 C679.54 863.59 678.82 858.54 678.19 853.31 C677.53 851.31 676.86 849.31 676.19 847.31 C675.6 844.51 675.14 841.7 674.69 838.88 C673.83 833.55 672.69 828.5 671.19 823.31 C670.7 820.8 670.25 818.28 669.81 815.75 C668.64 809.17 667.01 802.83 665.09 796.42 C664.14 793.16 663.38 789.91 662.68 786.59 C662.08 783.81 661.38 781.07 660.69 778.31 C659.83 774.92 659 771.54 658.25 768.12 C655.92 757.52 653.51 747.05 650.19 736.7 C649 732.69 648.05 728.64 647.12 724.56 C645.98 719.52 644.72 714.62 642.97 709.75 C641.87 706.31 641.04 702.82 640.19 699.31 C638.97 694.33 637.69 689.43 635.96 684.6 C635.34 682.77 634.79 680.92 634.25 679.06 C633.92 677.9 633.59 676.75 633.25 675.56 C632.95 674.5 632.65 673.43 632.35 672.33 C631.05 668.96 629.78 666.82 627.19 664.31 C621.17 662.99 614.91 664.28 609.19 666.31 Z " fill="#000000" transform="translate(473.8125,61.6875)"/>
<path d="M0 0 C0.76 0.03 1.52 0.07 2.31 0.1 C7.7 0.43 12.15 1.66 17.16 3.74 C19.79 4.75 22.31 5.27 25.06 5.81 C33.81 7.92 42.8 12.8 49.62 18.69 C49.62 19.35 49.62 20.01 49.62 20.69 C50.28 20.69 50.94 20.69 51.62 20.69 C54.54 23.82 57.06 27.27 59.62 30.69 C60.35 31.64 60.35 31.64 61.09 32.61 C70.27 45.85 71.72 62.09 69.62 77.69 C68.02 84.94 65.45 91.85 62.76 98.76 C61.29 102.55 59.93 106.36 58.56 110.18 C57.58 112.9 56.58 115.62 55.58 118.34 C53.31 124.53 51.13 130.76 48.97 136.99 C41.78 157.69 33.12 175.06 12.84 185.66 C-2.27 192.66 -18.52 193.72 -34.38 188.69 C-35.52 188.34 -36.67 187.98 -37.85 187.62 C-45.65 185.05 -52.94 181.9 -59.38 176.69 C-59.38 176.03 -59.38 175.37 -59.38 174.69 C-59.95 174.44 -60.53 174.2 -61.13 173.95 C-71.72 168.01 -78.11 153.76 -81.38 142.69 C-83.16 128.37 -82.27 114.94 -78.28 101.07 C-77.55 98.36 -77.08 95.97 -76.88 93.19 C-76.51 88.36 -75.12 83.83 -73.82 79.2 C-72.9 75.85 -72.14 72.65 -71.88 69.19 C-71.46 63.74 -69.81 58.57 -68.31 53.34 C-67.3 49.75 -67.3 49.75 -67 46.24 C-66.22 41.81 -64.52 38.39 -62.44 34.44 C-62.08 33.73 -61.72 33.02 -61.35 32.3 C-59.81 29.3 -58.25 26.5 -56.38 23.69 C-55.72 23.69 -55.05 23.69 -54.38 23.69 C-54.11 23.1 -53.84 22.5 -53.56 21.89 C-47.98 11.49 -35.22 5.41 -24.61 1.62 C-16.47 -0.73 -8.38 -0.39 0 0 Z M-23.19 45.94 C-25.89 49.34 -27.14 52.56 -28.38 56.69 C-28.7 57.75 -29.03 58.81 -29.36 59.91 C-30.65 64.72 -31.44 69.55 -32.23 74.46 C-32.94 78.71 -33.98 82.6 -35.38 86.69 C-35.57 88.77 -35.77 90.85 -35.96 92.93 C-36.59 97.1 -37.79 101.1 -38.93 105.15 C-40.27 110.03 -40.95 114.66 -41.38 119.69 C-41.87 120.68 -41.87 120.68 -42.38 121.69 C-42.88 128.23 -43.22 134.11 -39.38 139.69 C-38.32 141.23 -38.32 141.23 -37.25 142.81 C-34.06 146.53 -29.85 147.97 -25.38 149.69 C-24.72 150.02 -24.05 150.35 -23.38 150.69 C-11.92 151.94 -11.92 151.94 -1.56 148 C0.18 146.38 0.18 146.38 1.62 144.69 C2.39 143.88 3.15 143.08 3.94 142.25 C7.9 136.24 9.61 129.59 11.66 122.75 C12.75 119.28 14.19 116.03 15.62 112.69 C16.29 110.57 16.93 108.44 17.56 106.31 C18.97 101.62 20.62 97.28 22.69 92.86 C24.03 89.75 24.92 86.55 25.83 83.3 C26.69 80.49 27.74 77.8 28.81 75.06 C31.2 68.51 31.63 63.69 29 57.06 C24.79 48.64 19.63 45.83 10.79 42.72 C9.75 42.38 8.7 42.04 7.62 41.69 C6.9 41.44 6.17 41.19 5.43 40.93 C-5.35 37.7 -14.54 39.02 -23.19 45.94 Z " fill="#000000" transform="translate(913.375,36.3125)"/>
<path d="M0 0 C0.9 0.4 1.8 0.8 2.73 1.21 C10.59 5.04 17.05 10.65 23 17 C23 17.66 23 18.32 23 19 C23.66 19 24.32 19 25 19 C32.65 28.94 36.13 41.18 38.42 53.3 C38.72 55.9 38.72 55.9 40 57 C40.24 61.15 40.23 65.3 40.24 69.45 C40.25 71.53 40.28 73.61 40.31 75.68 C40.37 82.78 40.14 88.56 37 95 C36.54 96.03 36.08 97.06 35.61 98.12 C29.61 110.28 29.61 110.28 25 115 C24.34 115 23.68 115 23 115 C23 115.66 23 116.32 23 117 C21.32 118.51 21.32 118.51 19.12 120.12 C18.41 120.66 17.69 121.2 16.95 121.76 C15 123 15 123 13 123 C13 123.66 13 124.32 13 125 C-1.45 132.63 -15.6 135.18 -31.65 137.54 C-32.82 137.71 -33.99 137.88 -35.19 138.06 C-36.25 138.22 -37.32 138.37 -38.42 138.54 C-40.98 138.87 -40.98 138.87 -43 140 C-44.56 140.18 -46.12 140.32 -47.69 140.44 C-52.01 140.83 -55.84 141.74 -60 143 C-70.5 145.54 -81.22 146.37 -92 146 C-92.91 145.97 -93.82 145.94 -94.75 145.91 C-101.31 145.53 -106.17 143.93 -112 141 C-113.18 140.55 -114.35 140.09 -115.56 139.62 C-119.86 137.6 -123.31 134.96 -127 132 C-127.82 131.36 -127.82 131.36 -128.66 130.71 C-132.33 127.8 -135.23 124.75 -138 121 C-138 120.01 -138 119.02 -138 118 C-138.66 118 -139.32 118 -140 118 C-140.96 116.13 -141.92 114.25 -142.88 112.38 C-143.41 111.33 -143.94 110.29 -144.49 109.21 C-152.07 93.08 -153.01 74.97 -148 58 C-146.51 54.23 -144.86 50.6 -143 47 C-142.34 47 -141.68 47 -141 47 C-140.89 46.43 -140.78 45.85 -140.67 45.26 C-137.87 35.85 -127.82 29.16 -120 24 C-116.74 22.34 -113.48 21.11 -110 20 C-108.62 19.49 -107.25 18.97 -105.88 18.44 C-105.23 18.2 -104.59 17.96 -103.93 17.72 C-102.62 17.23 -101.31 16.73 -100.01 16.22 C-96.15 14.72 -92.36 13.55 -88.32 12.59 C-81.43 10.84 -74.62 8.75 -68.06 6 C-62.92 3.86 -57.64 2.43 -52.28 0.95 C-48.42 -0.17 -44.74 -1.54 -41 -3 C-28.93 -6.66 -11.18 -5.62 0 0 Z M-37.26 37.86 C-40.49 39.21 -43.75 40.13 -47.12 41.06 C-50.81 42.08 -54.44 43.09 -58 44.5 C-61.56 45.91 -65.19 46.92 -68.88 47.94 C-73.9 49.34 -78.64 50.97 -83.43 53.01 C-86.45 54.17 -89.51 54.97 -92.62 55.81 C-100.01 58.03 -104.58 61.49 -108.94 67.81 C-111.97 76.9 -111.12 85.3 -107.81 94.19 C-104.33 99.59 -100.3 104.15 -94 106 C-90.26 106.28 -90.26 106.28 -86.31 106.19 C-85.64 106.19 -84.96 106.19 -84.26 106.19 C-80.51 106.19 -80.51 106.19 -77 105 C-74.6 104.72 -72.21 104.55 -69.8 104.38 C-66.89 104.06 -66.89 104.06 -63.76 103.05 C-59.38 101.83 -55.06 101.18 -50.56 100.56 C-42.83 99.45 -35.16 98.18 -27.49 96.68 C-25.36 96.26 -23.22 95.88 -21.07 95.54 C-13.58 94.33 -8.55 91.55 -3.19 86.19 C0.65 80.6 2.71 76.03 1.45 69.13 C1.3 68.43 1.15 67.72 1 67 C0.86 66.2 0.72 65.41 0.58 64.59 C-1.25 54.44 -3.64 45.11 -12 38.39 C-20.39 33.05 -28.5 33.9 -37.26 37.86 Z " fill="#000000" transform="translate(1240,348)"/>
<path d="M0 0 C0.96 0.5 1.91 1 2.9 1.52 C12.73 7.37 21.74 16.2 29 25 C29 25.66 29 26.32 29 27 C29.66 27 30.32 27 31 27 C42.58 41.71 46.41 57.48 44.73 76.02 C42.17 94.42 31.73 107.64 18.06 119.56 C16 121 16 121 14 121 C14 121.66 14 122.32 14 123 C12.39 124.46 10.71 125.84 9 127.19 C4.72 130.6 0.59 134.09 -3.44 137.79 C-5 139 -5 139 -7 139 C-7 139.66 -7 140.32 -7 141 C-9.12 142.95 -9.12 142.95 -11.88 145.12 C-13.23 146.21 -13.23 146.21 -14.62 147.32 C-17 149 -17 149 -19 149 C-19 149.66 -19 150.32 -19 151 C-21.12 152.95 -21.12 152.95 -23.88 155.12 C-25.23 156.21 -25.23 156.21 -26.62 157.32 C-29 159 -29 159 -31 159 C-31 159.66 -31 160.32 -31 161 C-46.08 171.43 -62.33 174.96 -80.5 172.38 C-87.12 171.03 -93.01 168.03 -99 165 C-100.18 164.41 -100.18 164.41 -101.38 163.81 C-101.91 163.54 -102.45 163.28 -103 163 C-103 162.34 -103 161.68 -103 161 C-104.03 160.7 -104.03 160.7 -105.08 160.39 C-109.04 158.5 -111.64 155.8 -114.69 152.69 C-115.27 152.12 -115.85 151.55 -116.45 150.96 C-119.54 147.85 -121.75 145.31 -123 141 C-123.66 141 -124.32 141 -125 141 C-133.81 126.26 -137.38 110.27 -133.75 93.25 C-131.41 84.18 -127.55 75.59 -122 68 C-121.34 68 -120.68 68 -120 68 C-119.73 67.42 -119.46 66.84 -119.19 66.25 C-117.97 63.94 -116.7 61.98 -115 60 C-114.34 60 -113.68 60 -113 60 C-112.77 59.45 -112.54 58.9 -112.3 58.34 C-110.62 55.33 -108.48 53.08 -106.12 50.56 C-103.57 47.82 -101.1 45.12 -98.8 42.15 C-98.21 41.44 -97.61 40.73 -97 40 C-96.34 40 -95.68 40 -95 40 C-94.73 39.42 -94.46 38.84 -94.19 38.25 C-92.97 35.94 -91.7 33.98 -90 32 C-89.34 32 -88.68 32 -88 32 C-87.75 31.44 -87.51 30.89 -87.25 30.31 C-85.77 27.58 -84.07 25.32 -82 23 C-81.34 23 -80.68 23 -80 23 C-79.74 22.41 -79.48 21.82 -79.21 21.21 C-77.94 18.88 -76.6 17.4 -74.69 15.56 C-72.63 13.58 -70.66 11.62 -68.75 9.5 C-51.07 -6.58 -21.38 -11.64 0 0 Z M-47 44 C-47 44.66 -47 45.32 -47 46 C-47.66 46 -48.32 46 -49 46 C-50.7 47.69 -50.7 47.69 -52.44 49.81 C-55.84 53.85 -55.84 53.85 -57.72 55.64 C-59.23 56.93 -59.23 56.93 -59 59 C-59.66 59 -60.32 59 -61 59 C-62.52 60.7 -63.97 62.46 -65.38 64.25 C-67.59 67.05 -69.73 69.74 -72.29 72.23 C-74.23 73.83 -74.23 73.83 -74 76 C-74.66 76 -75.32 76 -76 76 C-77.6 77.55 -77.6 77.55 -79.25 79.56 C-79.86 80.29 -80.48 81.01 -81.11 81.76 C-81.74 82.5 -82.36 83.24 -83 84 C-83.59 84.67 -84.18 85.33 -84.79 86.02 C-85.34 86.63 -85.88 87.24 -86.44 87.88 C-87.18 88.71 -87.18 88.71 -87.93 89.55 C-89.2 90.97 -89.2 90.97 -89 93 C-89.66 93 -90.32 93 -91 93 C-94.5 97.3 -94.46 101.22 -94.38 106.5 C-94.39 107.25 -94.4 107.99 -94.41 108.76 C-94.39 113.29 -93.97 116.35 -91 120 C-90.34 120 -89.68 120 -89 120 C-88.79 120.54 -88.59 121.07 -88.38 121.62 C-85.72 126.21 -81.95 130 -77 132 C-68.24 133.69 -61.08 133.1 -53.44 128.44 C-52.96 127.96 -52.49 127.49 -52 127 C-52 126.34 -52 125.68 -52 125 C-51.14 124.6 -51.14 124.6 -50.27 124.19 C-47.92 122.96 -45.88 121.57 -43.75 120 C-43.04 119.48 -42.34 118.97 -41.61 118.44 C-41.08 117.96 -40.55 117.49 -40 117 C-40 116.34 -40 115.68 -40 115 C-39.13 114.6 -39.13 114.6 -38.25 114.19 C-35.94 112.97 -33.98 111.7 -32 110 C-32 109.34 -32 108.68 -32 108 C-31.14 107.6 -31.14 107.6 -30.27 107.19 C-27.92 105.96 -25.88 104.57 -23.75 103 C-23.04 102.48 -22.34 101.97 -21.61 101.44 C-21.08 100.96 -20.55 100.49 -20 100 C-20 99.34 -20 98.68 -20 98 C-19.19 97.64 -19.19 97.64 -18.36 97.28 C-15.37 95.66 -12.89 93.65 -10.25 91.5 C-9.27 90.71 -8.28 89.91 -7.27 89.09 C-6.52 88.4 -5.77 87.71 -5 87 C-5 86.34 -5 85.68 -5 85 C-4.36 84.73 -3.72 84.46 -3.06 84.19 C-0.67 83.11 -0.67 83.11 0 80 C0.66 80 1.32 80 2 80 C5.99 74.18 5.95 67.85 5 61 C1.52 51.05 -9.98 39.38 -19.42 34.84 C-30.7 31.18 -39.64 35.54 -47 44 Z " fill="#000000" transform="translate(1137,147)"/>
<path d="M0 0 C1.76 -0.01 1.76 -0.01 3.57 -0.02 C20.03 0.22 34.18 6.27 47.62 15.5 C48.33 15.98 49.04 16.46 49.76 16.95 C52.61 18.94 55.32 20.89 57.62 23.5 C57.62 24.16 57.62 24.82 57.62 25.5 C58.28 25.5 58.94 25.5 59.62 25.5 C61.13 27.18 61.13 27.18 62.75 29.38 C63.29 30.09 63.83 30.81 64.38 31.55 C65.62 33.5 65.62 33.5 65.62 35.5 C66.28 35.5 66.94 35.5 67.62 35.5 C69.1 38.45 70.57 41.4 72.04 44.35 C72.93 46.12 73.84 47.89 74.81 49.62 C83.22 64.84 83.53 88.01 78.8 104.49 C75.13 113.88 70.46 123.26 64.62 131.5 C63.97 131.5 63.31 131.5 62.62 131.5 C62.36 132.26 62.09 133.03 61.81 133.81 C60.67 136.39 59.81 137.77 57.62 139.5 C56.97 139.5 56.31 139.5 55.62 139.5 C55.62 140.16 55.62 140.82 55.62 141.5 C53.68 143.2 51.74 144.76 49.69 146.31 C49.09 146.76 48.49 147.22 47.87 147.68 C30.35 160.72 9.56 165.35 -12.06 162.81 C-28.57 160.22 -44.19 153.15 -56.38 141.5 C-56.38 140.84 -56.38 140.18 -56.38 139.5 C-56.93 139.29 -57.49 139.08 -58.07 138.87 C-61.19 137.02 -63.1 134.47 -65.25 131.62 C-65.91 130.76 -65.91 130.76 -66.58 129.88 C-77.32 115.39 -81.93 99.38 -81.75 81.5 C-81.76 80.32 -81.77 79.14 -81.79 77.92 C-81.75 67.74 -80.26 58.31 -75.35 49.3 C-74.38 47.51 -73.59 45.7 -72.81 43.81 C-71.52 40.84 -70.23 38.16 -68.38 35.5 C-67.71 35.5 -67.06 35.5 -66.38 35.5 C-66.13 34.78 -65.88 34.06 -65.62 33.31 C-64.25 30.22 -62.65 27.99 -60.38 25.5 C-59.71 25.5 -59.06 25.5 -58.38 25.5 C-58.38 24.84 -58.38 24.18 -58.38 23.5 C-56.26 21.55 -56.26 21.55 -53.5 19.38 C-52.6 18.65 -51.69 17.93 -50.76 17.18 C-48.38 15.5 -48.38 15.5 -46.38 15.5 C-46.38 14.84 -46.38 14.18 -46.38 13.5 C-31.01 4.49 -17.99 0.09 0 0 Z M-34.38 56.5 C-41.85 66.06 -43.35 76.59 -42.38 88.5 C-41.12 96.38 -37.33 103.29 -32.38 109.5 C-31.38 109.83 -30.39 110.16 -29.38 110.5 C-29.38 111.16 -29.38 111.82 -29.38 112.5 C-26.88 114.49 -26.88 114.49 -23.75 116.5 C-22.18 117.55 -22.18 117.55 -20.59 118.62 C-13.9 122.53 -8.14 122.86 -0.56 122.88 C0.86 122.91 0.86 122.91 2.31 122.95 C11.08 122.99 17.47 120.24 24.69 115.38 C25.44 114.88 26.2 114.38 26.97 113.87 C27.79 113.19 27.79 113.19 28.62 112.5 C28.62 111.84 28.62 111.18 28.62 110.5 C29.28 110.5 29.94 110.5 30.62 110.5 C37.45 104.06 40.94 94.17 42.04 85.06 C42.39 71.5 37.61 60.54 28.38 50.69 C19.7 42.45 9.09 38.96 -2.77 39.25 C-16.01 40.52 -25.79 46.58 -34.38 56.5 Z " fill="#000000" transform="translate(335.375,461.5)"/>
<path d="M0 0 C1.08 0.71 1.08 0.71 2.18 1.43 C3.83 2.55 5.42 3.77 7 5 C7 5.66 7 6.32 7 7 C7.59 7.26 8.18 7.52 8.79 7.79 C20.05 13.97 26.41 30.45 30 42 C34.89 61.78 31.14 80.14 22 98 C21.34 98 20.68 98 20 98 C19.92 98.54 19.84 99.07 19.75 99.62 C18.72 102.87 17.03 105.29 15 108 C14.34 108 13.68 108 13 108 C12.5 109.48 12.5 109.48 12 111 C11.34 111 10.68 111 10 111 C10 111.66 10 112.32 10 113 C9.34 113 8.68 113 8 113 C7.5 114.48 7.5 114.48 7 116 C-0.81 122.54 -10.24 128.02 -20 131 C-21.13 131.35 -22.25 131.7 -23.41 132.06 C-29.33 133.51 -35.32 133.33 -41.38 133.31 C-43.13 133.34 -43.13 133.34 -44.91 133.36 C-52.15 133.37 -58.22 132.5 -65 130 C-66.2 129.61 -67.39 129.22 -68.62 128.81 C-69.8 128.41 -69.8 128.41 -71 128 C-71 127.34 -71 126.68 -71 126 C-72.08 125.84 -72.08 125.84 -73.18 125.68 C-85.3 122.77 -96.29 110.52 -102.94 100.44 C-113.37 82.7 -116.9 63.52 -113 43.19 C-110.14 32.73 -104.67 22.52 -98 14 C-97.34 14 -96.68 14 -96 14 C-95.77 13.44 -95.53 12.88 -95.29 12.3 C-89.09 1.27 -74.44 -6.12 -62.81 -9.88 C-40.59 -15.59 -19.32 -12.74 0 0 Z M-60 33 C-60.65 33.46 -61.3 33.92 -61.98 34.39 C-69.69 40.38 -73.45 48.47 -75 58 C-75.38 66.98 -72 76.07 -66.25 82.88 C-58.98 90.39 -51.87 93.51 -41.5 94.25 C-34.74 93.77 -28.95 92.36 -23 89 C-23 88.34 -23 87.68 -23 87 C-22.44 86.77 -21.89 86.55 -21.31 86.31 C-14.86 82.65 -11.5 76.78 -9 70 C-6.64 59.33 -8.74 49.91 -14.16 40.55 C-18.67 34.28 -24.8 30.57 -32 28 C-34.95 27.55 -37.83 27.48 -40.81 27.5 C-42 27.51 -42 27.51 -43.22 27.52 C-49.77 27.71 -54.63 29.1 -60 33 Z " fill="#000000" transform="translate(923,920)"/>
<path d="M0 0 C5.34 3.92 10.34 8.27 14.87 13.11 C14.87 13.77 14.87 14.43 14.87 15.11 C15.53 15.11 16.19 15.11 16.87 15.11 C29.96 30.65 31.77 49.29 30.62 68.73 C29.07 83.52 19.31 98.75 8.31 108.42 C7.17 109.33 6.03 110.22 4.87 111.11 C4.33 111.53 3.79 111.96 3.23 112.4 C-8.9 121.58 -22.04 124.64 -37.07 124.42 C-38.16 124.42 -39.26 124.42 -40.39 124.43 C-45.54 124.39 -49.37 124.19 -54.13 122.11 C-55.14 121.86 -56.15 121.61 -57.19 121.36 C-65.66 118.99 -74.8 114.29 -81.13 108.11 C-81.13 107.45 -81.13 106.79 -81.13 106.11 C-81.77 105.84 -82.41 105.57 -83.07 105.29 C-85.13 104.11 -85.13 104.11 -86.13 101.11 C-86.79 101.11 -87.45 101.11 -88.13 101.11 C-98.46 88.25 -103.52 74 -103.38 57.67 C-103.39 56.79 -103.39 55.91 -103.4 55.01 C-103.37 45.6 -101.82 37.4 -97.44 29.04 C-97.09 28.35 -96.73 27.67 -96.37 26.96 C-90.62 16.06 -82.57 6.73 -72.13 0.11 C-71.14 0.11 -70.15 0.11 -69.13 0.11 C-69.13 -0.55 -69.13 -1.21 -69.13 -1.89 C-45.89 -12.16 -22.29 -14.01 0 0 Z M-52.13 34.11 C-52.13 34.77 -52.13 35.43 -52.13 36.11 C-52.71 36.33 -53.28 36.56 -53.88 36.79 C-58.5 39.49 -60.88 43.75 -62.59 48.74 C-64.34 56.42 -63.99 65.13 -60.13 72.11 C-54.97 78.94 -47.94 84.18 -39.36 85.55 C-30.4 85.93 -23.12 82.49 -16.13 77.11 C-16.13 76.45 -16.13 75.79 -16.13 75.11 C-15.47 75.11 -14.81 75.11 -14.13 75.11 C-10.18 69.35 -8.85 64.65 -8.88 57.67 C-8.87 56.39 -8.87 55.11 -8.86 53.8 C-9.12 50.22 -9.83 47.43 -11.13 44.11 C-11.79 44.11 -12.45 44.11 -13.13 44.11 C-13.38 43.05 -13.38 43.05 -13.63 41.98 C-16.29 36.88 -21.43 34.24 -26.13 31.11 C-35.31 29.54 -43.89 29.37 -52.13 34.11 Z " fill="#000000" transform="translate(778.12890625,796.89453125)"/>
<path d="M0 0 C1.87 1.43 1.87 1.43 3.12 2.69 C3.12 3.35 3.12 4.01 3.12 4.69 C3.76 4.96 4.4 5.22 5.06 5.5 C7.12 6.69 7.12 6.69 8.12 9.69 C8.78 9.69 9.44 9.69 10.12 9.69 C23.41 25.47 24.59 43.99 23.12 63.69 C21.62 73.58 16.01 81.82 10.12 89.69 C9.61 90.37 9.1 91.06 8.57 91.77 C7.25 93.44 7.25 93.44 5.12 95.69 C4.47 95.69 3.81 95.69 3.12 95.69 C3.12 96.35 3.12 97.01 3.12 97.69 C-9.78 107.89 -23.04 113.08 -39.38 112.94 C-40.26 112.95 -41.15 112.95 -42.06 112.96 C-51.32 112.93 -58.86 111.13 -67.06 106.88 C-67.73 106.54 -68.41 106.21 -69.1 105.87 C-73.55 103.62 -77.24 101.11 -80.88 97.69 C-80.88 97.03 -80.88 96.37 -80.88 95.69 C-81.51 95.42 -82.15 95.15 -82.81 94.88 C-84.88 93.69 -84.88 93.69 -85.88 90.69 C-86.54 90.69 -87.19 90.69 -87.88 90.69 C-89.16 89.26 -89.16 89.26 -90.5 87.38 C-91.17 86.45 -91.17 86.45 -91.85 85.51 C-92.88 83.69 -92.88 83.69 -92.88 80.69 C-93.54 80.69 -94.19 80.69 -94.88 80.69 C-100.81 68.31 -104.29 55.41 -101.88 41.69 C-101.7 40.46 -101.7 40.46 -101.53 39.21 C-99.9 29.25 -95.71 19.89 -89.88 11.69 C-89.21 11.69 -88.56 11.69 -87.88 11.69 C-87.62 11.11 -87.37 10.54 -87.12 9.94 C-85.71 7.38 -84.09 5.67 -82 3.62 C-81.32 2.95 -80.64 2.28 -79.95 1.59 C-74.61 -3.31 -74.61 -3.31 -70.88 -3.31 C-70.88 -3.97 -70.88 -4.63 -70.88 -5.31 C-47.12 -17.58 -21.62 -15.53 0 0 Z M-55.3 32.11 C-60.61 37.44 -62.24 42.64 -62.62 50.12 C-62.37 57.69 -60.17 62.34 -54.88 67.69 C-49.35 72.55 -43.8 73.01 -36.68 72.89 C-29.9 72.41 -26.16 70.34 -21.5 65.38 C-16.98 59.87 -15.35 55.14 -15.57 48.05 C-16.57 40.26 -20.57 35.2 -26.5 30.29 C-35.03 24.55 -47.39 25.71 -55.3 32.11 Z " fill="#000000" transform="translate(494.875,357.3125)"/>
<path d="M0 0 C6.42 2.82 9.48 7.59 12.25 13.81 C13.67 19.87 12.16 25.25 10 31 C9.34 31 8.68 31 8 31 C7.73 31.64 7.46 32.28 7.19 32.94 C6 35 6 35 3 36 C3 36.66 3 37.32 3 38 C-3.86 41.08 -8.82 41.23 -16 39 C-16.66 38.67 -17.32 38.34 -18 38 C-18 37.34 -18 36.68 -18 36 C-18.58 35.77 -19.15 35.55 -19.75 35.31 C-23.57 33.08 -25.51 30.14 -27.25 26.12 C-28.95 19.04 -27.81 14.54 -24.43 8.24 C-22.66 5.47 -20.77 3.75 -18 2 C-12.7 -1.53 -6.13 -0.73 0 0 Z " fill="#000000" transform="translate(975,1067)"/>
<path d="M0 0 C4.67 3.32 8.98 7.49 10.81 13 C11.44 20.65 11.74 26.85 6.81 33 C4.56 34.44 4.56 34.44 2.81 35 C2.81 35.66 2.81 36.32 2.81 37 C-2.6 39.76 -7.11 40.95 -13.19 40 C-17.06 38.71 -20.33 37.5 -22.41 33.86 C-22.67 33.25 -22.92 32.63 -23.19 32 C-23.85 32 -24.51 32 -25.19 32 C-28.94 25.41 -29.25 19.44 -28.19 12 C-25.6 6.47 -21.34 2.76 -16.06 -0.19 C-10.66 -1.72 -5.36 -1.68 0 0 Z " fill="#000000" transform="translate(405.1875,666)"/>
<path d="M0 0 C0 0.66 0 1.32 0 2 C1.08 2.25 1.08 2.25 2.19 2.5 C6.4 4.75 8.34 7.54 10 12 C10.89 18.83 10.98 25.19 7 31 C6.34 31 5.68 31 5 31 C4.72 31.87 4.72 31.87 4.44 32.75 C2.28 36.12 -0.3 37.72 -4 39 C-10.73 40.2 -15.8 39.67 -21.56 35.88 C-25.37 33.06 -27.27 30.41 -29 26 C-29.96 19.14 -30.51 12.05 -26.25 6.25 C-19 -1.88 -10.23 -3.99 0 0 Z " fill="#000000" transform="translate(733,1082)"/>
<path d="M0 0 C4.06 2.5 7.06 6.1 9.19 10.35 C10.5 25.74 10.5 25.74 5.79 31.76 C0.95 36.56 -2.95 38.64 -9.88 38.91 C-16.05 38.62 -19.82 37.34 -24.27 32.89 C-29.4 27.04 -30.21 22.88 -30.06 15.26 C-29.53 9 -26.43 5.37 -21.81 1.35 C-21.15 1.35 -20.49 1.35 -19.81 1.35 C-19.81 0.69 -19.81 0.03 -19.81 -0.65 C-12.38 -3.03 -7.21 -3.4 0 0 Z " fill="#000000" transform="translate(891.8125,812.65234375)"/>
<path d="M0 0 C5.04 4.98 6.01 8.67 6.36 15.65 C6.16 22.43 4.59 26.08 -0.27 30.71 C-0.99 31.52 -1.71 32.32 -2.46 33.15 C-7.97 36.21 -14.05 36.1 -20.14 35.02 C-23.42 33.65 -25.72 32.18 -28.27 29.71 C-28.27 29.05 -28.27 28.39 -28.27 27.71 C-28.93 27.71 -29.59 27.71 -30.27 27.71 C-34.24 21.91 -34.18 15.53 -33.27 8.71 C-32.04 5.65 -30.61 3.06 -28.27 0.71 C-27.61 0.71 -26.95 0.71 -26.27 0.71 C-26.27 0.05 -26.27 -0.61 -26.27 -1.29 C-17.98 -7.38 -7.64 -6.49 0 0 Z " fill="#000000" transform="translate(670.26953125,378.2890625)"/>
</svg>
