<?xml version="1.0" encoding="UTF-8"?>
<!-- Generator: visioncortex VTracer 0.6.3 -->
<svg version="1.1" xmlns="http://www.w3.org/2000/svg" width="1280" height="1280">
<path d="M0 0 C1.17 -0 2.35 -0.01 3.56 -0.01 C4.84 -0.01 6.12 -0.01 7.44 -0 C8.74 -0 10.04 -0.01 11.39 -0.01 C14.15 -0.01 16.91 -0.01 19.68 -0 C23.22 0 26.77 0 30.31 -0 C33.69 -0.01 37.06 -0.01 40.44 -0 C41.71 -0.01 42.99 -0.01 44.31 -0.01 C45.48 -0.01 46.66 -0 47.88 0 C48.92 0 49.96 0 51.03 0 C53.5 0.13 53.5 0.13 55.5 1.13 C57.08 1.26 58.67 1.36 60.25 1.44 C66.11 1.92 71.41 3.39 77.01 5.09 C80.24 6.05 83.48 6.9 86.75 7.69 C94.35 9.57 101.55 11.44 108.48 15.12 C110.56 16.16 112.64 16.95 114.81 17.75 C120.11 19.82 125.1 22.42 130.13 25.07 C131.33 25.7 131.33 25.7 132.55 26.34 C144.13 32.49 144.13 32.49 147.5 35.13 C147.5 35.79 147.5 36.45 147.5 37.13 C148.02 37.2 148.54 37.28 149.08 37.35 C152.54 38.46 155.3 40.5 158.25 42.57 C158.85 42.97 159.46 43.38 160.08 43.8 C161.59 44.86 163.05 45.99 164.5 47.13 C164.5 47.79 164.5 48.45 164.5 49.13 C165.12 49.44 165.74 49.75 166.38 50.07 C167.75 50.75 169.13 51.44 170.5 52.13 C170.5 52.79 170.5 53.45 170.5 54.13 C171.4 54.53 171.4 54.53 172.31 54.94 C174.5 56.13 174.5 56.13 175.81 57.82 C177.52 59.43 177.52 59.43 180.38 59.07 C185 58.19 189.46 56.64 193.93 55.16 C203.81 52.3 213.06 51.79 223.3 51.81 C225.73 51.82 228.17 51.79 230.61 51.77 C242.35 51.72 253.5 52.76 264.48 57.34 C266.57 58.19 266.57 58.19 269.05 58.86 C283.42 63.02 295.92 71.89 307.5 81.13 C308.44 81.83 309.37 82.54 310.33 83.26 C311.05 83.88 311.76 84.49 312.5 85.13 C312.5 85.79 312.5 86.45 312.5 87.13 C313.16 87.13 313.82 87.13 314.5 87.13 C316.13 88.5 316.13 88.5 317.5 90.13 C317.5 90.79 317.5 91.45 317.5 92.13 C318.16 92.13 318.82 92.13 319.5 92.13 C320.83 93.6 320.83 93.6 322.32 95.63 C322.86 96.35 323.39 97.07 323.94 97.82 C324.5 98.58 325.05 99.34 325.63 100.13 C326.19 100.89 326.75 101.66 327.33 102.44 C328.73 104.33 330.12 106.23 331.5 108.13 C337.86 107.04 337.86 107.04 344 105.13 C353.29 101.42 363.26 101.76 373.1 101.76 C375.67 101.75 378.24 101.72 380.81 101.68 C391.42 101.61 400.39 102.88 410.5 106.13 C412.65 106.72 414.79 107.3 416.94 107.88 C428.55 111.52 440.92 117.62 450.5 125.13 C450.5 125.79 450.5 126.45 450.5 127.13 C451.18 127.34 451.86 127.54 452.56 127.75 C456.42 129.56 459.58 132.03 462.5 135.13 C462.5 135.79 462.5 136.45 462.5 137.13 C463.46 137.53 463.46 137.53 464.44 137.94 C466.5 139.13 466.5 139.13 467.5 142.13 C468.16 142.13 468.82 142.13 469.5 142.13 C472.38 145.29 474.91 148.73 477.5 152.13 C478.04 152.83 478.58 153.53 479.14 154.25 C482.5 158.74 482.5 158.74 482.5 162.13 C483.16 162.13 483.82 162.13 484.5 162.13 C489.29 169.99 492.4 178.02 495.3 186.7 C496.15 189.92 496.15 189.92 497.5 191.13 C499.5 198.63 500.76 206.25 501.69 213.94 C501.77 214.62 501.86 215.3 501.94 216 C504.36 237.5 500.26 261.39 489.93 280.42 C488.41 283.19 488.41 283.19 487.13 286.49 C485.3 290.57 483.11 294.09 480.56 297.75 C480.09 298.45 479.61 299.14 479.12 299.85 C472.37 309.39 464.1 319.36 454.5 326.13 C453.84 326.13 453.18 326.13 452.5 326.13 C452.5 351.21 452.5 376.29 452.5 402.13 C467.63 402.08 467.63 402.08 483.07 402.02 C489.48 402.01 495.89 401.99 502.3 401.98 C512.46 401.97 522.62 401.94 532.78 401.9 C540.18 401.87 547.58 401.85 554.98 401.85 C558.9 401.84 562.81 401.83 566.72 401.81 C570.42 401.79 574.11 401.79 577.81 401.79 C579.79 401.79 581.77 401.77 583.75 401.76 C594.26 401.79 604.64 403.22 614.41 407.27 C616.03 407.93 617.66 408.54 619.31 409.11 C633.47 414.18 645.8 421.76 657.5 431.13 C658.44 431.83 659.37 432.54 660.33 433.27 C661.05 433.88 661.77 434.5 662.5 435.13 C662.5 435.79 662.5 436.45 662.5 437.13 C663.16 437.13 663.82 437.13 664.5 437.13 C666.09 438.7 666.09 438.7 667.88 440.82 C668.49 441.55 669.11 442.27 669.75 443.02 C670.33 443.72 670.91 444.41 671.5 445.13 C672.31 446.08 673.11 447.03 673.94 448 C675.5 450.13 675.5 450.13 675.5 452.13 C676.16 452.13 676.82 452.13 677.5 452.13 C680.5 456.51 680.5 456.51 680.5 459.13 C681.16 459.13 681.82 459.13 682.5 459.13 C683.08 460.31 683.08 460.31 683.67 461.51 C686.93 468.11 686.93 468.11 690.56 474.5 C694.97 482.03 697.31 490.57 698.5 499.13 C698.82 500.03 699.14 500.93 699.46 501.86 C700.62 505.5 701.19 509.07 701.61 512.85 C701.7 513.59 701.78 514.33 701.87 515.09 C702.76 523.61 702.78 532.1 702.76 540.65 C702.77 542.46 702.77 544.27 702.77 546.07 C702.78 550.98 702.78 555.9 702.78 560.81 C702.78 566.13 702.78 571.45 702.79 576.76 C702.81 587.16 702.81 597.56 702.8 607.96 C702.8 616.42 702.8 624.88 702.81 633.34 C702.81 634.55 702.81 635.76 702.81 637 C702.81 639.45 702.81 641.9 702.81 644.36 C702.83 667.32 702.82 690.29 702.82 713.26 C702.81 734.23 702.82 755.21 702.84 776.18 C702.86 797.76 702.87 819.34 702.87 840.91 C702.86 853.01 702.87 865.11 702.88 877.21 C702.89 887.51 702.89 897.81 702.88 908.11 C702.88 913.35 702.87 918.6 702.89 923.85 C703.01 980.42 703.01 980.42 695.5 995.82 C694.31 998.35 693.31 1000.7 692.44 1003.38 C691.45 1006.28 690.09 1008.52 688.5 1011.13 C688.08 1012.18 687.65 1013.23 687.21 1014.31 C677.23 1037.89 653.36 1058.7 630.62 1069.5 C628.26 1070.45 625.9 1071.3 623.5 1072.13 C621.75 1072.83 620 1073.54 618.25 1074.25 C612.49 1076.54 607.34 1078.31 601.14 1078.79 C598.28 1079.1 598.28 1079.1 594.69 1080.14 C588.45 1081.53 582.27 1081.39 575.9 1081.36 C574.55 1081.36 573.2 1081.36 571.85 1081.36 C568.21 1081.36 564.57 1081.35 560.93 1081.33 C557.11 1081.32 553.29 1081.32 549.48 1081.32 C542.26 1081.31 535.05 1081.29 527.84 1081.27 C519.62 1081.25 511.4 1081.24 503.18 1081.23 C486.29 1081.21 469.4 1081.17 452.5 1081.13 C452.51 1082.07 452.52 1083.01 452.52 1083.98 C452.58 1092.95 452.63 1101.92 452.66 1110.89 C452.67 1115.5 452.69 1120.11 452.73 1124.72 C453.13 1180.17 453.13 1180.17 445.5 1195.82 C444.31 1198.35 443.31 1200.7 442.44 1203.38 C441.45 1206.28 440.09 1208.52 438.5 1211.13 C438.08 1212.18 437.65 1213.23 437.21 1214.31 C427.23 1237.89 403.36 1258.7 380.62 1269.5 C378.26 1270.45 375.9 1271.3 373.5 1272.13 C371.75 1272.83 370 1273.54 368.25 1274.25 C362.21 1276.65 356.85 1278.35 350.36 1278.88 C348.49 1278.94 348.49 1278.94 347.5 1280.13 C344.64 1280.23 341.8 1280.27 338.94 1280.26 C338.03 1280.27 337.12 1280.27 336.18 1280.27 C333.08 1280.28 329.98 1280.28 326.88 1280.28 C324.65 1280.28 322.42 1280.28 320.19 1280.29 C314.03 1280.3 307.87 1280.3 301.71 1280.3 C295.76 1280.31 289.81 1280.32 283.86 1280.32 C267.91 1280.34 251.96 1280.35 236.01 1280.36 C228.46 1280.37 220.91 1280.37 213.36 1280.38 C187.53 1280.4 161.69 1280.41 135.85 1280.42 C134.23 1280.42 132.61 1280.42 130.98 1280.42 C130.18 1280.42 129.37 1280.42 128.55 1280.42 C124.47 1280.42 120.39 1280.42 116.31 1280.42 C115.1 1280.42 115.1 1280.42 113.86 1280.43 C87.64 1280.43 61.42 1280.46 35.2 1280.49 C7.49 1280.52 -20.23 1280.54 -47.95 1280.55 C-50.99 1280.55 -54.04 1280.55 -57.08 1280.55 C-57.83 1280.55 -58.58 1280.55 -59.36 1280.55 C-71.41 1280.55 -83.46 1280.57 -95.51 1280.59 C-107.64 1280.61 -119.77 1280.61 -131.89 1280.6 C-138.46 1280.6 -145.02 1280.6 -151.59 1280.62 C-157.61 1280.64 -163.62 1280.64 -169.64 1280.62 C-171.81 1280.62 -173.98 1280.62 -176.15 1280.63 C-207.1 1280.79 -233.68 1269.91 -257.5 1250.13 C-258.14 1249.62 -258.79 1249.11 -259.45 1248.58 C-260.84 1247.48 -262.18 1246.31 -263.5 1245.13 C-263.5 1244.47 -263.5 1243.81 -263.5 1243.13 C-264.16 1243.13 -264.82 1243.13 -265.5 1243.13 C-267.44 1241.01 -267.44 1241.01 -269.62 1238.25 C-270.35 1237.35 -271.07 1236.44 -271.82 1235.51 C-273.5 1233.13 -273.5 1233.13 -273.5 1231.13 C-274.16 1231.13 -274.82 1231.13 -275.5 1231.13 C-282.41 1222.11 -287.9 1212.41 -291.6 1201.68 C-292.53 1198.94 -292.53 1198.94 -294.06 1195.63 C-300.52 1179.91 -300.8 1163.32 -300.78 1146.6 C-300.78 1144.66 -300.79 1142.72 -300.79 1140.78 C-300.81 1135.49 -300.81 1130.2 -300.81 1124.91 C-300.82 1119.19 -300.83 1113.47 -300.85 1107.75 C-300.87 1097.85 -300.88 1087.95 -300.89 1078.06 C-300.91 1063.75 -300.93 1049.44 -300.96 1035.13 C-301.01 1011.91 -301.04 988.69 -301.08 965.47 C-301.11 942.93 -301.14 920.38 -301.18 897.83 C-301.18 897.13 -301.18 896.44 -301.18 895.72 C-301.2 888.73 -301.21 881.75 -301.22 874.76 C-301.33 816.22 -301.42 757.67 -301.5 699.13 C-302.1 699.27 -302.7 699.41 -303.32 699.55 C-304.51 699.82 -304.51 699.82 -305.73 700.1 C-306.52 700.28 -307.3 700.46 -308.11 700.64 C-327.45 704.58 -348.42 701.57 -365.42 691.51 C-369.29 688.94 -372.91 686.09 -376.5 683.13 C-377.16 682.59 -377.83 682.05 -378.51 681.49 C-381.56 678.95 -384.42 676.56 -386.5 673.13 C-386.5 672.47 -386.5 671.81 -386.5 671.13 C-387.16 671.13 -387.82 671.13 -388.5 671.13 C-401.92 648.53 -403.96 628.99 -403.89 602.94 C-403.88 599.12 -403.89 595.31 -403.9 591.5 C-403.92 584.04 -403.91 576.59 -403.9 569.14 C-403.9 563.07 -403.9 557 -403.9 550.93 C-403.9 550.07 -403.9 549.2 -403.9 548.31 C-403.9 546.54 -403.9 544.78 -403.9 543.02 C-403.91 526.52 -403.9 510.02 -403.89 493.53 C-403.87 479.42 -403.88 465.32 -403.89 451.22 C-403.91 434.79 -403.91 418.37 -403.9 401.94 C-403.9 400.18 -403.9 398.42 -403.9 396.66 C-403.9 395.8 -403.9 394.93 -403.9 394.04 C-403.9 388 -403.9 381.95 -403.91 375.91 C-403.92 368.52 -403.91 361.13 -403.9 353.74 C-403.89 349.98 -403.89 346.22 -403.9 342.46 C-404.01 296.15 -404.01 296.15 -399.5 287.13 C-399.32 285.57 -399.18 284.01 -399.06 282.44 C-398.58 277.26 -397.52 272.58 -395.51 267.77 C-394.49 265.1 -393.86 262.54 -393.25 259.75 C-390.13 247.06 -384.38 235.51 -378.42 223.96 C-377.6 222.32 -376.82 220.67 -376.04 219.02 C-372.15 210.72 -367.1 203.42 -361.8 195.98 C-359.43 192.61 -357.14 189.18 -354.84 185.75 C-354.4 185.22 -353.95 184.68 -353.5 184.13 C-352.84 184.13 -352.18 184.13 -351.5 184.13 C-351.22 183.54 -350.95 182.95 -350.67 182.34 C-346.95 175.31 -340.23 169.73 -334.69 164.13 C-334.01 163.45 -333.34 162.76 -332.65 162.06 C-332.02 161.42 -331.38 160.79 -330.73 160.13 C-330.15 159.55 -329.58 158.97 -328.99 158.38 C-327.5 157.13 -327.5 157.13 -325.5 157.13 C-325.5 156.47 -325.5 155.81 -325.5 155.13 C-322.72 152.55 -319.54 150.39 -316.5 148.13 C-315.22 147.16 -313.94 146.19 -312.67 145.22 C-311.32 144.21 -309.97 143.2 -308.62 142.19 C-307.64 141.45 -307.64 141.45 -306.64 140.69 C-301.84 137.13 -301.84 137.13 -298.5 137.13 C-298.5 136.47 -298.5 135.81 -298.5 135.13 C-296.42 133.62 -296.42 133.62 -293.69 132 C-292.79 131.47 -291.9 130.93 -290.98 130.37 C-288.5 129.13 -288.5 129.13 -285.5 129.13 C-285.5 128.47 -285.5 127.81 -285.5 127.13 C-284.41 126.73 -284.41 126.73 -283.31 126.32 C-280.53 125.23 -280.53 125.23 -278.31 123.75 C-275.02 121.85 -271.65 120.54 -268.11 119.17 C-265.69 118.21 -263.35 117.16 -261 116.07 C-257.06 114.29 -253.09 113.02 -248.95 111.84 C-246.7 111.19 -244.51 110.46 -242.31 109.69 C-229.93 105.52 -217.22 102.58 -204.25 101.07 C-203.46 100.97 -202.68 100.88 -201.87 100.78 C-196.53 100.22 -191.32 100.13 -185.95 100.27 C-173.1 101.2 -173.1 101.2 -161.21 97.72 C-157.5 94.06 -155.56 89.84 -153.5 85.13 C-152.84 85.13 -152.18 85.13 -151.5 85.13 C-151.19 84.51 -150.88 83.89 -150.56 83.25 C-149.87 81.88 -149.19 80.5 -148.5 79.13 C-147.84 79.13 -147.18 79.13 -146.5 79.13 C-146.25 78.57 -146 78.02 -145.75 77.44 C-144.27 74.71 -142.56 72.45 -140.5 70.13 C-139.84 70.13 -139.18 70.13 -138.5 70.13 C-138.13 69.26 -138.13 69.26 -137.75 68.38 C-136.31 65.8 -134.71 64.07 -132.5 62.13 C-131.84 62.13 -131.18 62.13 -130.5 62.13 C-130.5 61.47 -130.5 60.81 -130.5 60.13 C-129.04 58.62 -129.04 58.62 -127.12 57 C-126.5 56.47 -125.87 55.93 -125.22 55.37 C-123.5 54.13 -123.5 54.13 -121.5 54.13 C-121.5 53.47 -121.5 52.81 -121.5 52.13 C-119.68 50.54 -117.87 49.08 -115.94 47.63 C-115.35 47.19 -114.77 46.75 -114.17 46.29 C-96.66 33.19 -77.21 20.51 -56.2 14.02 C-53.81 13.23 -51.69 12.31 -49.44 11.19 C-42.6 8.01 -35.06 6.5 -27.77 4.7 C-26.29 4.33 -24.81 3.95 -23.34 3.56 C-19.39 2.52 -15.63 1.83 -11.56 1.57 C-7.21 1.27 -4.41 0 0 0 Z M452.5 553.13 C452.5 677.21 452.5 801.29 452.5 929.13 C484.51 929.13 516.52 929.13 549.5 929.13 C549.52 881.37 549.54 833.62 549.55 785.86 C549.55 780.23 549.56 774.6 549.56 768.97 C549.56 767.85 549.56 766.72 549.56 765.57 C549.56 747.39 549.57 729.21 549.58 711.03 C549.59 692.39 549.59 673.75 549.6 655.11 C549.6 643.6 549.6 632.09 549.61 620.58 C549.62 612.69 549.62 604.81 549.62 596.93 C549.62 592.37 549.62 587.82 549.62 583.26 C549.63 579.1 549.63 574.94 549.62 570.78 C549.62 569.26 549.62 567.75 549.63 566.24 C549.63 564.19 549.63 562.15 549.63 560.11 C549.63 558.97 549.63 557.83 549.63 556.66 C549.79 554.19 549.79 554.19 548.5 553.13 C516.82 553.13 485.14 553.13 452.5 553.13 Z " fill="#000100" transform="translate(490.497802734375,-0.12939453125)"/>
<path d="M0 0 C0.73 0.1 1.47 0.2 2.22 0.3 C3.06 0.41 3.91 0.51 4.78 0.61 C5.7 0.73 6.62 0.85 7.57 0.97 C18.21 2.15 28.59 1.95 39.27 1.4 C40.42 1.34 41.57 1.28 42.75 1.22 C43.78 1.16 44.8 1.1 45.86 1.04 C46.63 1.03 47.4 1.03 48.2 1.03 C49.88 2.71 49.32 4.8 49.32 7.11 C49.33 8.78 49.33 8.78 49.33 10.48 C49.33 11.71 49.33 12.95 49.32 14.23 C49.33 15.53 49.33 16.84 49.33 18.19 C49.33 21.85 49.33 25.51 49.33 29.17 C49.32 33.14 49.33 37.11 49.33 41.08 C49.33 48.05 49.33 55.01 49.33 61.98 C49.33 72.34 49.33 82.71 49.33 93.07 C49.34 111.57 49.34 130.07 49.33 148.58 C49.33 164.77 49.33 180.96 49.33 197.16 C49.33 198.76 49.33 198.76 49.33 200.41 C49.33 204.76 49.33 209.11 49.33 213.46 C49.34 254.33 49.33 295.2 49.33 336.08 C49.32 372.41 49.32 408.75 49.33 445.09 C49.33 485.88 49.34 526.67 49.33 567.46 C49.33 571.81 49.33 576.15 49.33 580.5 C49.33 581.57 49.33 582.64 49.33 583.74 C49.33 599.93 49.33 616.11 49.33 632.29 C49.34 650.69 49.34 669.09 49.33 687.49 C49.33 697.79 49.33 708.1 49.33 718.41 C49.33 725.28 49.33 732.16 49.33 739.03 C49.33 742.95 49.32 746.88 49.33 750.8 C49.33 755.02 49.33 759.23 49.32 763.45 C49.33 764.68 49.33 765.91 49.33 767.18 C49.33 768.3 49.33 769.42 49.32 770.57 C49.32 772.02 49.32 772.02 49.32 773.49 C49.21 775.82 48.86 777.8 48.2 780.03 C47.27 780.04 46.33 780.04 45.37 780.05 C36.56 780.13 27.75 780.22 18.94 780.32 C14.41 780.36 9.88 780.41 5.35 780.45 C0.97 780.49 -3.41 780.53 -7.78 780.59 C-9.45 780.6 -11.11 780.62 -12.78 780.63 C-30.63 780.51 -30.63 780.51 -45.8 789.03 C-49.83 794.67 -52.21 801.05 -51.8 808.03 C-50.72 814.37 -49.06 819.03 -43.8 823.03 C-37.55 826.83 -33.07 829.17 -25.72 829.19 C-24.99 829.19 -24.26 829.2 -23.51 829.2 C-21.93 829.21 -20.35 829.22 -18.76 829.23 C-16.26 829.24 -13.75 829.26 -11.25 829.28 C-4.13 829.34 2.99 829.4 10.11 829.43 C14.47 829.45 18.82 829.49 23.17 829.53 C24.83 829.54 26.5 829.55 28.16 829.56 C30.48 829.56 32.8 829.58 35.12 829.61 C35.81 829.61 36.5 829.61 37.21 829.6 C39.12 829.64 39.12 829.64 42.2 830.03 C42.86 831.02 43.52 832.01 44.2 833.03 C34.71 853.56 19.87 868.95 -1.47 876.98 C-8.72 879.25 -15.46 880.32 -23.05 880.28 C-23.94 880.29 -24.83 880.29 -25.75 880.3 C-28.73 880.3 -31.7 880.3 -34.68 880.3 C-36.84 880.3 -38.99 880.3 -41.15 880.31 C-47.08 880.32 -53 880.32 -58.93 880.32 C-65.32 880.32 -71.71 880.33 -78.11 880.34 C-90.63 880.36 -103.15 880.36 -115.67 880.36 C-125.85 880.36 -136.04 880.37 -146.22 880.37 C-149.15 880.37 -152.08 880.38 -155.01 880.38 C-156.11 880.38 -156.11 880.38 -157.22 880.38 C-177.72 880.39 -198.23 880.4 -218.73 880.4 C-219.5 880.4 -220.27 880.4 -221.07 880.4 C-224.99 880.4 -228.9 880.4 -232.82 880.4 C-233.6 880.4 -234.37 880.4 -235.18 880.4 C-236.75 880.4 -238.32 880.4 -239.89 880.4 C-264.36 880.4 -288.82 880.41 -313.29 880.44 C-340.79 880.47 -368.29 880.49 -395.78 880.49 C-398.72 880.49 -401.65 880.49 -404.59 880.48 C-405.31 880.48 -406.03 880.48 -406.78 880.48 C-418.38 880.48 -429.99 880.5 -441.6 880.51 C-453.28 880.53 -464.95 880.53 -476.63 880.52 C-482.95 880.51 -489.27 880.51 -495.59 880.53 C-501.38 880.55 -507.17 880.54 -512.97 880.53 C-515.06 880.52 -517.15 880.53 -519.24 880.54 C-542.43 880.65 -561.54 875.32 -578.8 859.03 C-595.8 841.95 -595.8 841.95 -595.8 831.03 C-591.58 830.23 -587.6 829.9 -583.3 829.9 C-582.01 829.89 -580.71 829.89 -579.37 829.89 C-577.94 829.89 -576.51 829.89 -575.07 829.89 C-573.55 829.89 -572.02 829.88 -570.49 829.88 C-566.3 829.87 -562.11 829.87 -557.91 829.87 C-553.39 829.87 -548.87 829.86 -544.34 829.85 C-536.5 829.84 -528.67 829.83 -520.83 829.83 C-508.44 829.82 -496.06 829.8 -483.67 829.78 C-479.43 829.77 -475.2 829.76 -470.96 829.75 C-469.9 829.75 -468.84 829.75 -467.75 829.75 C-455.7 829.73 -443.65 829.71 -431.6 829.69 C-430.5 829.69 -429.4 829.69 -428.26 829.68 C-410.4 829.66 -392.53 829.64 -374.67 829.62 C-356.34 829.61 -338 829.58 -319.66 829.54 C-308.35 829.51 -297.04 829.5 -285.73 829.5 C-277.98 829.5 -270.23 829.48 -262.48 829.46 C-258.01 829.45 -253.54 829.44 -249.07 829.45 C-244.97 829.45 -240.88 829.45 -236.79 829.43 C-235.3 829.42 -233.82 829.42 -232.34 829.43 C-230.33 829.44 -228.32 829.42 -226.3 829.41 C-225.18 829.41 -224.07 829.41 -222.91 829.41 C-217.34 828.73 -212.78 825.9 -208.8 822.03 C-204.34 815.56 -202.03 809.64 -203.36 801.72 C-205.12 794.77 -208.74 788.01 -214.8 784.03 C-220.49 781.33 -226.16 780.9 -232.38 780.89 C-234.35 780.88 -234.35 780.88 -236.37 780.87 C-237.82 780.87 -239.27 780.87 -240.72 780.87 C-242.27 780.86 -243.82 780.86 -245.37 780.85 C-249.62 780.84 -253.87 780.83 -258.12 780.83 C-262.7 780.82 -267.29 780.81 -271.87 780.79 C-279.81 780.77 -287.76 780.75 -295.7 780.74 C-307.18 780.71 -318.67 780.69 -330.15 780.66 C-348.78 780.61 -367.41 780.57 -386.04 780.52 C-404.14 780.49 -422.24 780.44 -440.34 780.4 C-441.46 780.4 -442.57 780.39 -443.72 780.39 C-449.32 780.38 -454.92 780.36 -460.51 780.35 C-506.94 780.24 -553.37 780.13 -599.8 780.03 C-601.01 777.62 -600.93 776.12 -600.93 773.43 C-600.93 772.45 -600.93 771.47 -600.93 770.46 C-600.93 769.38 -600.93 768.29 -600.93 767.18 C-600.93 766.03 -600.93 764.88 -600.93 763.7 C-600.93 760.48 -600.93 757.27 -600.92 754.06 C-600.92 750.57 -600.92 747.09 -600.93 743.6 C-600.93 737.49 -600.93 731.37 -600.92 725.25 C-600.92 716.16 -600.92 707.06 -600.92 697.96 C-600.92 682.67 -600.91 667.37 -600.91 652.07 C-600.9 636.91 -600.9 621.76 -600.9 606.61 C-600.9 605.67 -600.9 604.72 -600.9 603.75 C-600.9 598.97 -600.9 594.2 -600.9 589.42 C-600.89 555.54 -600.89 521.66 -600.88 487.78 C-600.87 454.86 -600.86 421.94 -600.86 389.02 C-600.86 388 -600.86 386.99 -600.86 385.94 C-600.86 375.76 -600.85 365.57 -600.85 355.39 C-600.85 334.64 -600.85 313.89 -600.84 293.14 C-600.84 292.19 -600.84 291.24 -600.84 290.25 C-600.83 226.51 -600.82 162.77 -600.8 99.03 C-600.09 98.86 -599.38 98.69 -598.65 98.52 C-595.39 97.75 -592.13 96.98 -588.87 96.21 C-587.2 95.81 -587.2 95.81 -585.49 95.41 C-570.41 91.82 -557.26 86.68 -543.8 79.03 C-542.18 78.15 -540.55 77.28 -538.93 76.4 C-526.27 69.27 -515.42 59.87 -504.8 50.03 C-504.21 49.49 -503.62 48.95 -503.01 48.4 C-489.53 35.62 -479.75 19.12 -470.8 3.03 C-465.9 2.78 -463.12 2.99 -459.2 6.09 C-457.78 7.47 -456.36 8.85 -454.95 10.24 C-447.73 17.27 -439.23 22.58 -430.8 28.03 C-429.17 29.08 -429.17 29.08 -427.51 30.16 C-394.93 50.17 -353.26 55.17 -316.39 46.46 C-290.85 40.1 -269.37 27.29 -249.8 10.03 C-240.63 2.06 -233.63 2.45 -221.8 3.03 C-201.35 4.64 -180.52 8.06 -165.84 23.55 C-154.61 37.21 -153.66 53.46 -153.64 70.4 C-153.64 71.6 -153.63 72.79 -153.63 74.03 C-153.62 77.28 -153.61 80.53 -153.6 83.79 C-153.59 87.22 -153.57 90.65 -153.55 94.08 C-153.49 105.73 -153.43 117.39 -153.4 129.04 C-153.38 135.49 -153.35 141.94 -153.31 148.39 C-153.29 151.8 -153.28 155.2 -153.27 158.6 C-153.24 182.18 -152.09 203.83 -136.8 223.03 C-136.37 223.64 -135.93 224.25 -135.48 224.88 C-128.81 233.65 -118 239.28 -108.17 243.74 C-105.8 245.03 -105.8 245.03 -103.8 248.03 C-103.55 251.01 -103.55 251.01 -103.55 254.74 C-103.54 255.43 -103.54 256.12 -103.54 256.83 C-103.53 259.16 -103.53 261.49 -103.54 263.82 C-103.53 265.5 -103.53 267.18 -103.52 268.85 C-103.51 273.48 -103.51 278.11 -103.51 282.74 C-103.52 287.72 -103.5 292.71 -103.49 297.69 C-103.48 306.34 -103.47 314.98 -103.47 323.63 C-103.46 336.14 -103.44 348.65 -103.42 361.16 C-103.38 381.46 -103.36 401.77 -103.33 422.08 C-103.33 423.29 -103.33 424.51 -103.33 425.76 C-103.32 434.39 -103.31 443.02 -103.3 451.65 C-103.29 461.5 -103.28 471.35 -103.27 481.2 C-103.27 482.41 -103.27 483.62 -103.27 484.87 C-103.24 505.09 -103.21 525.32 -103.18 545.54 C-103.16 558.01 -103.14 570.49 -103.14 582.97 C-103.13 591.52 -103.12 600.07 -103.1 608.62 C-103.09 613.56 -103.09 618.49 -103.09 623.43 C-103.09 627.95 -103.09 632.46 -103.07 636.98 C-103.07 638.62 -103.07 640.25 -103.07 641.88 C-103.67 656.37 -103.67 656.37 -97.8 669.03 C-97.8 669.69 -97.8 670.35 -97.8 671.03 C-97.14 671.28 -96.48 671.52 -95.8 671.78 C-92.8 673.03 -92.8 673.03 -91.18 674.05 C-84.83 677.9 -78.05 677.96 -70.8 677.03 C-63.79 674.06 -59.67 669.52 -55.8 663.03 C-54.56 659.42 -54.67 655.89 -54.66 652.1 C-54.66 651.4 -54.66 650.7 -54.65 649.98 C-54.65 647.62 -54.65 645.26 -54.64 642.91 C-54.64 641.2 -54.63 639.5 -54.63 637.8 C-54.62 633.11 -54.61 628.42 -54.6 623.73 C-54.59 618.68 -54.58 613.63 -54.57 608.57 C-54.55 599.82 -54.53 591.06 -54.51 582.3 C-54.49 569.64 -54.46 556.98 -54.43 544.32 C-54.38 523.78 -54.34 503.24 -54.3 482.7 C-54.26 462.74 -54.22 442.79 -54.17 422.83 C-54.17 420.99 -54.17 420.99 -54.17 419.11 C-54.15 412.94 -54.14 406.77 -54.13 400.6 C-54.01 349.41 -53.9 298.22 -53.8 247.03 C-52.84 246.55 -51.87 246.08 -50.88 245.59 C-49.6 244.95 -48.32 244.32 -47.05 243.69 C-46.41 243.37 -45.78 243.06 -45.12 242.74 C-27.04 233.75 -14.45 218.64 -7.85 199.68 C-4.82 189.08 -4.51 178.98 -4.52 168.03 C-4.51 166.22 -4.5 164.41 -4.49 162.6 C-4.48 158.72 -4.47 154.84 -4.47 150.96 C-4.46 144.82 -4.44 138.69 -4.41 132.55 C-4.36 118.44 -4.33 104.32 -4.29 90.2 C-4.26 77.24 -4.23 64.27 -4.18 51.31 C-4.15 45.21 -4.14 39.11 -4.13 33 C-4.13 29.22 -4.11 25.43 -4.1 21.65 C-4.09 19.89 -4.09 18.13 -4.09 16.37 C-4.09 13.97 -4.08 11.58 -4.07 9.19 C-4.07 8.48 -4.07 7.78 -4.08 7.05 C-4.01 0.06 -4.01 0.06 0 0 Z " fill="#FBC653" transform="translate(841.80224609375,348.972412109375)"/>
<path d="M0 0 C0.94 0.52 0.94 0.52 1.9 1.05 C11.57 6.37 19.79 12.65 28 20 C29.35 21.15 30.71 22.29 32.06 23.44 C34.43 25.5 36.66 27.66 38.84 29.92 C46.43 37.79 53.3 44.49 64.75 45.25 C71.54 45.13 77.18 41.91 83.19 39.06 C104.09 29.28 123.31 28.91 144.9 35.95 C162.54 42.41 176.53 57.57 185 74 C185.88 76.1 186.73 78.2 187.56 80.31 C190.91 88.57 196.08 92.32 204 96 C212.08 98.45 218.66 96.72 226 93 C226.93 92.36 227.86 91.72 228.82 91.05 C232.36 88.77 235.81 87.3 239.75 85.88 C240.46 85.62 241.17 85.36 241.91 85.09 C261.03 78.3 281 79.71 299.78 87.38 C317.57 96.35 332.08 113.89 338.5 132.62 C343.99 150.78 343.07 171.93 334.54 188.9 C331.49 194.25 327.81 199.17 324 204 C323.28 204.97 322.56 205.94 321.81 206.94 C309.73 221.16 291.34 229.31 273 231 C255.96 232.13 241.48 228.04 226 221.25 C217.94 217.89 210.7 218.46 202.66 221.61 C195.88 225.15 192.93 230.48 190.64 237.51 C189.62 241.48 189.59 245.3 189.62 249.38 C189.62 250.28 189.61 251.18 189.61 252.11 C189.6 255.1 189.61 258.1 189.62 261.09 C189.61 263.25 189.61 265.4 189.6 267.56 C189.59 272.19 189.58 276.82 189.59 281.45 C189.6 288.77 189.58 296.1 189.56 303.42 C189.52 320.29 189.51 337.16 189.5 354.03 C189.49 369.49 189.47 384.96 189.43 400.43 C189.41 407.71 189.41 414.98 189.41 422.26 C189.42 426.79 189.4 431.32 189.39 435.85 C189.39 437.95 189.39 440.05 189.39 442.14 C189.4 445.01 189.39 447.88 189.38 450.75 C189.39 451.57 189.39 452.4 189.4 453.25 C189.34 459.53 188.15 464.9 184.49 470.17 C178.64 475.88 172.84 479.12 164.56 479.56 C156.85 479.24 150.77 475.86 145.06 470.81 C138.56 463.53 138.56 454.04 138.6 444.75 C138.59 443.57 138.59 442.38 138.58 441.17 C138.56 437.95 138.56 434.73 138.56 431.51 C138.56 428.11 138.54 424.72 138.52 421.32 C138.48 413.42 138.46 405.53 138.44 397.63 C138.42 387.6 138.39 377.58 138.34 367.55 C138.31 362.89 138.31 358.23 138.3 353.58 C138.2 319.54 132.66 287.92 108.41 262.39 C82.93 237.28 40.51 231.44 6.52 231.58 C-2.19 231.76 -9.82 232.8 -18 236 C-18.87 236.32 -19.73 236.63 -20.62 236.96 C-29.9 240.93 -37.21 248.64 -44.58 255.35 C-66.08 274.86 -92.61 280.35 -121 279 C-142.57 277.08 -161.63 266.4 -177.51 252.31 C-181.22 249.05 -185.08 245.99 -189 243 C-189.6 242.53 -190.21 242.06 -190.83 241.57 C-203 233.01 -220.55 230.53 -235 232 C-249.17 234.53 -260.39 241.44 -269 253 C-271.98 257.65 -274.66 262.45 -277.23 267.34 C-292.23 295.6 -319.3 315.5 -349.49 324.75 C-359.35 327.59 -369.21 329.01 -379.44 329.44 C-387.35 329.83 -392.97 331.76 -399.81 335.56 C-408.51 345.25 -407.7 356.81 -407.61 369 C-407.62 371.02 -407.62 373.03 -407.63 375.05 C-407.64 379.37 -407.64 383.69 -407.62 388.01 C-407.6 394.85 -407.61 401.68 -407.63 408.52 C-407.65 420.57 -407.64 432.62 -407.63 444.67 C-407.61 462.81 -407.62 480.95 -407.65 499.09 C-407.66 505.88 -407.66 512.67 -407.64 519.46 C-407.63 523.69 -407.64 527.92 -407.65 532.15 C-407.65 534.11 -407.64 536.06 -407.63 538.02 C-407.52 561.75 -407.52 561.75 -415.18 571.24 C-421.24 577.1 -428.61 579.49 -436.88 579.41 C-443.96 578.48 -450.67 574.87 -455.56 569.69 C-461.16 561.84 -461.43 553.55 -461.38 544.19 C-461.39 542.92 -461.39 541.65 -461.4 540.34 C-461.41 536.84 -461.4 533.33 -461.39 529.83 C-461.39 526.04 -461.4 522.26 -461.4 518.47 C-461.42 511.05 -461.41 503.64 -461.41 496.22 C-461.4 490.18 -461.4 484.15 -461.4 478.11 C-461.4 477.25 -461.4 476.39 -461.4 475.5 C-461.4 473.75 -461.4 472 -461.41 470.25 C-461.41 453.85 -461.4 437.45 -461.39 421.05 C-461.37 407.03 -461.38 393 -461.39 378.97 C-461.41 362.65 -461.41 346.33 -461.4 330.01 C-461.4 328.26 -461.4 326.51 -461.4 324.76 C-461.4 323.91 -461.4 323.05 -461.4 322.16 C-461.4 316.15 -461.4 310.14 -461.41 304.12 C-461.42 296.77 -461.41 289.42 -461.4 282.06 C-461.39 278.32 -461.39 274.58 -461.4 270.84 C-461.49 231.56 -455.44 194.74 -434 161 C-433.31 159.9 -432.61 158.8 -431.89 157.67 C-426.01 148.8 -419.15 140.86 -412 133 C-411.3 132.23 -410.6 131.46 -409.88 130.66 C-403.9 124.38 -396.9 119.23 -390 114 C-389.02 113.25 -388.05 112.5 -387.04 111.73 C-380.97 107.18 -374.78 103.39 -368 100 C-367.39 99.69 -366.78 99.38 -366.15 99.06 C-337.78 84.8 -305.59 76.84 -273.75 79.5 C-258.07 81.48 -258.07 81.48 -244 76 C-239 71.58 -235.7 66.02 -232.25 60.38 C-208.53 21.7 -169.87 -5.94 -125.87 -16.77 C-83.12 -26.56 -38.52 -21.92 0 0 Z " fill="#FBE4CB" transform="translate(599,71)"/>
<path d="M0 0 C1.1 -0.01 2.19 -0.01 3.32 -0.02 C4.53 -0.02 5.75 -0.03 7 -0.03 C8.9 -0.04 8.9 -0.04 10.85 -0.05 C15.08 -0.07 19.31 -0.08 23.54 -0.09 C25 -0.1 26.46 -0.1 27.92 -0.1 C34.79 -0.12 41.66 -0.14 48.54 -0.15 C56.44 -0.15 64.34 -0.18 72.24 -0.22 C78.36 -0.25 84.48 -0.27 90.6 -0.27 C94.25 -0.27 97.9 -0.28 101.55 -0.31 C126.72 -0.47 150.32 1.01 169.42 19.3 C189.12 39.27 194.11 62.42 194.08 89.65 C194.08 91.44 194.08 93.23 194.09 95.03 C194.09 99.94 194.09 104.85 194.09 109.76 C194.09 115.07 194.1 120.37 194.1 125.67 C194.11 136.06 194.11 146.44 194.11 156.83 C194.11 165.27 194.11 173.71 194.12 182.16 C194.13 206.1 194.13 230.05 194.13 254 C194.13 255.29 194.13 256.58 194.13 257.91 C194.13 259.2 194.13 260.49 194.13 261.82 C194.13 282.76 194.14 303.7 194.15 324.64 C194.17 346.15 194.17 367.66 194.17 389.17 C194.17 401.24 194.18 413.31 194.19 425.38 C194.2 435.66 194.2 445.94 194.19 456.22 C194.19 461.46 194.19 466.7 194.2 471.94 C194.2 476.75 194.2 481.55 194.19 486.36 C194.19 488.09 194.19 489.82 194.2 491.55 C194.27 516.18 189.66 537.56 172.21 556 C156.51 570.91 139.02 577.5 117.44 577.37 C116.1 577.37 114.76 577.37 113.42 577.38 C109.8 577.38 106.19 577.36 102.57 577.35 C98.78 577.34 94.99 577.34 91.21 577.33 C84.05 577.33 76.89 577.31 69.72 577.29 C61.57 577.27 53.41 577.26 45.25 577.25 C28.48 577.23 11.71 577.19 -5.06 577.15 C-6.25 574.75 -6.18 573.28 -6.17 570.61 C-6.17 569.66 -6.17 568.72 -6.17 567.75 C-6.16 566.23 -6.16 566.23 -6.15 564.67 C-6.15 563.63 -6.15 562.59 -6.15 561.52 C-6.14 558.19 -6.13 554.85 -6.12 551.52 C-6.11 549.27 -6.11 547.01 -6.1 544.76 C-6.09 539.22 -6.08 533.68 -6.06 528.15 C-2.89 527.22 -0.05 527.02 3.24 527.01 C4.32 527 5.39 527 6.5 526.99 C7.67 526.99 8.85 526.99 10.05 526.99 C11.91 526.98 11.91 526.98 13.81 526.97 C16.5 526.96 19.2 526.95 21.89 526.95 C26.15 526.94 30.41 526.92 34.67 526.89 C46.79 526.83 58.91 526.78 71.02 526.75 C77.72 526.73 84.41 526.7 91.11 526.66 C94.65 526.64 98.19 526.62 101.73 526.62 C105.68 526.62 109.63 526.59 113.58 526.56 C115.33 526.57 115.33 526.57 117.12 526.57 C125.15 526.49 130.36 525.07 136.56 519.66 C142.49 513.17 143.07 505.15 143.07 496.72 C143.08 495.62 143.08 495.62 143.08 494.5 C143.08 492.05 143.08 489.6 143.08 487.16 C143.08 485.38 143.08 483.61 143.09 481.84 C143.09 476.96 143.09 472.09 143.09 467.21 C143.09 461.96 143.1 456.7 143.1 451.45 C143.11 441.15 143.11 430.85 143.11 420.56 C143.11 412.19 143.11 403.82 143.12 395.45 C143.13 371.73 143.13 348.01 143.13 324.29 C143.13 323.01 143.13 321.74 143.13 320.42 C143.13 318.5 143.13 318.5 143.13 316.54 C143.13 295.78 143.14 275.02 143.15 254.26 C143.17 232.96 143.17 211.65 143.17 190.34 C143.17 178.37 143.18 166.41 143.19 154.44 C143.2 144.26 143.2 134.07 143.19 123.89 C143.19 118.69 143.19 113.49 143.2 108.29 C143.2 103.53 143.2 98.78 143.19 94.02 C143.19 92.3 143.19 90.57 143.2 88.85 C143.21 86.51 143.2 84.17 143.19 81.83 C143.19 80.53 143.19 79.23 143.19 77.89 C142.68 70.21 140.44 63.43 135.94 57.15 C128.4 50.88 120.81 50.85 111.42 50.83 C110.16 50.82 108.9 50.81 107.61 50.8 C104.17 50.77 100.73 50.76 97.29 50.74 C93.69 50.73 90.09 50.7 86.49 50.67 C79.68 50.63 72.87 50.59 66.06 50.56 C58.3 50.52 50.55 50.47 42.79 50.42 C26.84 50.32 10.89 50.23 -5.06 50.15 C-6.25 47.76 -6.18 46.29 -6.18 43.62 C-6.19 42.68 -6.19 41.75 -6.19 40.78 C-6.19 39.77 -6.19 38.75 -6.19 37.71 C-6.19 36.67 -6.19 35.63 -6.19 34.56 C-6.19 32.36 -6.19 30.17 -6.19 27.97 C-6.18 24.6 -6.19 21.22 -6.19 17.84 C-6.19 15.71 -6.19 13.59 -6.19 11.46 C-6.19 10.44 -6.19 9.42 -6.19 8.38 C-6.19 7.44 -6.19 6.51 -6.18 5.54 C-6.18 4.72 -6.18 3.89 -6.18 3.04 C-5.92 -0.86 -3.31 0.01 0 0 Z " fill="#94E4EB" transform="translate(947.0550537109375,451.8528289794922)"/>
<path d="M0 0 C24.25 0.49 24.25 0.49 49 1 C51.47 7.93 51.47 7.93 54 15 C61.25 21.16 66.84 24.24 76.42 24.27 C77.15 24.28 77.88 24.28 78.63 24.29 C80.21 24.3 81.78 24.3 83.36 24.3 C85.85 24.31 88.34 24.33 90.83 24.35 C97.92 24.4 105 24.43 112.08 24.46 C116.42 24.47 120.75 24.5 125.09 24.54 C126.74 24.55 128.4 24.56 130.05 24.56 C132.36 24.56 134.66 24.58 136.97 24.6 C138.28 24.6 139.59 24.61 140.95 24.61 C141.95 24.74 142.96 24.87 144 25 C144.66 25.99 145.32 26.98 146 28 C136.52 48.53 121.67 63.92 100.34 71.96 C93.08 74.22 86.34 75.3 78.75 75.26 C77.86 75.26 76.97 75.26 76.05 75.27 C73.08 75.28 70.1 75.27 67.13 75.27 C64.97 75.27 62.81 75.28 60.65 75.28 C54.73 75.29 48.8 75.29 42.87 75.29 C36.48 75.29 30.09 75.3 23.7 75.31 C11.17 75.33 -1.35 75.33 -13.87 75.33 C-24.05 75.34 -34.23 75.34 -44.41 75.35 C-47.35 75.35 -50.28 75.35 -53.21 75.35 C-54.3 75.35 -54.3 75.35 -55.42 75.35 C-75.92 75.36 -96.42 75.37 -116.93 75.37 C-117.7 75.37 -118.47 75.37 -119.27 75.37 C-123.18 75.37 -127.1 75.37 -131.02 75.37 C-131.79 75.37 -132.57 75.37 -133.37 75.37 C-134.95 75.37 -136.52 75.37 -138.09 75.37 C-162.56 75.37 -187.02 75.38 -211.49 75.41 C-238.98 75.44 -266.48 75.46 -293.98 75.46 C-296.92 75.46 -299.85 75.46 -302.78 75.46 C-303.51 75.46 -304.23 75.46 -304.97 75.46 C-316.58 75.46 -328.19 75.47 -339.8 75.49 C-351.48 75.5 -363.15 75.51 -374.83 75.49 C-381.15 75.49 -387.47 75.49 -393.79 75.5 C-399.58 75.52 -405.37 75.52 -411.17 75.5 C-413.25 75.5 -415.34 75.5 -417.43 75.51 C-440.63 75.63 -459.74 70.29 -477 54 C-494 36.93 -494 36.93 -494 26 C-489.78 25.2 -485.79 24.87 -481.5 24.87 C-480.2 24.87 -478.91 24.86 -477.57 24.86 C-476.14 24.86 -474.7 24.86 -473.27 24.86 C-471.75 24.86 -470.22 24.86 -468.69 24.85 C-464.5 24.85 -460.3 24.84 -456.11 24.84 C-451.59 24.84 -447.06 24.83 -442.54 24.83 C-434.7 24.82 -426.86 24.81 -419.03 24.8 C-406.64 24.79 -394.26 24.77 -381.87 24.75 C-377.63 24.74 -373.4 24.73 -369.16 24.73 C-367.57 24.72 -367.57 24.72 -365.95 24.72 C-353.9 24.7 -341.85 24.68 -329.8 24.66 C-328.69 24.66 -327.59 24.66 -326.46 24.66 C-308.6 24.63 -290.73 24.61 -272.87 24.6 C-254.53 24.58 -236.2 24.55 -217.86 24.51 C-206.55 24.49 -195.24 24.47 -183.93 24.47 C-176.18 24.47 -168.43 24.46 -160.68 24.43 C-156.21 24.42 -151.74 24.42 -147.26 24.42 C-143.17 24.43 -139.08 24.42 -134.98 24.4 C-133.5 24.39 -132.02 24.39 -130.54 24.4 C-128.53 24.41 -126.51 24.4 -124.5 24.38 C-123.38 24.38 -122.26 24.38 -121.11 24.38 C-115.54 23.7 -110.97 20.87 -107 17 C-103.48 11.77 -101.76 7.15 -100 1 C-83.5 1 -67 1 -50 1 C-49.01 4.3 -48.02 7.6 -47 11 C-43.52 16.43 -39.13 20.01 -33 22 C-25.79 22.98 -18.35 23.48 -11.88 19.62 C-5.51 14.49 -2.53 7.59 0 0 Z " fill="#94E5EC" transform="translate(740,1154)"/>
<path d="M0 0 C4.75 4.01 8.93 10.86 10 17 C10.1 19.7 10.14 22.38 10.13 25.08 C10.13 25.9 10.14 26.72 10.14 27.57 C10.14 30.35 10.14 33.13 10.14 35.92 C10.14 37.92 10.15 39.93 10.15 41.94 C10.16 47.46 10.16 52.99 10.16 58.52 C10.16 64.48 10.17 70.43 10.18 76.39 C10.19 90.1 10.2 103.81 10.2 117.52 C10.2 124.3 10.21 131.07 10.21 137.84 C10.22 161.03 10.23 184.22 10.24 207.4 C10.24 208.86 10.24 210.32 10.24 211.77 C10.24 213.23 10.24 214.69 10.24 216.15 C10.24 219.08 10.24 222 10.24 224.93 C10.24 225.66 10.24 226.38 10.24 227.13 C10.24 250.67 10.26 274.21 10.28 297.74 C10.31 322.63 10.32 347.51 10.32 372.39 C10.32 375.12 10.32 377.85 10.32 380.58 C10.32 381.59 10.32 381.59 10.32 382.62 C10.32 393.45 10.34 404.27 10.35 415.1 C10.36 425.98 10.37 436.86 10.36 447.73 C10.36 453.63 10.36 459.52 10.37 465.42 C10.38 470.81 10.38 476.21 10.37 481.6 C10.37 483.56 10.37 485.51 10.38 487.46 C10.39 490.12 10.38 492.77 10.37 495.42 C10.38 496.18 10.39 496.94 10.39 497.72 C10.32 505.17 8.21 511.48 3 517 C-3.42 522.77 -8.95 523.51 -17.41 523.38 C-24.1 522.67 -28.79 519.78 -33.94 515.62 C-39.4 508.67 -40.15 501.4 -40.13 492.87 C-40.14 492.05 -40.14 491.24 -40.14 490.39 C-40.15 487.64 -40.15 484.89 -40.15 482.14 C-40.15 480.15 -40.15 478.16 -40.16 476.17 C-40.17 470.7 -40.17 465.22 -40.17 459.75 C-40.18 453.85 -40.19 447.95 -40.2 442.04 C-40.22 428.46 -40.23 414.88 -40.23 401.3 C-40.24 394.59 -40.24 387.88 -40.25 381.17 C-40.27 358.19 -40.28 335.21 -40.29 312.23 C-40.29 310.79 -40.29 309.35 -40.29 307.91 C-40.29 307.19 -40.29 306.48 -40.29 305.74 C-40.29 302.11 -40.29 298.49 -40.3 294.87 C-40.3 294.15 -40.3 293.43 -40.3 292.69 C-40.3 269.37 -40.33 246.06 -40.36 222.74 C-40.39 198.08 -40.41 173.43 -40.42 148.77 C-40.42 146.07 -40.42 143.36 -40.42 140.65 C-40.42 139.99 -40.42 139.32 -40.42 138.63 C-40.42 128.58 -40.43 118.52 -40.45 108.46 C-40.48 97.02 -40.48 85.57 -40.47 74.13 C-40.47 68.29 -40.47 62.45 -40.49 56.62 C-40.51 51.27 -40.51 45.92 -40.49 40.58 C-40.49 38.64 -40.49 36.71 -40.51 34.78 C-40.63 13.16 -40.63 13.16 -33.96 4.28 C-23.39 -4.5 -12.39 -6.91 0 0 Z " fill="#000100" transform="translate(578,504)"/>
<path d="M0 0 C4.75 4.01 8.93 10.86 10 17 C10.1 19.7 10.14 22.38 10.13 25.08 C10.13 25.9 10.14 26.72 10.14 27.57 C10.14 30.35 10.14 33.13 10.14 35.92 C10.14 37.92 10.15 39.93 10.15 41.94 C10.16 47.46 10.16 52.99 10.16 58.52 C10.16 64.48 10.17 70.43 10.18 76.39 C10.19 90.1 10.2 103.81 10.2 117.52 C10.2 124.3 10.21 131.07 10.21 137.84 C10.22 161.03 10.23 184.22 10.24 207.4 C10.24 208.86 10.24 210.32 10.24 211.77 C10.24 213.23 10.24 214.69 10.24 216.15 C10.24 219.08 10.24 222 10.24 224.93 C10.24 225.66 10.24 226.38 10.24 227.13 C10.24 250.67 10.26 274.21 10.28 297.74 C10.31 322.63 10.32 347.51 10.32 372.39 C10.32 375.12 10.32 377.85 10.32 380.58 C10.32 381.59 10.32 381.59 10.32 382.62 C10.32 393.45 10.34 404.27 10.35 415.1 C10.36 425.98 10.37 436.86 10.36 447.73 C10.36 453.63 10.36 459.52 10.37 465.42 C10.38 470.81 10.38 476.21 10.37 481.6 C10.37 483.56 10.37 485.51 10.38 487.46 C10.39 490.12 10.38 492.77 10.37 495.42 C10.38 496.18 10.39 496.94 10.39 497.72 C10.32 505.17 8.21 511.48 3 517 C-3.42 522.77 -8.95 523.51 -17.41 523.38 C-24.1 522.67 -28.79 519.78 -33.94 515.62 C-39.4 508.67 -40.15 501.4 -40.13 492.87 C-40.14 492.05 -40.14 491.24 -40.14 490.39 C-40.15 487.64 -40.15 484.89 -40.15 482.14 C-40.15 480.15 -40.15 478.16 -40.16 476.17 C-40.17 470.7 -40.17 465.22 -40.17 459.75 C-40.18 453.85 -40.19 447.95 -40.2 442.04 C-40.22 428.46 -40.23 414.88 -40.23 401.3 C-40.24 394.59 -40.24 387.88 -40.25 381.17 C-40.27 358.19 -40.28 335.21 -40.29 312.23 C-40.29 310.79 -40.29 309.35 -40.29 307.91 C-40.29 307.19 -40.29 306.48 -40.29 305.74 C-40.29 302.11 -40.29 298.49 -40.3 294.87 C-40.3 294.15 -40.3 293.43 -40.3 292.69 C-40.3 269.37 -40.33 246.06 -40.36 222.74 C-40.39 198.08 -40.41 173.43 -40.42 148.77 C-40.42 146.07 -40.42 143.36 -40.42 140.65 C-40.42 139.99 -40.42 139.32 -40.42 138.63 C-40.42 128.58 -40.43 118.52 -40.45 108.46 C-40.48 97.02 -40.48 85.57 -40.47 74.13 C-40.47 68.29 -40.47 62.45 -40.49 56.62 C-40.51 51.27 -40.51 45.92 -40.49 40.58 C-40.49 38.64 -40.49 36.71 -40.51 34.78 C-40.63 13.16 -40.63 13.16 -33.96 4.28 C-23.39 -4.5 -12.39 -6.91 0 0 Z " fill="#000100" transform="translate(378,504)"/>
<path d="M0 0 C6.84 5.57 10.66 12.59 11.91 21.27 C12.15 28.23 9.06 33.93 4.7 39.2 C-0.01 44.18 -3.76 46.2 -10.77 46.64 C-19.79 46.84 -26.06 44.68 -32.64 38.44 C-37.15 33.45 -39.05 27.68 -39 21 C-37.94 12.48 -34.55 6.53 -28 1 C-19.69 -4.62 -8.74 -4.96 0 0 Z " fill="#000100" transform="translate(728,1131)"/>
</svg>
