<?xml version="1.0" encoding="UTF-8"?>
<!-- Generator: visioncortex VTracer 0.6.3 -->
<svg version="1.1" xmlns="http://www.w3.org/2000/svg" width="1280" height="1280">
<path d="M0 0 C1.46 0.01 1.46 0.01 2.94 0.01 C16.18 0.23 27.46 4.31 39.19 10.31 C39.19 10.97 39.19 11.63 39.19 12.31 C40.04 12.46 40.04 12.46 40.91 12.61 C47.14 14.53 52.92 20.49 57.19 25.31 C57.19 25.97 57.19 26.63 57.19 27.31 C57.85 27.31 58.51 27.31 59.19 27.31 C62.19 30.77 62.19 30.77 62.19 33.31 C62.85 33.31 63.51 33.31 64.19 33.31 C65.18 35.29 66.17 37.27 67.19 39.31 C69.87 38.68 72.27 37.91 74.88 36.94 C99.84 28.67 127.5 30.69 151.07 42.17 C158.4 45.87 164.87 50.05 171.19 55.31 C174.88 57.78 176.34 57.41 180.69 57 C181.83 56.9 182.98 56.8 184.16 56.7 C187.23 56.41 187.23 56.41 190.19 55.31 C206.32 54 219.45 56.83 234.19 63.31 C235.85 63.99 237.52 64.65 239.19 65.31 C239.19 65.97 239.19 66.63 239.19 67.31 C239.85 67.52 240.51 67.72 241.19 67.94 C245.26 69.8 248.88 72.29 252.19 75.31 C252.19 75.97 252.19 76.63 252.19 77.31 C253.15 77.71 253.15 77.71 254.12 78.12 C256.19 79.31 256.19 79.31 257.19 82.31 C257.85 82.31 258.51 82.31 259.19 82.31 C260.93 84.63 262.54 86.95 264.12 89.38 C264.57 90.03 265.01 90.69 265.47 91.37 C272.19 101.53 272.19 101.53 272.19 107.31 C273.33 107.49 273.33 107.49 274.5 107.68 C293.39 110.75 312.12 115.74 327.19 128.31 C327.19 128.97 327.19 129.63 327.19 130.31 C327.77 130.58 328.36 130.85 328.96 131.13 C343.34 138.76 355.57 157.77 360.35 173.02 C361.07 175.51 361.73 178 362.39 180.5 C362.91 183.2 362.91 183.2 364.19 184.31 C370.17 211.61 366.98 239.27 352.19 263.31 C348.53 268.8 344.77 273.76 340.06 278.38 C337.67 281.06 337.67 281.06 337.13 284.5 C337.6 286.92 337.6 286.92 338.36 289.42 C344.23 310.03 341.02 334.37 336.12 354.94 C335.39 358.06 335.01 361.06 334.79 364.26 C334.23 370.78 332.96 377.1 331.62 383.5 C331.39 384.64 331.16 385.79 330.92 386.96 C330.35 389.75 329.77 392.53 329.19 395.31 C329.85 395.31 330.51 395.31 331.19 395.31 C331.19 394.65 331.19 393.99 331.19 393.31 C333.23 392.35 335.27 391.39 337.31 390.44 C338.45 389.9 339.59 389.37 340.76 388.82 C356.76 381.78 374.55 381.27 391.19 386.31 C392.11 386.58 393.03 386.85 393.98 387.12 C402.9 390.01 410.44 395.15 418.19 400.31 C422.56 400.13 425.87 399.09 429.88 397.38 C451.08 388.71 477.38 392.36 498.19 400.31 C500.2 401.28 502.21 402.27 504.19 403.31 C504.19 403.97 504.19 404.63 504.19 405.31 C504.87 405.39 505.55 405.48 506.25 405.56 C510.06 406.54 512.83 408.27 516.19 410.31 C516.19 410.97 516.19 411.63 516.19 412.31 C516.99 412.68 516.99 412.68 517.81 413.06 C524.35 416.5 528.53 420.71 533.19 426.31 C534.23 427.5 535.27 428.69 536.31 429.88 C544.46 439.45 549.46 449.31 553.19 461.31 C553.98 463.64 554.77 465.96 555.57 468.28 C557.63 475.11 557.41 482 557.43 489.07 C557.44 491.28 557.47 493.48 557.5 495.68 C557.58 505.77 556.42 514.88 553.09 524.49 C552.04 527.29 552.04 527.29 552.19 530.31 C552.85 530.31 553.51 530.31 554.19 530.31 C555.48 531.74 555.48 531.74 556.81 533.62 C557.48 534.55 557.48 534.55 558.16 535.49 C559.19 537.31 559.19 537.31 559.19 540.31 C559.85 540.31 560.51 540.31 561.19 540.31 C561.52 541.63 561.85 542.95 562.19 544.31 C564.65 543.84 567.1 543.36 569.56 542.88 C570.26 542.74 570.96 542.61 571.68 542.47 C575.54 541.74 575.54 541.74 579.19 540.31 C580.75 540.13 582.31 539.99 583.88 539.88 C588.2 539.48 592.01 538.52 596.19 537.31 C605.3 535.52 614.22 534.96 623.5 535 C625.41 535.01 625.41 535.01 627.36 535.01 C636.65 535.13 645.2 535.84 654.19 538.31 C655.18 538.59 655.18 538.59 656.19 538.86 C671.29 543.1 685.1 549.01 698.05 557.88 C699.52 558.86 701.02 559.79 702.55 560.66 C705.8 562.69 708.67 565.08 711.56 567.56 C712.14 568.05 712.71 568.54 713.3 569.04 C719.07 574 724.74 579.09 729.19 585.31 C729.19 585.97 729.19 586.63 729.19 587.31 C729.85 587.31 730.51 587.31 731.19 587.31 C732.7 589.21 732.7 589.21 734.31 591.69 C734.85 592.5 735.39 593.31 735.95 594.15 C737.19 596.31 737.19 596.31 737.19 598.31 C737.85 598.31 738.51 598.31 739.19 598.31 C739.77 599.49 739.77 599.49 740.36 600.69 C743.61 607.29 743.61 607.29 747.25 613.69 C752.41 622.55 754.76 633.08 757.29 642.93 C758.18 646.28 759.22 649.52 760.35 652.79 C766.57 671.53 771.37 690.8 776.07 709.97 C777.35 715.14 778.73 720.24 780.38 725.31 C782.14 730.75 783.22 736.21 784.15 741.85 C784.62 744.62 785.13 747.17 786.18 749.78 C787.8 753.84 788.32 758.14 789.04 762.43 C789.72 766.31 790.73 769.67 792.19 773.31 C792.74 775.94 793.24 778.55 793.69 781.19 C794.37 785.14 795.09 788.97 796.2 792.82 C797.27 796.62 797.94 800.42 798.56 804.31 C799.52 810.08 800.73 815.69 802.31 821.31 C803.82 826.7 804.72 831.75 805.19 837.31 C805.52 837.97 805.85 838.63 806.19 839.31 C806.28 840.76 806.32 842.21 806.32 843.65 C806.32 845 806.32 845 806.33 846.37 C806.32 847.35 806.32 848.32 806.32 849.32 C806.32 850.31 806.32 851.3 806.32 852.33 C806.32 854.43 806.32 856.53 806.32 858.63 C806.31 861.87 806.32 865.1 806.32 868.33 C806.32 870.36 806.32 872.4 806.32 874.44 C806.32 875.9 806.32 875.9 806.33 877.39 C806.32 878.28 806.32 879.18 806.32 880.1 C806.32 881.29 806.32 881.29 806.31 882.5 C806.19 884.31 806.19 884.31 805.19 885.31 C804.88 886.68 804.62 888.06 804.38 889.44 C801.7 902.96 797.89 914.29 791.19 926.31 C790.82 926.97 790.45 927.63 790.07 928.32 C785.51 936.4 780.72 944.65 774.19 951.31 C773.53 951.31 772.87 951.31 772.19 951.31 C771.98 951.85 771.78 952.38 771.56 952.94 C769.65 956.23 767.14 958.91 764.19 961.31 C763.53 961.31 762.87 961.31 762.19 961.31 C761.86 962.3 761.53 963.29 761.19 964.31 C760.53 964.31 759.87 964.31 759.19 964.31 C759.19 964.97 759.19 965.63 759.19 966.31 C756.55 968.6 753.58 970.48 750.69 972.44 C749.4 973.31 749.4 973.31 748.09 974.21 C740.43 979.32 732.55 983.48 724.19 987.31 C723.36 987.72 722.54 988.12 721.69 988.54 C716.17 991.19 710.42 992.76 704.53 994.38 C701.88 995.12 699.29 995.91 696.69 996.81 C690.6 998.9 684.38 1000.58 678.19 1002.31 C678.15 1003.17 678.11 1004.03 678.07 1004.92 C677.48 1015.58 676.4 1026.08 671.15 1035.56 C670.02 1037.54 670.02 1037.54 668.81 1040.69 C666.68 1045.44 664.24 1050.08 661.19 1054.31 C660.53 1054.31 659.87 1054.31 659.19 1054.31 C658.98 1054.99 658.78 1055.67 658.56 1056.38 C654.96 1064.07 648.06 1069.56 641.19 1074.31 C640.53 1074.31 639.87 1074.31 639.19 1074.31 C639.19 1074.97 639.19 1075.63 639.19 1076.31 C636.28 1078.35 634.79 1079.31 631.19 1079.31 C631.19 1079.97 631.19 1080.63 631.19 1081.31 C625.22 1083.72 619.24 1086.12 613.19 1088.31 C612.46 1088.58 611.73 1088.85 610.97 1089.13 C607.29 1090.43 603.83 1091.46 599.94 1091.88 C596.53 1092.27 594.29 1092.96 591.19 1094.31 C587.47 1095.5 583.93 1096.4 580.06 1096.81 C576.62 1097.26 574.32 1097.95 571.19 1099.31 C567.47 1100.5 563.93 1101.4 560.06 1101.81 C556.62 1102.26 554.32 1102.95 551.19 1104.31 C547.47 1105.5 543.93 1106.4 540.06 1106.81 C536.62 1107.26 534.32 1107.95 531.19 1109.31 C527.47 1110.5 523.93 1111.4 520.06 1111.81 C516.39 1112.12 516.39 1112.12 513.93 1113.22 C510.52 1114.58 507.05 1115.45 503.5 1116.31 C502.8 1116.49 502.09 1116.66 501.37 1116.84 C496.57 1118.01 491.77 1119.05 486.91 1119.92 C485.17 1120.16 485.17 1120.16 484.19 1121.31 C482.89 1121.67 481.57 1121.97 480.25 1122.25 C479.45 1122.42 478.64 1122.6 477.82 1122.77 C474.27 1123.5 470.72 1124.18 467.16 1124.85 C465.2 1125.13 465.2 1125.13 464.19 1126.31 C462.08 1126.79 459.97 1127.26 457.85 1127.71 C455.1 1128.33 452.4 1129.06 449.69 1129.81 C445.64 1130.94 441.6 1131.9 437.5 1132.78 C434.87 1133.38 432.28 1134.09 429.69 1134.81 C425.64 1135.94 421.6 1136.9 417.5 1137.78 C414.87 1138.38 412.28 1139.09 409.69 1139.81 C405.64 1140.94 401.6 1141.9 397.5 1142.78 C394.87 1143.38 392.28 1144.09 389.69 1144.81 C385.64 1145.94 381.6 1146.9 377.5 1147.78 C374.87 1148.38 372.28 1149.09 369.69 1149.81 C365.64 1150.94 361.6 1151.9 357.5 1152.78 C354.87 1153.38 352.28 1154.09 349.69 1154.81 C345.53 1155.97 341.38 1156.98 337.16 1157.88 C335.83 1158.17 334.51 1158.49 333.2 1158.85 C327.05 1160.27 321.57 1159.74 316.05 1156.66 C312.32 1153.96 309.25 1150.44 307.19 1146.31 C305.19 1146.27 303.19 1146.27 301.19 1146.31 C300.86 1146.64 300.53 1146.97 300.19 1147.31 C298.67 1147.38 297.15 1147.4 295.62 1147.38 C294.8 1147.37 293.97 1147.36 293.12 1147.35 C292.48 1147.34 291.84 1147.32 291.19 1147.31 C290.86 1148.3 290.53 1149.29 290.19 1150.31 C289.55 1150.37 288.91 1150.43 288.25 1150.5 C287.43 1150.58 286.6 1150.66 285.75 1150.75 C284.93 1150.83 284.1 1150.91 283.25 1151 C281.2 1151.1 281.2 1151.1 280.19 1152.31 C277.52 1152.31 274.85 1152.31 272.19 1152.31 C271.86 1152.64 271.53 1152.97 271.19 1153.31 C273.17 1153.31 275.15 1153.31 277.19 1153.31 C276.2 1153.64 275.21 1153.97 274.19 1154.31 C274.34 1155.74 274.34 1155.74 274.5 1157.19 C274.48 1162.45 272.25 1167.12 269.19 1171.31 C264.52 1175.6 259.51 1177.55 253.44 1179.06 C252.61 1179.27 251.79 1179.48 250.94 1179.7 C242.06 1181.8 233.29 1182.34 224.19 1182.31 C223.48 1182.32 222.78 1182.32 222.06 1182.32 C202.05 1182.24 183.22 1174.44 168.19 1161.31 C167.31 1160.55 166.43 1159.8 165.53 1159.02 C157.64 1152.07 157.64 1152.07 155.19 1148.31 C155.19 1147.65 155.19 1146.99 155.19 1146.31 C154.53 1146.31 153.87 1146.31 153.19 1146.31 C145.49 1135.62 140.61 1123.81 136.35 1111.43 C135.1 1107.81 133.81 1104.28 132.19 1100.81 C129.27 1094.56 127.19 1087.97 124.93 1081.46 C121.57 1071.78 118.02 1062.22 114.13 1052.74 C113.19 1050.31 113.19 1050.31 112.25 1047 C111.49 1044.35 110.67 1041.87 109.69 1039.31 C108.3 1035.7 107.25 1032.04 106.19 1028.31 C105.7 1026.97 105.2 1025.64 104.69 1024.31 C103.3 1020.7 102.23 1017.04 101.19 1013.31 C100.69 1011.81 100.19 1010.31 99.69 1008.81 C98.4 1005.01 97.29 1001.17 96.19 997.31 C95.69 995.83 95.19 994.35 94.69 992.88 C93.51 989.39 92.57 985.92 91.72 982.34 C90.96 979.43 89.97 976.61 88.97 973.78 C88.1 971.04 87.42 968.28 86.73 965.49 C85.81 961.79 84.78 958.11 83.75 954.44 C83.53 953.65 83.31 952.86 83.09 952.05 C81.93 947.89 80.72 943.75 79.44 939.62 C78.29 935.88 77.72 932.2 77.19 928.31 C76.89 927.58 76.59 926.85 76.28 926.09 C74.94 922.69 74.1 919.23 73.25 915.69 C72.09 910.92 70.89 906.17 69.56 901.44 C68.41 897.29 67.52 893.14 66.72 888.91 C66.13 886.02 65.42 883.17 64.69 880.31 C63.55 875.85 62.59 871.4 61.72 866.88 C61.12 863.97 60.38 861.12 59.62 858.25 C58.52 853.92 57.83 849.77 57.43 845.32 C57.05 842.21 56.1 839.31 55.19 836.31 C53.88 831.24 52.92 826.59 53.19 821.31 C36.94 816.85 36.94 816.85 20.62 812.69 C15.86 811.51 11.26 810.21 6.75 808.25 C3.59 807.1 0.51 806.78 -2.81 806.31 C-4.82 805.66 -6.82 804.99 -8.81 804.31 C-11.81 803.54 -14.81 802.81 -17.81 802.09 C-19.74 801.59 -21.66 801.03 -23.55 800.39 C-28.01 798.92 -32.53 797.72 -37.06 796.5 C-39.04 795.96 -41.02 795.43 -43 794.89 C-43.98 794.62 -44.96 794.36 -45.98 794.08 C-50.01 792.99 -54.04 791.87 -58.06 790.75 C-59.14 790.45 -59.14 790.45 -60.24 790.14 C-64.03 789.09 -67.82 788.03 -71.61 786.96 C-72.41 786.74 -73.21 786.51 -74.03 786.28 C-75.53 785.86 -77.04 785.44 -78.54 785.01 C-82.19 783.99 -85.85 783.07 -89.56 782.26 C-92.56 781.61 -95.43 780.87 -98.31 779.81 C-101.3 778.78 -104.22 777.96 -107.31 777.31 C-110.4 776.67 -113.33 775.85 -116.31 774.81 C-120.06 773.51 -123.8 772.6 -127.68 771.78 C-131.57 770.93 -135.38 769.92 -139.05 768.37 C-142.39 767.09 -145.78 766.26 -149.25 765.44 C-155.5 763.91 -161.69 762.24 -167.87 760.44 C-172.75 759.03 -177.66 757.71 -182.56 756.38 C-190.2 754.3 -197.83 752.2 -205.45 750.07 C-208.99 749.09 -212.53 748.12 -216.09 747.18 C-216.77 747 -217.45 746.83 -218.15 746.64 C-219.99 746.16 -221.83 745.68 -223.68 745.21 C-226.49 744.4 -229.1 743.4 -231.81 742.31 C-232.88 742.17 -233.96 742.02 -235.06 741.88 C-238.78 741.32 -241.95 740.31 -245.48 739.07 C-248.54 738.08 -251.63 737.43 -254.77 736.77 C-257.52 736.15 -260.14 735.2 -262.81 734.31 C-264.75 733.85 -266.69 733.39 -268.62 732.94 C-273.22 731.81 -277.34 730.38 -281.6 728.34 C-283.99 727.23 -286.41 726.31 -288.88 725.38 C-293.46 723.56 -297.98 721.46 -301.81 718.31 C-301.81 717.65 -301.81 716.99 -301.81 716.31 C-302.8 716.31 -303.79 716.31 -304.81 716.31 C-304.81 715.65 -304.81 714.99 -304.81 714.31 C-306.13 713.98 -307.45 713.65 -308.81 713.31 C-308.81 712.65 -308.81 711.99 -308.81 711.31 C-309.41 711.04 -310 710.77 -310.61 710.5 C-318.18 706.43 -323.04 698.17 -327.81 691.31 C-328.56 690.3 -329.3 689.29 -330.06 688.25 C-332.52 684.13 -334.11 679.79 -335.81 675.31 C-336.83 672.85 -337.85 670.39 -338.88 667.93 C-341.57 660.36 -342.16 653.46 -342.29 645.5 C-342.36 643.43 -342.58 641.37 -342.81 639.31 C-345.98 637.2 -348.4 636.48 -352.06 635.5 C-363.21 632.4 -374.12 628.76 -384.81 624.31 C-385.78 623.93 -386.74 623.55 -387.74 623.16 C-394.54 620.45 -400.65 617.26 -406.81 613.31 C-407.78 612.71 -408.74 612.1 -409.74 611.48 C-419.15 605.56 -419.15 605.56 -421.81 603.31 C-421.81 602.65 -421.81 601.99 -421.81 601.31 C-422.39 601.04 -422.97 600.78 -423.56 600.5 C-425.87 599.28 -427.83 598.01 -429.81 596.31 C-429.81 595.65 -429.81 594.99 -429.81 594.31 C-430.45 594.04 -431.09 593.78 -431.75 593.5 C-433.81 592.31 -433.81 592.31 -434.81 589.31 C-435.47 589.31 -436.13 589.31 -436.81 589.31 C-441.81 583.84 -441.81 583.84 -441.81 581.31 C-442.47 581.31 -443.13 581.31 -443.81 581.31 C-445.31 579.43 -446.66 577.56 -448 575.56 C-448.4 574.97 -448.8 574.39 -449.21 573.78 C-457.58 561.32 -463.9 548.48 -468.81 534.31 C-469.1 533.53 -469.39 532.75 -469.69 531.94 C-471.36 527.29 -472.24 522.99 -472.6 518.06 C-472.63 516.29 -472.63 516.29 -473.81 515.31 C-473.91 513.88 -473.94 512.44 -473.94 511.01 C-473.95 510.09 -473.95 509.18 -473.95 508.24 C-473.95 507.24 -473.95 506.25 -473.95 505.22 C-473.95 504.21 -473.95 503.19 -473.95 502.15 C-473.95 500 -473.95 497.84 -473.94 495.69 C-473.94 492.39 -473.94 489.09 -473.95 485.79 C-473.95 483.71 -473.95 481.62 -473.95 479.54 C-473.95 478.54 -473.95 477.55 -473.95 476.53 C-473.95 475.61 -473.95 474.69 -473.94 473.75 C-473.94 472.94 -473.94 472.13 -473.94 471.29 C-473.81 469.31 -473.81 469.31 -472.81 467.31 C-472.71 466.08 -472.61 464.84 -472.5 463.56 C-471.96 458.19 -470.4 453.24 -468.86 448.09 C-467.45 443 -466.47 437.88 -465.52 432.69 C-464.84 429.45 -463.88 426.44 -462.81 423.31 C-462.45 421.72 -462.11 420.11 -461.81 418.5 C-461.15 415.08 -460.48 411.66 -459.75 408.25 C-459.59 407.52 -459.44 406.78 -459.28 406.03 C-458.81 404.31 -458.81 404.31 -457.81 403.31 C-457.15 400.23 -456.57 397.14 -456.01 394.04 C-455.29 390.23 -454.26 386.88 -452.81 383.31 C-452.27 380.99 -451.78 378.65 -451.31 376.31 C-450.47 372.07 -449.43 368.31 -447.81 364.31 C-447.18 361.93 -446.58 359.53 -446 357.12 C-441.67 339.37 -436.79 321.59 -430.81 304.31 C-429.4 300.14 -428 295.99 -426.81 291.75 C-422.78 277.87 -422.78 277.87 -417.02 274.16 C-412.7 271.82 -408.77 270.61 -403.81 270.31 C-403.15 270.64 -402.49 270.97 -401.81 271.31 C-401.52 270.03 -401.24 268.75 -400.94 267.44 C-400.27 264.49 -400.01 263.51 -397.81 261.31 C-397.35 259.37 -396.89 257.43 -396.45 255.49 C-395.45 252.07 -393.7 249.33 -391.81 246.31 C-392.47 245.98 -393.13 245.65 -393.81 245.31 C-393.15 245.31 -392.49 245.31 -391.81 245.31 C-391.11 242.16 -390.81 239.59 -390.81 236.31 C-392.09 234.61 -393.43 232.94 -394.81 231.31 C-397.67 226.57 -397.56 221.69 -396.81 216.31 C-395.47 213.06 -393.81 210.2 -391.81 207.31 C-391.15 207.31 -390.49 207.31 -389.81 207.31 C-389.48 205.99 -389.15 204.67 -388.81 203.31 C-388.15 203.31 -387.49 203.31 -386.81 203.31 C-386.59 202.76 -386.36 202.2 -386.12 201.62 C-384.44 198.65 -382.28 196.67 -379.81 194.31 C-378.97 193.47 -378.12 192.62 -377.25 191.75 C-376.45 190.95 -375.64 190.14 -374.81 189.31 C-374.09 188.55 -373.37 187.79 -372.62 187 C-370.81 185.31 -370.81 185.31 -368.81 185.31 C-368.81 184.65 -368.81 183.99 -368.81 183.31 C-366.51 181.37 -366.51 181.37 -363.5 179.19 C-362.02 178.1 -362.02 178.1 -360.51 176.99 C-357.81 175.31 -357.81 175.31 -354.81 175.31 C-354.81 174.65 -354.81 173.99 -354.81 173.31 C-347.53 168.93 -340.51 164.87 -332.41 162.18 C-328.94 161.02 -325.58 159.63 -322.2 158.24 C-308.71 152.99 -295.2 151.81 -280.88 151.92 C-278.38 151.94 -275.89 151.92 -273.39 151.9 C-257.17 151.88 -242.4 154.99 -226.81 159.31 C-221.34 160.74 -216.48 161.55 -210.81 161.31 C-210.15 159.99 -209.49 158.67 -208.81 157.31 C-208.15 157.31 -207.49 157.31 -206.81 157.31 C-206.69 156.71 -206.56 156.12 -206.44 155.5 C-205.81 153.31 -205.81 153.31 -203.81 150.31 C-203.15 150.31 -202.49 150.31 -201.81 150.31 C-201.5 149.69 -201.19 149.07 -200.88 148.44 C-200.19 147.06 -199.5 145.69 -198.81 144.31 C-199.27 142.5 -199.27 142.5 -200.06 140.38 C-206.41 120.22 -207.88 94.93 -198.77 75.38 C-197.8 73.29 -197.19 71.27 -196.56 69.06 C-194.42 62.33 -190.42 56.34 -186.81 50.31 C-186.15 50.31 -185.49 50.31 -184.81 50.31 C-184.56 49.59 -184.32 48.87 -184.06 48.12 C-182.69 45.04 -181.09 42.8 -178.81 40.31 C-178.15 40.31 -177.49 40.31 -176.81 40.31 C-176.54 39.67 -176.28 39.03 -176 38.38 C-174.81 36.31 -174.81 36.31 -171.81 35.31 C-171.81 34.65 -171.81 33.99 -171.81 33.31 C-162.21 24.08 -150.04 17.37 -137.81 12.31 C-136.98 11.96 -136.14 11.61 -135.29 11.25 C-132.94 10.36 -130.7 9.76 -128.25 9.25 C-125.09 8.59 -125.09 8.59 -121.97 7.81 C-101.1 3.04 -76.62 6.28 -57.81 16.31 C-53.69 18.37 -51.31 18.36 -46.81 17.31 C-46.81 16.65 -46.81 15.99 -46.81 15.31 C-41.11 10.63 -34.54 7.57 -27.69 5 C-27.04 4.76 -26.4 4.52 -25.74 4.27 C-17.16 1.19 -9.11 -0.05 0 0 Z M-285.81 287.31 C-287.35 289.98 -287.35 289.98 -288.38 293.12 C-289 294.87 -289 294.87 -289.63 296.66 C-291.13 301.28 -292.48 305.93 -293.78 310.62 C-294.91 314.67 -296.12 318.68 -297.38 322.69 C-297.59 323.38 -297.8 324.06 -298.03 324.77 C-299.04 328 -300.1 331.18 -301.38 334.31 C-303.15 338.81 -304.18 343.54 -305.28 348.24 C-306.31 352.58 -307.59 356.78 -309.04 361.01 C-310.34 364.89 -311.51 368.82 -312.69 372.75 C-312.95 373.61 -313.2 374.48 -313.47 375.37 C-317.29 388.21 -320.83 401.07 -323.84 414.12 C-324.84 418.44 -325.88 422.75 -326.94 427.06 C-327.41 428.97 -327.41 428.97 -327.88 430.92 C-328.81 434.31 -328.81 434.31 -329.84 436.8 C-331.1 440.06 -331.68 443.31 -332.31 446.75 C-333.18 451.44 -334.29 455.8 -335.81 460.31 C-336.07 462.31 -336.32 464.3 -336.54 466.3 C-337.09 470.36 -338.37 474.2 -339.88 478 C-341.8 484.82 -342.93 491.77 -339.81 498.31 C-339.15 498.31 -338.49 498.31 -337.81 498.31 C-337.81 498.97 -337.81 499.63 -337.81 500.31 C-335.57 501.18 -333.32 502.03 -331.06 502.88 C-330.43 503.12 -329.79 503.37 -329.14 503.62 C-325.7 504.89 -323.29 505.78 -319.81 504.31 C-319.68 503.54 -319.55 502.77 -319.41 501.98 C-319.23 500.97 -319.06 499.97 -318.88 498.94 C-318.61 497.44 -318.61 497.44 -318.35 495.91 C-317.81 493.31 -317.81 493.31 -316.81 491.31 C-316.71 490.08 -316.61 488.84 -316.5 487.56 C-315.96 482.19 -314.4 477.24 -312.86 472.09 C-311.45 467 -310.47 461.88 -309.52 456.69 C-308.84 453.44 -307.87 450.45 -306.81 447.31 C-306.28 444.99 -305.78 442.65 -305.31 440.31 C-304.62 436.9 -303.92 433.62 -302.81 430.32 C-301.32 425.85 -300.52 421.27 -299.59 416.65 C-298.81 413.31 -298.81 413.31 -297.84 410.89 C-296.44 407.37 -295.69 403.76 -294.88 400.06 C-293.69 394.84 -292.4 389.79 -290.59 384.75 C-289.49 381.31 -288.66 377.82 -287.81 374.31 C-286.62 369.41 -285.34 364.61 -283.66 359.85 C-282.2 355.48 -280.96 351.04 -279.7 346.6 C-278.71 343.18 -277.66 339.83 -276.38 336.51 C-274.02 330.37 -272.28 324.02 -270.42 317.71 C-268.83 312.4 -267.09 307.36 -264.81 302.31 C-262.02 295.5 -262.02 295.5 -261.81 288.31 C-268.7 283.72 -278.97 282.25 -285.81 287.31 Z M609.19 666.31 C608.71 671.86 609.87 675.62 612.12 680.69 C613.4 683.84 614.28 687.03 615.19 690.31 C615.75 692.23 616.32 694.14 616.89 696.06 C619.55 705.02 622.08 714.02 624.56 723.04 C625.19 725.31 625.83 727.58 626.47 729.85 C628.76 737.95 630.87 746.05 632.73 754.25 C634 759.74 635.61 765.09 637.32 770.46 C638.29 773.64 639.03 776.8 639.7 780.05 C640.25 782.59 640.9 785.1 641.56 787.62 C642.94 793.07 644.05 798.55 645.12 804.06 C646.85 812.9 648.95 821.59 651.19 830.31 C652.48 835.54 653.43 840.6 653.84 845.98 C654.16 848.49 654.16 848.49 655.12 851.53 C656.31 855.74 657.09 859.93 657.81 864.25 C658.01 865.42 658.01 865.42 658.22 866.61 C658.55 868.51 658.87 870.41 659.19 872.31 C665.88 872.5 670.25 870.72 676.19 867.88 C679.54 863.59 678.82 858.54 678.19 853.31 C677.53 851.31 676.86 849.31 676.19 847.31 C675.6 844.51 675.14 841.7 674.69 838.88 C673.83 833.55 672.69 828.5 671.19 823.31 C670.7 820.8 670.25 818.28 669.81 815.75 C668.64 809.17 667.01 802.83 665.09 796.42 C664.14 793.16 663.38 789.91 662.68 786.59 C662.08 783.81 661.38 781.07 660.69 778.31 C659.83 774.92 659 771.54 658.25 768.12 C655.92 757.52 653.51 747.05 650.19 736.7 C649 732.69 648.05 728.64 647.12 724.56 C645.98 719.52 644.72 714.62 642.97 709.75 C641.87 706.31 641.04 702.82 640.19 699.31 C638.97 694.33 637.69 689.43 635.96 684.6 C635.34 682.77 634.79 680.92 634.25 679.06 C633.92 677.9 633.59 676.75 633.25 675.56 C632.95 674.5 632.65 673.43 632.35 672.33 C631.05 668.96 629.78 666.82 627.19 664.31 C621.17 662.99 614.91 664.28 609.19 666.31 Z " fill="#000100" transform="translate(473.8125,61.6875)"/>
<path d="M0 0 C3.41 2.9 6.24 6 8.94 9.56 C6.59 11.91 5.17 12.2 1.98 13.04 C0.98 13.32 -0.03 13.59 -1.06 13.87 C-2.13 14.16 -3.21 14.45 -4.31 14.75 C-18.72 18.83 -30.46 23.57 -41.06 34.56 C-41.56 35.08 -42.06 35.59 -42.57 36.12 C-53.1 47.88 -58.75 64.3 -58.32 80.02 C-56.59 97.32 -50.79 113.2 -37.06 124.56 C-21.71 135.77 -5.1 142.06 14.02 139.26 C21.38 137.92 28.59 135.95 35.8 133.93 C36.79 133.65 37.78 133.37 38.79 133.09 C40.73 132.54 42.66 131.98 44.59 131.41 C45.47 131.15 46.36 130.9 47.27 130.64 C48.05 130.41 48.83 130.17 49.64 129.94 C52.32 129.5 54.32 129.89 56.94 130.56 C63.51 150.67 69.4 170.95 75.12 191.31 C75.46 192.5 75.8 193.69 76.14 194.91 C83.27 220.19 89.65 245.62 95.38 271.25 C95.61 272.27 95.84 273.3 96.07 274.36 C99.47 289.53 102.66 304.74 105.62 320 C105.8 320.89 105.97 321.78 106.15 322.69 C106.63 325.17 107.1 327.64 107.57 330.12 C107.71 330.85 107.85 331.58 108 332.34 C108.94 337.32 108.94 337.32 108.94 339.56 C102.22 341.64 95.5 343.46 88.64 344.99 C87.52 345.24 86.4 345.49 85.24 345.75 C83.01 346.24 80.77 346.72 78.53 347.19 C60.56 351.15 44.81 359.44 34.62 375.31 C26.08 390.63 23.21 408.74 27 425.94 C32.45 443.93 42.88 455.35 58.94 464.56 C75.83 473.45 91.71 472.09 109.7 468.25 C111.37 467.91 111.37 467.91 113.08 467.56 C114.08 467.34 115.09 467.13 116.13 466.91 C119.02 466.55 121.13 466.82 123.94 467.56 C122.26 475.98 119.26 481.87 113.94 488.56 C113.46 489.2 112.99 489.84 112.5 490.5 C99.57 506.99 76.31 509.68 57.2 514.36 C53.65 515.24 50.11 516.12 46.56 517 C32.95 520.37 19.33 523.71 5.72 527.05 C0.41 528.35 -4.89 529.65 -10.19 530.95 C-11.53 531.28 -12.86 531.6 -14.2 531.93 C-37.48 537.63 -60.69 543.55 -83.89 549.56 C-101.03 554 -118.19 558.37 -135.39 562.6 C-136.24 562.8 -137.08 563.01 -137.94 563.22 C-146.14 565.24 -154.35 567.25 -162.55 569.25 C-165.56 569.98 -168.56 570.71 -171.56 571.45 C-173.61 571.95 -175.65 572.44 -177.7 572.94 C-191.71 575.79 -191.71 575.79 -202.75 584.02 C-205.26 588.88 -205.12 594.19 -205.06 599.56 C-211 602.15 -215.6 602.97 -222.06 602.56 C-222.39 603.55 -222.72 604.54 -223.06 605.56 C-223.7 605.62 -224.34 605.68 -225 605.75 C-225.82 605.83 -226.65 605.91 -227.5 606 C-228.32 606.08 -229.15 606.16 -230 606.25 C-232.05 606.35 -232.05 606.35 -233.06 607.56 C-238.11 608.33 -238.11 608.33 -241.06 607.56 C-243.61 605.22 -245.44 602.61 -247.06 599.56 C-247.06 598.9 -247.06 598.24 -247.06 597.56 C-248.41 597.05 -249.77 596.55 -251.12 596.06 C-251.88 595.78 -252.63 595.51 -253.41 595.22 C-260.78 593.39 -267.68 595.43 -274.86 597.14 C-287.75 600.06 -300.99 598.49 -312.69 592.07 C-326.07 583.56 -334.35 573.19 -339.77 558.42 C-340.3 556.98 -340.84 555.55 -341.37 554.11 C-341.79 552.99 -341.79 552.99 -342.21 551.85 C-343.33 548.83 -344.48 545.83 -345.63 542.82 C-353.63 521.86 -361.18 500.81 -368.13 479.48 C-369.45 475.43 -370.79 471.39 -372.16 467.36 C-381.62 439.54 -390.22 411.41 -397.46 382.94 C-398.13 380.3 -398.81 377.67 -399.49 375.03 C-418.1 302.75 -432.29 229.7 -441.56 155.62 C-441.72 154.37 -441.88 153.12 -442.05 151.83 C-444.31 132.74 -443.27 114.58 -430.99 98.92 C-422.6 90.07 -412.99 84.9 -401.23 82.09 C-400.11 81.81 -398.99 81.52 -397.83 81.23 C-395.45 80.63 -393.07 80.04 -390.69 79.45 C-387.12 78.58 -383.55 77.68 -379.99 76.77 C-373.15 75.03 -366.3 73.32 -359.44 71.62 C-355.98 70.76 -352.51 69.9 -349.04 69.03 C-343.98 67.77 -338.92 66.51 -333.85 65.25 C-324.87 63.01 -315.89 60.77 -306.91 58.53 C-306.26 58.36 -305.6 58.2 -304.93 58.03 C-301.63 57.21 -298.33 56.38 -295.03 55.55 C-288.35 53.88 -281.68 52.22 -275 50.55 C-274.01 50.3 -274.01 50.3 -273 50.05 C-264.48 47.92 -255.97 45.79 -247.45 43.67 C-240.97 42.05 -234.48 40.43 -228 38.81 C-226.72 38.49 -225.44 38.17 -224.12 37.84 C-207.43 33.68 -190.75 29.48 -174.07 25.25 C-173.18 25.02 -172.29 24.8 -171.37 24.56 C-162.54 22.33 -153.72 20.09 -144.9 17.85 C-141.63 17.02 -138.35 16.19 -135.07 15.35 C-133.56 14.97 -132.05 14.59 -130.54 14.2 C-122.01 12.03 -113.46 9.92 -104.88 7.94 C-100.54 6.93 -96.24 5.83 -91.94 4.67 C-82.68 2.16 -73.36 -0.11 -64.03 -2.38 C-60.97 -3.13 -57.91 -3.88 -54.85 -4.63 C-52.89 -5.11 -50.93 -5.59 -48.96 -6.07 C-47.61 -6.41 -47.61 -6.41 -46.22 -6.75 C-30.11 -10.67 -13.86 -10.35 0 0 Z " fill="#F2E065" transform="translate(987.0625,606.4375)"/>
<path d="M0 0 C6.49 -0.37 12.39 0.8 18.64 2.33 C19.55 2.55 20.46 2.77 21.4 2.99 C32.47 5.72 43.44 8.81 54.41 11.9 C58.31 13 62.22 14.09 66.13 15.19 C67.49 15.57 68.85 15.95 70.21 16.33 C70.89 16.52 71.58 16.71 72.28 16.91 C74.37 17.5 76.46 18.08 78.55 18.67 C93.21 22.78 107.89 26.85 122.56 30.91 C126.07 31.88 129.58 32.86 133.09 33.83 C150.74 38.72 150.74 38.72 168.43 43.47 C173.41 44.8 178.37 46.2 183.34 47.59 C186.36 48.44 189.39 49.29 192.41 50.14 C194.61 50.76 196.81 51.38 199.01 52 C216.3 56.87 233.62 61.6 250.96 66.28 C266.32 70.43 281.67 74.59 296.99 78.91 C303.92 80.86 310.87 82.74 317.84 84.59 C329 87.57 340.11 90.73 351.21 93.93 C362.18 97.08 373.17 100.14 384.21 103.04 C403.69 108.19 417.58 115.62 428.74 133.3 C429.8 135.26 430.65 137.21 431.46 139.28 C431.76 140.01 432.06 140.74 432.36 141.48 C438.29 158.85 433.67 179.33 430.77 196.84 C430.4 199.14 430.03 201.44 429.67 203.74 C428.78 209.28 427.87 214.81 426.95 220.34 C426.51 223.01 426.07 225.69 425.64 228.37 C424.99 232.38 424.33 236.4 423.65 240.41 C423.47 241.52 423.28 242.64 423.1 243.79 C422.92 244.78 422.75 245.77 422.57 246.79 C422.42 247.62 422.28 248.45 422.13 249.31 C421.46 251.28 421.46 251.28 418.46 253.28 C416.54 253.78 416.54 253.78 414.36 254.14 C413.54 254.28 412.73 254.43 411.9 254.57 C411.03 254.72 410.17 254.88 409.27 255.03 C387.19 259.21 366.54 269.12 352.46 287.28 C352.13 287.94 351.8 288.6 351.46 289.28 C347.3 288.94 344.15 287.72 340.46 285.91 C323.05 277.83 303.39 278.29 285.46 284.28 C265.02 291.93 252.07 306.19 242.84 325.47 C241.46 328.28 241.46 328.28 240.46 329.28 C238.59 329.48 236.71 329.67 234.84 329.82 C213.8 331.65 194.94 338.93 178.46 352.28 C177.68 352.89 176.91 353.51 176.11 354.14 C156.71 370.3 147.01 394.72 144.46 419.28 C142.87 446.21 150.98 470.81 168.46 491.28 C169.4 491.95 169.4 491.95 170.36 492.62 C171.46 494.28 171.46 494.28 170.91 497.95 C170.53 499.46 170.13 500.97 169.71 502.47 C165.81 516.6 166.24 530.44 167.96 544.84 C168.14 546.41 168.31 547.98 168.49 549.55 C170.3 565.19 172.66 580.75 175.09 596.3 C175.24 597.27 175.38 598.23 175.54 599.23 C175.82 601.02 176.1 602.8 176.38 604.59 C177.45 611.46 178 618.34 178.46 625.28 C156.47 619.52 134.53 613.58 112.64 607.47 C108.77 606.39 104.9 605.31 101.03 604.23 C96.23 602.9 91.44 601.57 86.64 600.23 C70.5 595.73 54.36 591.25 38.21 586.78 C37.2 586.5 37.2 586.5 36.16 586.21 C16.13 580.66 -3.91 575.16 -23.97 569.7 C-24.82 569.47 -25.66 569.24 -26.53 569.01 C-27.36 568.78 -28.19 568.56 -29.05 568.32 C-39.94 565.36 -50.82 562.36 -61.7 559.36 C-63.34 558.92 -64.97 558.47 -66.6 558.02 C-67.41 557.79 -68.22 557.57 -69.05 557.34 C-75.11 555.67 -81.17 554.01 -87.23 552.36 C-95.61 550.07 -103.99 547.76 -112.36 545.44 C-114.92 544.73 -117.47 544.03 -120.03 543.33 C-139.5 538.03 -156.07 529.49 -166.54 511.28 C-172.07 498.57 -172.14 485.1 -170.23 471.59 C-170.05 470.31 -169.88 469.03 -169.7 467.72 C-159.34 393.66 -143.6 320.3 -123.54 248.28 C-123.28 247.34 -123.02 246.4 -122.75 245.44 C-110.23 200.53 -96.25 155.82 -79.54 112.28 C-78.97 110.77 -78.39 109.26 -77.82 107.75 C-68.59 83.39 -59.25 59.04 -48.54 35.28 C-48.14 34.39 -47.75 33.49 -47.34 32.57 C-39.86 16.69 -28.39 8.66 -12.54 2.28 C-8.36 0.94 -4.34 0.48 0 0 Z " fill="#F2E065" transform="translate(340.5390625,214.71875)"/>
<path d="M0 0 C0.08 0.87 0.17 1.75 0.26 2.65 C1.85 17.67 4.55 32.51 7.19 47.38 C7.32 48.1 7.45 48.83 7.58 49.58 C17.32 104.66 28.41 159.45 41.27 213.88 C41.98 216.91 42.68 219.94 43.39 222.97 C53.74 267.58 65.51 311.81 78.19 355.81 C78.39 356.53 78.6 357.25 78.81 357.99 C80.01 362.15 81.21 366.31 82.42 370.46 C82.96 372.32 83.5 374.18 84.03 376.03 C85.94 382.58 87.99 389.04 90.27 395.46 C91 398 91 398 91 402 C91.65 402.01 92.3 402.03 92.98 402.04 C99.2 402.38 102.63 403.21 107 408 C111.29 413.42 111.61 418.04 111.39 424.9 C110.72 430.19 108.85 433.31 104.88 436.94 C103 438 103 438 101 438 C101 438.66 101 439.32 101 440 C101.66 440 102.32 440 103 440 C103.27 440.83 103.55 441.66 103.83 442.51 C110.15 461.57 116.53 480.6 122.98 499.62 C123.74 501.87 124.51 504.13 125.27 506.38 C126.34 509.57 127.43 512.75 128.51 515.94 C128.83 516.9 129.15 517.86 129.49 518.84 C129.79 519.73 130.09 520.61 130.4 521.53 C130.66 522.3 130.93 523.07 131.19 523.86 C132 525.99 132.94 527.98 134 530 C133.39 530.12 132.77 530.24 132.14 530.37 C131.33 530.53 130.52 530.7 129.69 530.88 C128.89 531.04 128.09 531.2 127.26 531.37 C124.75 531.94 124.75 531.94 122 534 C118.63 534.56 118.63 534.56 115 534 C112.84 531.94 111.31 529.68 110 527 C110 526.34 110 525.68 110 525 C108.65 524.49 107.3 523.99 105.94 523.5 C105.18 523.22 104.43 522.94 103.65 522.66 C96.28 520.83 89.38 522.86 82.2 524.58 C69.31 527.5 56.07 525.92 44.37 519.51 C30.99 511 22.72 500.63 17.29 485.86 C16.76 484.42 16.23 482.99 15.69 481.55 C15.28 480.43 15.28 480.43 14.85 479.28 C13.73 476.27 12.58 473.26 11.43 470.26 C3.43 449.3 -4.12 428.25 -11.07 406.92 C-12.38 402.87 -13.73 398.83 -15.1 394.79 C-24.56 366.97 -33.16 338.85 -40.4 310.37 C-41.07 307.74 -41.75 305.1 -42.42 302.47 C-61.04 230.19 -75.23 157.14 -84.5 83.06 C-84.66 81.81 -84.82 80.56 -84.99 79.27 C-87.25 60.18 -86.21 42.02 -73.93 26.36 C-65.48 17.45 -55.84 12.31 -44 9.5 C-42.9 9.22 -41.79 8.94 -40.65 8.66 C-38.32 8.07 -35.98 7.49 -33.64 6.91 C-29.88 5.97 -26.15 4.98 -22.41 3.97 C-19.96 3.31 -17.51 2.66 -15.06 2 C-13.9 1.68 -12.74 1.37 -11.54 1.04 C-10.47 0.76 -9.39 0.48 -8.29 0.19 C-7.34 -0.07 -6.39 -0.32 -5.41 -0.58 C-3 -1 -3 -1 0 0 Z " fill="#F9C152" transform="translate(630,679)"/>
<path d="M0 0 C20.43 -1.15 42.98 8.69 62.46 14.28 C62.46 14.94 62.46 15.6 62.46 16.28 C63.45 16.61 64.44 16.94 65.46 17.28 C65.08 18.31 65.08 18.31 64.69 19.37 C36.96 94.47 11.15 170.2 -10.54 247.28 C-12.37 247.67 -12.37 247.67 -14.23 248.07 C-15.85 248.43 -17.48 248.78 -19.1 249.13 C-19.9 249.3 -20.7 249.47 -21.53 249.65 C-42.45 254.23 -60.9 265.8 -72.91 283.7 C-84.88 302.68 -88.5 325.71 -83.58 347.55 C-78.39 366.18 -68.65 382.33 -52 392.87 C-49.91 394.89 -49.85 396.4 -49.54 399.28 C-50.17 402.21 -50.17 402.21 -51.22 405.5 C-53.76 413.86 -55.7 422.31 -57.6 430.84 C-57.79 431.68 -57.98 432.52 -58.17 433.39 C-65.16 464.68 -71.7 496.09 -77.66 527.59 C-77.81 528.35 -77.95 529.11 -78.1 529.9 C-79.85 539.01 -79.85 539.01 -81.16 548.2 C-81.54 551.28 -81.54 551.28 -82.54 552.28 C-89.51 551.78 -96.07 549.95 -102.79 548.09 C-103.93 547.78 -105.07 547.47 -106.25 547.14 C-108.58 546.5 -110.9 545.85 -113.22 545.21 C-116.23 544.37 -119.25 543.55 -122.27 542.73 C-140.89 537.57 -156.61 528.55 -166.54 511.28 C-172.07 498.57 -172.14 485.1 -170.23 471.59 C-170.05 470.31 -169.88 469.03 -169.7 467.72 C-159.34 393.66 -143.6 320.3 -123.54 248.28 C-123.28 247.34 -123.02 246.4 -122.75 245.44 C-110.23 200.53 -96.25 155.82 -79.54 112.28 C-78.97 110.77 -78.39 109.26 -77.82 107.75 C-68.59 83.39 -59.25 59.04 -48.54 35.28 C-48.14 34.39 -47.75 33.49 -47.34 32.57 C-39.86 16.69 -28.39 8.66 -12.54 2.28 C-8.36 0.94 -4.34 0.48 0 0 Z " fill="#FAC252" transform="translate(340.5390625,214.71875)"/>
<path d="M0 0 C9.25 7.96 14.37 16.45 17.69 28.12 C19.57 34.54 21.84 37.35 27.31 41.12 C32.3 42.88 36.47 43.37 41.69 42.31 C45.12 40.57 48.24 38.55 51.44 36.41 C65.49 27.33 82.33 24.38 98.62 27.5 C111.2 30.45 120.74 35.15 129.7 44.41 C138.28 53.27 138.28 53.27 149.75 57 C155.83 56.68 161.54 53.98 167.11 51.72 C177.48 47.63 186.52 49.16 196.69 53.31 C205.76 58.44 212.02 66.67 215.69 76.31 C216.64 79.77 217.46 83.26 218.17 86.78 C219.5 92.98 221.8 94.99 226.84 98.53 C231.19 100.9 235.33 100.82 240.19 100.81 C249.27 101.04 257.03 102.42 265.69 105.31 C267.07 105.74 267.07 105.74 268.48 106.18 C282.66 111.13 294.14 124.12 300.69 137.31 C304.88 146.94 306.87 155.18 306.88 165.62 C306.89 166.43 306.9 167.23 306.91 168.06 C306.94 181.38 302.44 192.61 294.69 203.31 C290.53 202.78 288.36 200.49 285.31 197.75 C276.08 189.85 266.49 184.63 254.92 181.05 C253.97 180.75 253.01 180.45 252.03 180.14 C241.13 176.77 230.12 173.76 219.1 170.78 C215.17 169.71 211.24 168.64 207.31 167.57 C205.92 167.19 204.52 166.81 203.13 166.43 C202.43 166.24 201.73 166.05 201 165.85 C198.83 165.26 196.65 164.66 194.48 164.07 C177.09 159.34 159.72 154.56 142.35 149.78 C138.88 148.82 135.4 147.87 131.92 146.91 C103.51 139.1 75.11 131.25 46.72 123.38 C39.58 121.4 32.43 119.42 25.29 117.44 C23.26 116.88 21.23 116.31 19.2 115.75 C2.05 111 -15.11 106.26 -32.27 101.55 C-34.07 101.06 -35.86 100.57 -37.66 100.07 C-45.51 97.91 -53.37 95.76 -61.23 93.6 C-65.27 92.49 -69.32 91.38 -73.36 90.27 C-74.14 90.06 -74.92 89.85 -75.71 89.63 C-87.24 86.46 -98.74 83.23 -110.22 79.89 C-132.59 73.43 -153.92 70.37 -176.79 76.44 C-180.31 77.31 -180.31 77.31 -184.31 77.31 C-189.52 67.79 -187.05 56.32 -184.31 46.31 C-178.94 29.75 -168.47 16.42 -153.26 7.7 C-135.82 -0.49 -118.61 -1.53 -100.28 4.27 C-92.61 7.18 -86.14 11.54 -79.46 16.2 C-74.18 19.74 -69.51 19.94 -63.31 19.31 C-56.79 16.91 -53.73 12.3 -49.49 6.94 C-37.1 -7.99 -16.21 -8.26 0 0 Z " fill="#F0F4F7" transform="translate(494.3125,105.6875)"/>
<path d="M0 0 C4.52 3.12 8.16 6.8 11.44 11.19 C15.73 15.9 20.98 18.66 27.32 19.37 C31.88 18.91 34.97 17.37 38.94 15.19 C54.66 6.76 71.42 2.7 89.01 7.92 C105.42 13.86 118.04 24.23 126 40 C129.01 47 131.14 53.64 131.1 61.3 C131.09 62.28 131.09 63.25 131.09 64.26 C131.08 65.27 131.07 66.27 131.06 67.31 C131.06 68.34 131.05 69.37 131.05 70.42 C131.04 72.95 131.02 75.47 131 78 C127.11 79.3 124.47 78.24 120.69 77.12 C105.74 72.84 90.74 72.53 75.58 76.07 C74.6 76.29 73.63 76.51 72.62 76.73 C60.39 79.53 48.25 82.67 36.11 85.8 C29.83 87.42 23.54 89.02 17.26 90.62 C16.54 90.8 15.83 90.99 15.09 91.17 C0.08 95 -14.95 98.7 -30 102.39 C-53.55 108.15 -77.07 114.02 -100.56 120 C-101.3 120.19 -102.05 120.38 -102.81 120.57 C-104.31 120.95 -105.81 121.33 -107.31 121.72 C-111.03 122.66 -114.76 123.61 -118.49 124.56 C-119.22 124.75 -119.96 124.93 -120.71 125.12 C-136.55 129.15 -152.4 133.11 -168.25 137.06 C-192.95 143.22 -217.62 149.45 -242.29 155.72 C-244.96 156.4 -247.63 157.08 -250.31 157.76 C-252.23 158.25 -254.15 158.74 -256.07 159.23 C-262.04 160.75 -268.02 162.26 -274 163.74 C-275.1 164.01 -276.2 164.28 -277.33 164.56 C-279.35 165.06 -281.38 165.55 -283.4 166.05 C-298.72 169.83 -311.81 175.83 -323.79 186.24 C-326 188 -326 188 -328 188 C-328 187.34 -328 186.68 -328 186 C-328.99 186 -329.98 186 -331 186 C-339.15 169.35 -342.36 152.39 -336.4 134.35 C-330.26 119.64 -321.27 107.66 -307 100 C-304.37 99 -301.7 98.18 -299 97.38 C-298.3 97.16 -297.6 96.94 -296.88 96.72 C-290.82 94.87 -285.76 93.87 -279.41 94.08 C-278.15 94.1 -276.89 94.13 -275.59 94.16 C-272.96 94.22 -270.32 94.3 -267.68 94.39 C-259.84 94.69 -259.84 94.69 -252.77 91.8 C-247.64 86.62 -246.5 82.33 -245.25 75.38 C-243.15 65.03 -239.3 56.27 -230.23 50.21 C-219.53 44.39 -209.48 42.71 -197.76 46.06 C-192.15 47.97 -188.44 50.32 -184.62 54.94 C-180.13 60.25 -175.75 63.4 -168.78 64.51 C-163.85 64.77 -159.29 64.9 -155.19 61.88 C-151.22 57.75 -148.69 52.45 -145.95 47.46 C-137.12 31.77 -124.15 23.79 -107.18 18.9 C-102.74 17.82 -98.43 17.62 -93.88 17.62 C-93.05 17.62 -92.22 17.62 -91.37 17.62 C-84.79 17.73 -79.41 19.05 -73.16 21.09 C-67.05 22.85 -61.48 23.17 -55.69 20.44 C-51.48 16.62 -48.05 12.35 -44.56 7.88 C-32.86 -5.25 -15.5 -6.87 0 0 Z " fill="#F0F4F7" transform="translate(861,487)"/>
<path d="M0 0 C20.03 15.39 33.72 34.25 41.06 58.44 C41.37 59.46 41.37 59.46 41.69 60.49 C43.35 65.88 44.96 71.28 46.56 76.69 C46.81 77.51 47.05 78.33 47.3 79.18 C61.09 125.81 72.81 173.07 83.11 220.59 C83.71 223.35 84.32 226.11 84.93 228.87 C85.62 232.01 86.31 235.16 87 238.31 C87.24 239.38 87.47 240.44 87.71 241.54 C94.2 271.7 92.68 298.27 76.39 324.97 C73.39 329.44 70.02 333.57 66.56 337.69 C65.96 338.5 65.35 339.31 64.72 340.14 C41.99 366.94 0.69 373.66 -31.44 381.94 C-32.24 382.15 -33.05 382.35 -33.88 382.57 C-42.8 384.87 -51.74 387.03 -60.75 388.95 C-61.54 389.11 -62.32 389.28 -63.13 389.45 C-73.29 391.57 -80.36 391.68 -89.7 386.53 C-95 382.97 -98.45 379.1 -100.88 373.19 C-102.24 364.67 -101.7 357.55 -96.81 350.26 C-89.04 340.69 -78.49 339.05 -66.88 336.62 C-17.97 328.51 -17.97 328.51 24.56 306.69 C25.2 306.1 25.83 305.5 26.48 304.89 C36.87 294.13 39.09 282.23 38.89 267.95 C38.52 257.71 36.13 247.88 33.81 237.94 C33.31 235.71 32.81 233.48 32.31 231.25 C31.01 225.5 29.68 219.77 28.34 214.04 C27.59 210.81 26.85 207.59 26.11 204.36 C18.4 170.93 9.73 137.75 0.56 104.69 C0.28 103.66 -0 102.63 -0.29 101.58 C-1.86 95.91 -3.45 90.25 -5.08 84.6 C-5.56 82.95 -6.03 81.29 -6.49 79.63 C-10.69 64.58 -17.08 50.86 -30.74 42.23 C-47.16 33.12 -65.53 37.58 -82.88 41.25 C-83.72 41.43 -84.56 41.6 -85.43 41.78 C-104.43 45.74 -123.4 50.13 -141.9 56.02 C-150.94 58.89 -160.85 61.16 -169.88 57.06 C-171.09 56.31 -172.28 55.52 -173.44 54.69 C-174.06 54.27 -174.69 53.86 -175.33 53.44 C-181.14 49.13 -183.63 43.47 -184.82 36.43 C-185.21 29.38 -183.14 22.22 -178.85 16.61 C-170.13 8.13 -156.53 5.68 -145.12 2.75 C-143.8 2.4 -142.47 2.06 -141.14 1.71 C-138.48 1.02 -135.82 0.33 -133.15 -0.35 C-129.9 -1.19 -126.66 -2.05 -123.42 -2.91 C-82.83 -13.58 -37.77 -25.1 0 0 Z " fill="#F0F4F7" transform="translate(1150.4375,650.3125)"/>
<path d="M0 0 C13.65 -0.43 27.21 2.77 40.45 5.72 C41.4 5.93 42.35 6.14 43.33 6.36 C44.22 6.56 45.1 6.77 46.02 6.98 C46.8 7.16 47.59 7.34 48.39 7.52 C50.45 8.16 50.45 8.16 53.45 10.16 C52.84 14.92 51.47 19.12 49.69 23.54 C49.41 24.24 49.14 24.93 48.85 25.65 C47.98 27.86 47.09 30.07 46.2 32.29 C45.62 33.75 45.04 35.21 44.46 36.67 C41.21 44.87 37.88 53.03 34.45 61.16 C28.74 60.74 23.34 59.94 17.77 58.6 C3.31 55.43 -9.85 56.65 -22.86 63.91 C-35.94 72.43 -40.83 83.96 -45.15 98.55 C-46.41 102.79 -47.82 106.98 -49.24 111.17 C-67.81 165.86 -82.23 222.22 -95.15 278.49 C-95.59 280.4 -96.04 282.3 -96.48 284.21 C-99.95 299.58 -100.47 312.48 -93.02 326.88 C-89.5 332.33 -85.54 336.4 -80.17 340.04 C-79.55 340.46 -78.92 340.88 -78.28 341.32 C-71.41 345.7 -63.9 348.12 -56.14 350.47 C-54.71 350.92 -54.71 350.92 -53.25 351.37 C-52.39 351.62 -51.53 351.87 -50.65 352.13 C-47.98 353.44 -47.58 354.41 -46.55 357.16 C-46.6 359.44 -46.6 359.44 -47.04 361.96 C-47.2 362.9 -47.35 363.85 -47.51 364.83 C-47.7 365.85 -47.88 366.86 -48.07 367.91 C-48.24 368.96 -48.42 370.01 -48.61 371.09 C-49.18 374.45 -49.77 377.81 -50.36 381.16 C-50.75 383.42 -51.13 385.68 -51.52 387.94 C-52.23 392.08 -52.94 396.22 -53.67 400.36 C-53.81 401.2 -53.96 402.03 -54.11 402.88 C-54.52 405 -55 407.08 -55.55 409.16 C-76.36 404.86 -97.63 397.18 -114.55 384.16 C-115.89 383.14 -115.89 383.14 -117.25 382.11 C-127.66 373.93 -135.98 364.66 -142.55 353.16 C-142.99 352.41 -143.42 351.65 -143.88 350.88 C-156.17 328.15 -158.41 302.77 -152.98 277.81 C-152.71 276.56 -152.45 275.3 -152.17 274.01 C-149.28 260.51 -145.99 247.11 -142.62 233.73 C-142.1 231.68 -141.58 229.63 -141.07 227.58 C-133.13 195.96 -124.93 164.34 -115.16 133.23 C-114.9 132.39 -114.64 131.55 -114.37 130.68 C-113.17 126.87 -111.95 123.06 -110.69 119.26 C-108.08 111.22 -105.41 102.39 -108.27 94.05 C-110.66 89.51 -114.3 85.8 -118.42 82.79 C-119.55 81.16 -119.55 81.16 -119.36 77.6 C-118.55 74.16 -118.55 74.16 -116.55 72.16 C-116.09 70.22 -115.63 68.28 -115.19 66.34 C-114.18 62.91 -112.43 60.18 -110.55 57.16 C-111.54 56.67 -111.54 56.67 -112.55 56.16 C-111.89 56.16 -111.23 56.16 -110.55 56.16 C-110.42 55.38 -110.3 54.59 -110.17 53.79 C-109.55 51.16 -109.55 51.16 -107.55 49.16 C-103.8 49.11 -100.11 49.22 -96.38 49.41 C-90.87 49.57 -87.91 48.84 -83.55 45.16 C-81.67 43.35 -81.67 43.35 -80.11 41.41 C-79.52 40.71 -78.92 40.01 -78.31 39.29 C-77.19 37.94 -76.08 36.58 -74.97 35.21 C-57.98 14.85 -32.8 3.91 -6.92 0.47 C-4.62 0.27 -2.31 0.15 0 0 Z " fill="#EFF3F6" transform="translate(192.546875,250.83984375)"/>
<path d="M0 0 C0.76 0.03 1.52 0.07 2.31 0.1 C7.7 0.43 12.15 1.66 17.16 3.74 C19.79 4.75 22.31 5.27 25.06 5.81 C33.81 7.92 42.8 12.8 49.62 18.69 C49.62 19.35 49.62 20.01 49.62 20.69 C50.28 20.69 50.94 20.69 51.62 20.69 C54.54 23.82 57.06 27.27 59.62 30.69 C60.35 31.64 60.35 31.64 61.09 32.61 C70.27 45.85 71.72 62.09 69.62 77.69 C68.02 84.94 65.45 91.85 62.76 98.76 C61.29 102.55 59.93 106.36 58.56 110.18 C57.58 112.9 56.58 115.62 55.58 118.34 C53.31 124.53 51.13 130.76 48.97 136.99 C41.78 157.69 33.12 175.06 12.84 185.66 C-2.27 192.66 -18.52 193.72 -34.38 188.69 C-35.52 188.34 -36.67 187.98 -37.85 187.62 C-45.65 185.05 -52.94 181.9 -59.38 176.69 C-59.38 176.03 -59.38 175.37 -59.38 174.69 C-59.95 174.44 -60.53 174.2 -61.13 173.95 C-71.72 168.01 -78.11 153.76 -81.38 142.69 C-83.16 128.37 -82.27 114.94 -78.28 101.07 C-77.55 98.36 -77.08 95.97 -76.88 93.19 C-76.51 88.36 -75.12 83.83 -73.82 79.2 C-72.9 75.85 -72.14 72.65 -71.88 69.19 C-71.46 63.74 -69.81 58.57 -68.31 53.34 C-67.3 49.75 -67.3 49.75 -67 46.24 C-66.22 41.81 -64.52 38.39 -62.44 34.44 C-62.08 33.73 -61.72 33.02 -61.35 32.3 C-59.81 29.3 -58.25 26.5 -56.38 23.69 C-55.72 23.69 -55.05 23.69 -54.38 23.69 C-54.11 23.1 -53.84 22.5 -53.56 21.89 C-47.98 11.49 -35.22 5.41 -24.61 1.62 C-16.47 -0.73 -8.38 -0.39 0 0 Z " fill="#000100" transform="translate(913.375,36.3125)"/>
<path d="M0 0 C0.96 0.5 1.91 1 2.9 1.52 C12.73 7.37 21.74 16.2 29 25 C29 25.66 29 26.32 29 27 C29.66 27 30.32 27 31 27 C42.58 41.71 46.41 57.48 44.73 76.02 C42.17 94.42 31.73 107.64 18.06 119.56 C16 121 16 121 14 121 C14 121.66 14 122.32 14 123 C12.39 124.46 10.71 125.84 9 127.19 C4.72 130.6 0.59 134.09 -3.44 137.79 C-5 139 -5 139 -7 139 C-7 139.66 -7 140.32 -7 141 C-9.12 142.95 -9.12 142.95 -11.88 145.12 C-13.23 146.21 -13.23 146.21 -14.62 147.32 C-17 149 -17 149 -19 149 C-19 149.66 -19 150.32 -19 151 C-21.12 152.95 -21.12 152.95 -23.88 155.12 C-25.23 156.21 -25.23 156.21 -26.62 157.32 C-29 159 -29 159 -31 159 C-31 159.66 -31 160.32 -31 161 C-46.08 171.43 -62.33 174.96 -80.5 172.38 C-87.12 171.03 -93.01 168.03 -99 165 C-100.18 164.41 -100.18 164.41 -101.38 163.81 C-101.91 163.54 -102.45 163.28 -103 163 C-103 162.34 -103 161.68 -103 161 C-104.03 160.7 -104.03 160.7 -105.08 160.39 C-109.04 158.5 -111.64 155.8 -114.69 152.69 C-115.27 152.12 -115.85 151.55 -116.45 150.96 C-119.54 147.85 -121.75 145.31 -123 141 C-123.66 141 -124.32 141 -125 141 C-133.81 126.26 -137.38 110.27 -133.75 93.25 C-131.41 84.18 -127.55 75.59 -122 68 C-121.34 68 -120.68 68 -120 68 C-119.73 67.42 -119.46 66.84 -119.19 66.25 C-117.97 63.94 -116.7 61.98 -115 60 C-114.34 60 -113.68 60 -113 60 C-112.77 59.45 -112.54 58.9 -112.3 58.34 C-110.62 55.33 -108.48 53.08 -106.12 50.56 C-103.57 47.82 -101.1 45.12 -98.8 42.15 C-98.21 41.44 -97.61 40.73 -97 40 C-96.34 40 -95.68 40 -95 40 C-94.73 39.42 -94.46 38.84 -94.19 38.25 C-92.97 35.94 -91.7 33.98 -90 32 C-89.34 32 -88.68 32 -88 32 C-87.75 31.44 -87.51 30.89 -87.25 30.31 C-85.77 27.58 -84.07 25.32 -82 23 C-81.34 23 -80.68 23 -80 23 C-79.74 22.41 -79.48 21.82 -79.21 21.21 C-77.94 18.88 -76.6 17.4 -74.69 15.56 C-72.63 13.58 -70.66 11.62 -68.75 9.5 C-51.07 -6.58 -21.38 -11.64 0 0 Z " fill="#000100" transform="translate(1137,147)"/>
<path d="M0 0 C0.9 0.4 1.8 0.8 2.73 1.21 C10.59 5.04 17.05 10.65 23 17 C23 17.66 23 18.32 23 19 C23.66 19 24.32 19 25 19 C32.65 28.94 36.13 41.18 38.42 53.3 C38.72 55.9 38.72 55.9 40 57 C40.24 61.15 40.23 65.3 40.24 69.45 C40.25 71.53 40.28 73.61 40.31 75.68 C40.37 82.78 40.14 88.56 37 95 C36.54 96.03 36.08 97.06 35.61 98.12 C29.61 110.28 29.61 110.28 25 115 C24.34 115 23.68 115 23 115 C23 115.66 23 116.32 23 117 C21.32 118.51 21.32 118.51 19.12 120.12 C18.41 120.66 17.69 121.2 16.95 121.76 C15 123 15 123 13 123 C13 123.66 13 124.32 13 125 C-1.45 132.63 -15.6 135.18 -31.65 137.54 C-32.82 137.71 -33.99 137.88 -35.19 138.06 C-36.25 138.22 -37.32 138.37 -38.42 138.54 C-40.98 138.87 -40.98 138.87 -43 140 C-44.56 140.18 -46.12 140.32 -47.69 140.44 C-52.01 140.83 -55.84 141.74 -60 143 C-70.5 145.54 -81.22 146.37 -92 146 C-92.91 145.97 -93.82 145.94 -94.75 145.91 C-101.31 145.53 -106.17 143.93 -112 141 C-113.18 140.55 -114.35 140.09 -115.56 139.62 C-119.86 137.6 -123.31 134.96 -127 132 C-127.82 131.36 -127.82 131.36 -128.66 130.71 C-132.33 127.8 -135.23 124.75 -138 121 C-138 120.01 -138 119.02 -138 118 C-138.66 118 -139.32 118 -140 118 C-140.96 116.13 -141.92 114.25 -142.88 112.38 C-143.41 111.33 -143.94 110.29 -144.49 109.21 C-152.07 93.08 -153.01 74.97 -148 58 C-146.51 54.23 -144.86 50.6 -143 47 C-142.34 47 -141.68 47 -141 47 C-140.89 46.43 -140.78 45.85 -140.67 45.26 C-137.87 35.85 -127.82 29.16 -120 24 C-116.74 22.34 -113.48 21.11 -110 20 C-108.62 19.49 -107.25 18.97 -105.88 18.44 C-105.23 18.2 -104.59 17.96 -103.93 17.72 C-102.62 17.23 -101.31 16.73 -100.01 16.22 C-96.15 14.72 -92.36 13.55 -88.32 12.59 C-81.43 10.84 -74.62 8.75 -68.06 6 C-62.92 3.86 -57.64 2.43 -52.28 0.95 C-48.42 -0.17 -44.74 -1.54 -41 -3 C-28.93 -6.66 -11.18 -5.62 0 0 Z " fill="#000100" transform="translate(1240,348)"/>
<path d="M0 0 C0.88 0.75 1.76 1.5 2.67 2.27 C3.39 2.87 4.11 3.47 4.84 4.09 C20.51 18.5 29.64 40.11 30.83 61.08 C31.44 82.75 23.82 103.21 8.93 119.04 C-4.92 133.26 -23.07 143.73 -43.33 144.27 C-44.27 144.32 -45.22 144.37 -46.19 144.42 C-70.1 145.15 -90.11 135.84 -107.71 120.14 C-122.38 106.22 -129.98 86.34 -130.68 66.28 C-130.96 42.72 -121.54 22.08 -105.58 5.14 C-101 0.69 -95.85 -2.57 -90.33 -5.73 C-89.55 -6.19 -88.77 -6.64 -87.96 -7.11 C-82.88 -9.85 -77.63 -11.74 -72.14 -13.48 C-71.14 -13.8 -71.14 -13.8 -70.12 -14.12 C-46.42 -21.31 -19.17 -15.32 0 0 Z " fill="#000100" transform="translate(384.328125,478.734375)"/>
<path d="M0 0 C14.81 11.58 23.88 31.5 26.14 49.71 C27.3 69.31 22.8 87.49 9.97 102.7 C9.37 103.36 8.76 104.02 8.14 104.71 C7.13 105.84 7.13 105.84 6.09 107 C-7.22 121.11 -25.48 128.48 -44.8 129.08 C-56.43 128.72 -67.64 126.37 -77.86 120.71 C-78.91 120.13 -79.96 119.55 -81.04 118.96 C-98.3 108.89 -110.2 95.34 -115.61 75.96 C-120.06 56.28 -117.53 35.87 -106.84 18.62 C-94.93 1.06 -79.17 -10.02 -58.37 -14.26 C-37.24 -18.09 -17.4 -12.1 0 0 Z " fill="#000100" transform="translate(926.859375,923.29296875)"/>
<path d="M0 0 C1.3 0 1.3 0 2.62 0 C13.41 0.21 24.13 2.6 33.38 8.38 C34.17 8.87 34.97 9.36 35.79 9.87 C50.97 19.83 61.6 36.63 65.38 54.38 C66.29 67 66.58 79.65 61.38 91.38 C60.99 92.36 60.6 93.34 60.2 94.36 C53.56 109.51 39.19 122.47 23.87 128.6 C4.9 134.48 -13.38 133.7 -31.04 124.57 C-36.35 121.69 -41.06 118.33 -45.62 114.38 C-46.44 113.77 -47.25 113.16 -48.08 112.54 C-60.65 101.84 -65.26 84.99 -66.84 69.19 C-67.68 50.71 -60.02 34.04 -48.05 20.45 C-42.18 14.25 -36.41 9.87 -28.62 6.38 C-27.77 5.99 -26.91 5.6 -26.03 5.2 C-17.5 1.57 -9.26 -0.02 0 0 Z " fill="#000100" transform="translate(741.625,787.625)"/>
<path d="M0 0 C0.86 0.53 1.72 1.06 2.61 1.61 C16.32 10.77 26.1 26.62 29.57 42.74 C32.11 61.91 27.8 77.89 16.18 93.39 C12.82 97.41 9.08 100.74 5 104 C4.45 104.47 3.9 104.94 3.33 105.43 C-8.44 114.82 -24.52 116.93 -39.05 115.52 C-56.05 113.27 -71.68 103.95 -82.77 90.93 C-92.5 77.63 -95.38 60.1 -93.34 44.04 C-90.53 27.18 -81.14 13.08 -67.75 2.69 C-61.89 -1.37 -55.77 -3.85 -49 -6 C-47.9 -6.37 -47.9 -6.37 -46.77 -6.75 C-31.86 -10.92 -13.05 -8.26 0 0 Z " fill="#000100" transform="translate(487,353)"/>
<path d="M0 0 C10.98 8.37 14.29 19.83 16.62 33 C17.5 40.06 15.66 45.76 11.94 51.69 C5.01 58.61 -2.48 60.25 -11.94 61.88 C-13.28 62.12 -14.62 62.36 -15.96 62.61 C-18.85 63.13 -21.75 63.65 -24.65 64.16 C-28.81 64.9 -32.97 65.66 -37.12 66.44 C-40.63 67.1 -44.15 67.75 -47.66 68.4 C-49.37 68.71 -51.09 69.03 -52.8 69.35 C-55.21 69.8 -57.63 70.24 -60.05 70.68 C-61.12 70.88 -61.12 70.88 -62.2 71.09 C-71.04 72.66 -78.58 72.84 -86.38 68 C-93.29 63.12 -95.87 57.54 -97.81 49.39 C-99.08 41.77 -97.46 36.42 -94.31 29.46 C-88.33 21.87 -79.01 19.16 -70.12 16.36 C-68.25 15.75 -68.25 15.75 -66.33 15.13 C-63.02 14.06 -59.71 13.01 -56.4 11.96 C-53.04 10.89 -49.69 9.81 -46.34 8.72 C-40.35 6.79 -34.35 4.87 -28.36 2.96 C-24.96 1.87 -21.59 0.72 -18.22 -0.45 C-12.41 -2.17 -5.74 -1.7 0 0 Z " fill="#F2E166" transform="translate(1225.375,383)"/>
<path d="M0 0 C5.33 4.36 9.7 10.1 10.67 17.03 C10.86 25.65 8.6 32.43 5.43 40.37 C4.67 42.34 3.92 44.31 3.16 46.28 C2.65 47.63 2.13 48.98 1.61 50.33 C-0.65 56.23 -2.69 62.19 -4.69 68.18 C-15.05 99.15 -15.05 99.15 -25.82 105.18 C-32.97 108 -41.14 106.94 -48.27 104.55 C-55.11 101.4 -61.02 96.45 -63.95 89.43 C-66.38 79.85 -62.91 68.66 -60.89 59.27 C-60.61 57.94 -60.33 56.61 -60.05 55.29 C-59.47 52.53 -58.88 49.77 -58.29 47.01 C-57.53 43.51 -56.79 40 -56.06 36.49 C-55.48 33.76 -54.9 31.03 -54.31 28.29 C-53.91 26.38 -53.51 24.47 -53.1 22.56 C-50.75 11.73 -48.72 2.42 -39.32 -4.26 C-27.37 -10.23 -11.28 -6.57 0 0 Z " fill="#F2E166" transform="translate(933.6953125,81.5703125)"/>
<path d="M0 0 C2.1 1.79 4.01 3.68 5.94 5.65 C6.78 6.45 7.62 7.24 8.48 8.05 C16.08 15.34 21.39 21.29 22.19 31.96 C21.48 42.51 15.47 47.97 7.94 54.65 C5.32 56.89 2.65 59.06 -0.04 61.21 C-3.62 64.11 -7.09 67.12 -10.56 70.15 C-15.78 74.7 -21.04 79.17 -26.43 83.52 C-28.29 85.03 -30.13 86.56 -31.97 88.1 C-32.93 88.9 -33.88 89.7 -34.87 90.53 C-35.72 91.25 -36.58 91.97 -37.45 92.71 C-44.52 97.98 -50.45 98.54 -59.06 97.65 C-66.85 95.85 -73.19 88.63 -78.06 82.65 C-79.69 78.84 -80.37 75.47 -80.43 71.34 C-80.48 70.05 -80.48 70.05 -80.52 68.73 C-79.36 61.01 -75.35 55.17 -70.18 49.53 C-69.62 48.9 -69.06 48.27 -68.48 47.61 C-63.13 41.64 -57.64 35.79 -52.14 29.95 C-49.28 26.9 -46.5 23.79 -43.77 20.62 C-40.71 17.11 -37.54 13.69 -34.39 10.27 C-32.86 8.55 -31.37 6.78 -29.96 4.96 C-25.99 0.14 -20.46 -2.03 -14.45 -3.15 C-9.22 -3.58 -4.45 -2.91 0 0 Z " fill="#F2E065" transform="translate(1121.05859375,182.34765625)"/>
<path d="M0 0 C8.97 5.1 16.3 13.37 20.3 22.88 C20.61 23.53 20.93 24.19 21.25 24.87 C24.84 33.51 24.96 46.06 21.39 54.74 C15.16 66.91 7.29 76.53 -6 81.06 C-16.72 83.42 -27.99 83.34 -37.7 77.88 C-38.53 77.46 -39.36 77.05 -40.21 76.62 C-50.2 71.25 -57.24 63.35 -60.89 52.56 C-63.79 39.43 -62.27 27.13 -55.28 15.51 C-42.8 -2.3 -19.91 -8.08 0 0 Z " fill="#F6EEB0" transform="translate(353.703125,503.125)"/>
<path d="M0 0 C5.88 3.72 9.6 9.03 13 15 C13.34 15.59 13.69 16.18 14.04 16.79 C17.62 24.38 17.33 34.46 15 42.39 C10.93 51.39 4.21 58.33 -4.75 62.56 C-13.58 65.57 -23.67 65.18 -32.26 61.59 C-40.75 56.67 -48.3 49.66 -51 40 C-51.28 39.04 -51.28 39.04 -51.56 38.06 C-53.8 27.51 -50.73 18.09 -45.19 9.12 C-34.92 -5.16 -15.15 -7.7 0 0 Z " fill="#F6EFB1" transform="translate(899,950)"/>
<path d="M0 0 C6.06 4.39 10.82 11.21 12.62 18.5 C14.03 27.7 12.55 34.68 7.12 42.25 C2.71 47.78 -1.99 51.41 -9 53 C-19.25 54.02 -26.04 52.4 -34.25 46.31 C-39.85 41.65 -43.38 36.12 -44.27 28.72 C-44.61 19.79 -42.25 12.13 -36.69 5.06 C-24.92 -3.97 -13.72 -6.93 0 0 Z " fill="#F6EFB1" transform="translate(757,829)"/>
<path d="M0 0 C2.75 2.75 2.75 2.75 5 6 C5.59 6.84 5.59 6.84 6.19 7.71 C9.84 13.75 9.95 20.12 9 27 C6.39 35.07 0.71 39.27 -6.38 43.38 C-14.29 45.26 -21.07 44.22 -28 40 C-33.78 36.01 -37.66 32.04 -39 25 C-39.99 17.05 -38.29 9.59 -33.38 3.19 C-24.49 -6.36 -10.53 -7.09 0 0 Z " fill="#F6EFB1" transform="translate(470,387)"/>
<path d="M0 0 C4.53 4.93 6.87 9.97 7.38 16.62 C6.92 23.35 4.99 26.81 0.06 31.19 C-4.66 35.11 -7.71 35.78 -13.84 35.73 C-18.94 35.03 -23 32.64 -26.88 29.31 C-30.5 23.91 -31.31 19.83 -30.88 13.31 C-29.51 7.66 -27.31 4.18 -22.88 0.31 C-22.21 -0.35 -21.56 -1.01 -20.88 -1.69 C-13.48 -4.33 -6.87 -4.03 0 0 Z " fill="#000100" transform="translate(407.875,668.6875)"/>
<path d="M0 0 C2.08 2.48 3.57 5.11 5 8 C5.37 8.65 5.73 9.31 6.11 9.98 C8.21 14.74 7.33 19.84 5.94 24.69 C3.28 29.23 -0.27 32.63 -5 35 C-12.85 35.89 -18.91 35.68 -25.26 30.7 C-29.18 26.87 -30.56 22.57 -31.06 17.14 C-30.86 10.17 -27.76 4.88 -23 0 C-16.26 -4.49 -6.86 -4.37 0 0 Z " fill="#000100" transform="translate(893,814)"/>
<path d="M0 0 C4.58 3.55 6.87 8.22 7.73 13.89 C8.14 21.33 6.4 26.32 1.52 31.94 C-3.11 35.81 -8.33 35.93 -14.12 35.84 C-20.15 34.96 -24.25 31.59 -28.21 27.14 C-30.64 20.44 -30.88 14.1 -28.29 7.43 C-25.93 2.97 -22.9 0.21 -18.39 -1.99 C-11.74 -3.29 -6.03 -3.43 0 0 Z " fill="#000100" transform="translate(978.20703125,1069.61328125)"/>
<path d="M0 0 C5.33 6.35 7.55 11.68 7 20 C5.27 27.72 1.44 30.7 -5 35 C-11.83 36.08 -17.71 35.82 -23.62 32.06 C-28.2 28.37 -30.34 24.85 -31 19 C-31.1 13.43 -30.13 8.69 -27 4 C-19.52 -3.71 -9.6 -5.98 0 0 Z " fill="#000100" transform="translate(668,377)"/>
<path d="M0 0 C3.47 1.94 5.06 3.53 7.25 6.81 C8.03 7.93 8.03 7.93 8.83 9.08 C11.61 14.43 11.23 21.3 9.63 27.04 C7.23 31.88 3.22 34.97 -1.75 36.81 C-8.16 37.96 -13.27 37.61 -18.81 34.06 C-22.92 31.03 -25.89 27.96 -26.75 22.81 C-27.6 16.57 -26.53 11.57 -23.5 6.05 C-17.62 -1.5 -8.66 -2.74 0 0 Z " fill="#000100" transform="translate(730.75,1082.1875)"/>
<path d="M0 0 C2 1 2 1 2 1 Z " fill="#000100" transform="translate(766,1210)"/>
</svg>
